G04 #@! TF.FileFunction,Legend,Top*
%FSLAX46Y46*%
G04 Gerber Fmt 4.6, Leading zero omitted, Abs format (unit mm)*
G04 Created by KiCad (PCBNEW (2015-01-16 BZR 5376)-product) date 31.05.2015 18:22:37*
%MOMM*%
G01*
G04 APERTURE LIST*
%ADD10C,0.100000*%
%ADD11C,0.250000*%
%ADD12C,0.150000*%
G04 APERTURE END LIST*
D10*
D11*
X93812858Y-111198571D02*
X93955715Y-111246190D01*
X94003334Y-111293810D01*
X94050953Y-111389048D01*
X94050953Y-111531905D01*
X94003334Y-111627143D01*
X93955715Y-111674762D01*
X93860477Y-111722381D01*
X93479524Y-111722381D01*
X93479524Y-110722381D01*
X93812858Y-110722381D01*
X93908096Y-110770000D01*
X93955715Y-110817619D01*
X94003334Y-110912857D01*
X94003334Y-111008095D01*
X93955715Y-111103333D01*
X93908096Y-111150952D01*
X93812858Y-111198571D01*
X93479524Y-111198571D01*
X94670000Y-110722381D02*
X94860477Y-110722381D01*
X94955715Y-110770000D01*
X95050953Y-110865238D01*
X95098572Y-111055714D01*
X95098572Y-111389048D01*
X95050953Y-111579524D01*
X94955715Y-111674762D01*
X94860477Y-111722381D01*
X94670000Y-111722381D01*
X94574762Y-111674762D01*
X94479524Y-111579524D01*
X94431905Y-111389048D01*
X94431905Y-111055714D01*
X94479524Y-110865238D01*
X94574762Y-110770000D01*
X94670000Y-110722381D01*
X95717619Y-110722381D02*
X95908096Y-110722381D01*
X96003334Y-110770000D01*
X96098572Y-110865238D01*
X96146191Y-111055714D01*
X96146191Y-111389048D01*
X96098572Y-111579524D01*
X96003334Y-111674762D01*
X95908096Y-111722381D01*
X95717619Y-111722381D01*
X95622381Y-111674762D01*
X95527143Y-111579524D01*
X95479524Y-111389048D01*
X95479524Y-111055714D01*
X95527143Y-110865238D01*
X95622381Y-110770000D01*
X95717619Y-110722381D01*
X96431905Y-110722381D02*
X97003334Y-110722381D01*
X96717619Y-111722381D02*
X96717619Y-110722381D01*
X115692381Y-111692381D02*
X115359047Y-111216190D01*
X115120952Y-111692381D02*
X115120952Y-110692381D01*
X115501905Y-110692381D01*
X115597143Y-110740000D01*
X115644762Y-110787619D01*
X115692381Y-110882857D01*
X115692381Y-111025714D01*
X115644762Y-111120952D01*
X115597143Y-111168571D01*
X115501905Y-111216190D01*
X115120952Y-111216190D01*
X116073333Y-111644762D02*
X116216190Y-111692381D01*
X116454286Y-111692381D01*
X116549524Y-111644762D01*
X116597143Y-111597143D01*
X116644762Y-111501905D01*
X116644762Y-111406667D01*
X116597143Y-111311429D01*
X116549524Y-111263810D01*
X116454286Y-111216190D01*
X116263809Y-111168571D01*
X116168571Y-111120952D01*
X116120952Y-111073333D01*
X116073333Y-110978095D01*
X116073333Y-110882857D01*
X116120952Y-110787619D01*
X116168571Y-110740000D01*
X116263809Y-110692381D01*
X116501905Y-110692381D01*
X116644762Y-110740000D01*
X116930476Y-110692381D02*
X117501905Y-110692381D01*
X117216190Y-111692381D02*
X117216190Y-110692381D01*
X120128572Y-111052381D02*
X120128572Y-110052381D01*
X120128572Y-111004762D02*
X120033334Y-111052381D01*
X119842857Y-111052381D01*
X119747619Y-111004762D01*
X119700000Y-110957143D01*
X119652381Y-110861905D01*
X119652381Y-110576190D01*
X119700000Y-110480952D01*
X119747619Y-110433333D01*
X119842857Y-110385714D01*
X120033334Y-110385714D01*
X120128572Y-110433333D01*
X120985715Y-111004762D02*
X120890477Y-111052381D01*
X120700000Y-111052381D01*
X120604762Y-111004762D01*
X120557143Y-110909524D01*
X120557143Y-110528571D01*
X120604762Y-110433333D01*
X120700000Y-110385714D01*
X120890477Y-110385714D01*
X120985715Y-110433333D01*
X121033334Y-110528571D01*
X121033334Y-110623810D01*
X120557143Y-110719048D01*
X121461905Y-111052381D02*
X121461905Y-110052381D01*
X121461905Y-110433333D02*
X121557143Y-110385714D01*
X121747620Y-110385714D01*
X121842858Y-110433333D01*
X121890477Y-110480952D01*
X121938096Y-110576190D01*
X121938096Y-110861905D01*
X121890477Y-110957143D01*
X121842858Y-111004762D01*
X121747620Y-111052381D01*
X121557143Y-111052381D01*
X121461905Y-111004762D01*
X122795239Y-110385714D02*
X122795239Y-111052381D01*
X122366667Y-110385714D02*
X122366667Y-110909524D01*
X122414286Y-111004762D01*
X122509524Y-111052381D01*
X122652382Y-111052381D01*
X122747620Y-111004762D01*
X122795239Y-110957143D01*
X123700001Y-110385714D02*
X123700001Y-111195238D01*
X123652382Y-111290476D01*
X123604763Y-111338095D01*
X123509524Y-111385714D01*
X123366667Y-111385714D01*
X123271429Y-111338095D01*
X123700001Y-111004762D02*
X123604763Y-111052381D01*
X123414286Y-111052381D01*
X123319048Y-111004762D01*
X123271429Y-110957143D01*
X123223810Y-110861905D01*
X123223810Y-110576190D01*
X123271429Y-110480952D01*
X123319048Y-110433333D01*
X123414286Y-110385714D01*
X123604763Y-110385714D01*
X123700001Y-110433333D01*
X124604763Y-111004762D02*
X124509525Y-111052381D01*
X124319048Y-111052381D01*
X124223810Y-111004762D01*
X124176191Y-110957143D01*
X124128572Y-110861905D01*
X124128572Y-110576190D01*
X124176191Y-110480952D01*
X124223810Y-110433333D01*
X124319048Y-110385714D01*
X124509525Y-110385714D01*
X124604763Y-110433333D01*
X125176191Y-111052381D02*
X125080953Y-111004762D01*
X125033334Y-110957143D01*
X124985715Y-110861905D01*
X124985715Y-110576190D01*
X125033334Y-110480952D01*
X125080953Y-110433333D01*
X125176191Y-110385714D01*
X125319049Y-110385714D01*
X125414287Y-110433333D01*
X125461906Y-110480952D01*
X125509525Y-110576190D01*
X125509525Y-110861905D01*
X125461906Y-110957143D01*
X125414287Y-111004762D01*
X125319049Y-111052381D01*
X125176191Y-111052381D01*
X125938096Y-110957143D02*
X125985715Y-111004762D01*
X125938096Y-111052381D01*
X125890477Y-111004762D01*
X125938096Y-110957143D01*
X125938096Y-111052381D01*
X126842858Y-111052381D02*
X126842858Y-110052381D01*
X126842858Y-111004762D02*
X126747620Y-111052381D01*
X126557143Y-111052381D01*
X126461905Y-111004762D01*
X126414286Y-110957143D01*
X126366667Y-110861905D01*
X126366667Y-110576190D01*
X126414286Y-110480952D01*
X126461905Y-110433333D01*
X126557143Y-110385714D01*
X126747620Y-110385714D01*
X126842858Y-110433333D01*
X127700001Y-111004762D02*
X127604763Y-111052381D01*
X127414286Y-111052381D01*
X127319048Y-111004762D01*
X127271429Y-110909524D01*
X127271429Y-110528571D01*
X127319048Y-110433333D01*
X127414286Y-110385714D01*
X127604763Y-110385714D01*
X127700001Y-110433333D01*
X127747620Y-110528571D01*
X127747620Y-110623810D01*
X127271429Y-110719048D01*
X119814284Y-109352381D02*
X119719046Y-109304762D01*
X119671427Y-109209524D01*
X119671427Y-108352381D01*
X120576190Y-109304762D02*
X120480952Y-109352381D01*
X120290475Y-109352381D01*
X120195237Y-109304762D01*
X120147618Y-109209524D01*
X120147618Y-108828571D01*
X120195237Y-108733333D01*
X120290475Y-108685714D01*
X120480952Y-108685714D01*
X120576190Y-108733333D01*
X120623809Y-108828571D01*
X120623809Y-108923810D01*
X120147618Y-109019048D01*
X121480952Y-109352381D02*
X121480952Y-108352381D01*
X121480952Y-109304762D02*
X121385714Y-109352381D01*
X121195237Y-109352381D01*
X121099999Y-109304762D01*
X121052380Y-109257143D01*
X121004761Y-109161905D01*
X121004761Y-108876190D01*
X121052380Y-108780952D01*
X121099999Y-108733333D01*
X121195237Y-108685714D01*
X121385714Y-108685714D01*
X121480952Y-108733333D01*
X122385714Y-109304762D02*
X122290476Y-109352381D01*
X122099999Y-109352381D01*
X122004761Y-109304762D01*
X121957142Y-109257143D01*
X121909523Y-109161905D01*
X121909523Y-108876190D01*
X121957142Y-108780952D01*
X122004761Y-108733333D01*
X122099999Y-108685714D01*
X122290476Y-108685714D01*
X122385714Y-108733333D01*
X122671428Y-108685714D02*
X123052380Y-108685714D01*
X122814285Y-108352381D02*
X122814285Y-109209524D01*
X122861904Y-109304762D01*
X122957142Y-109352381D01*
X123052380Y-109352381D01*
X123385714Y-109352381D02*
X123385714Y-108685714D01*
X123385714Y-108876190D02*
X123433333Y-108780952D01*
X123480952Y-108733333D01*
X123576190Y-108685714D01*
X123671429Y-108685714D01*
X124147619Y-109352381D02*
X124052381Y-109304762D01*
X124004762Y-109209524D01*
X124004762Y-108352381D01*
X125195239Y-108685714D02*
X125433334Y-109352381D01*
X125671430Y-108685714D01*
X126004763Y-108447619D02*
X126052382Y-108400000D01*
X126147620Y-108352381D01*
X126385716Y-108352381D01*
X126480954Y-108400000D01*
X126528573Y-108447619D01*
X126576192Y-108542857D01*
X126576192Y-108638095D01*
X126528573Y-108780952D01*
X125957144Y-109352381D01*
X126576192Y-109352381D01*
D12*
X104150000Y-83125000D02*
X103650000Y-83125000D01*
X103650000Y-84075000D02*
X104150000Y-84075000D01*
X103475000Y-105225000D02*
X104235000Y-105225000D01*
X103475000Y-90975000D02*
X104235000Y-90975000D01*
X117725000Y-90975000D02*
X116965000Y-90975000D01*
X117725000Y-105225000D02*
X116965000Y-105225000D01*
X103475000Y-105225000D02*
X103475000Y-104465000D01*
X117725000Y-105225000D02*
X117725000Y-104465000D01*
X117725000Y-90975000D02*
X117725000Y-91735000D01*
X103475000Y-90975000D02*
X103475000Y-91735000D01*
X104235000Y-105225000D02*
X104235000Y-106750000D01*
X108050000Y-109675000D02*
X107550000Y-109675000D01*
X107550000Y-110725000D02*
X108050000Y-110725000D01*
X126750000Y-101275000D02*
X126250000Y-101275000D01*
X126250000Y-102325000D02*
X126750000Y-102325000D01*
X126750000Y-106475000D02*
X126250000Y-106475000D01*
X126250000Y-107525000D02*
X126750000Y-107525000D01*
X126850000Y-94275000D02*
X126350000Y-94275000D01*
X126350000Y-95325000D02*
X126850000Y-95325000D01*
X126750000Y-99575000D02*
X126250000Y-99575000D01*
X126250000Y-100625000D02*
X126750000Y-100625000D01*
X126850000Y-87275000D02*
X126350000Y-87275000D01*
X126350000Y-88325000D02*
X126850000Y-88325000D01*
X126850000Y-92575000D02*
X126350000Y-92575000D01*
X126350000Y-93625000D02*
X126850000Y-93625000D01*
X128175000Y-80550000D02*
X128175000Y-81050000D01*
X129225000Y-81050000D02*
X129225000Y-80550000D01*
X126850000Y-85575000D02*
X126350000Y-85575000D01*
X126350000Y-86625000D02*
X126850000Y-86625000D01*
X101450000Y-90675000D02*
X101950000Y-90675000D01*
X101950000Y-89725000D02*
X101450000Y-89725000D01*
X97250000Y-101975000D02*
X97750000Y-101975000D01*
X97750000Y-101025000D02*
X97250000Y-101025000D01*
X108945000Y-84350000D02*
X108945000Y-84850000D01*
X109995000Y-84850000D02*
X109995000Y-84350000D01*
X107465000Y-84350000D02*
X107465000Y-84850000D01*
X108515000Y-84850000D02*
X108515000Y-84350000D01*
X110395000Y-84350000D02*
X110395000Y-84850000D01*
X111445000Y-84850000D02*
X111445000Y-84350000D01*
X112955000Y-84860000D02*
X112955000Y-84360000D01*
X111905000Y-84360000D02*
X111905000Y-84860000D01*
X94750000Y-103725000D02*
X95250000Y-103725000D01*
X95250000Y-102675000D02*
X94750000Y-102675000D01*
X94750000Y-105525000D02*
X95250000Y-105525000D01*
X95250000Y-104475000D02*
X94750000Y-104475000D01*
X123550000Y-104775000D02*
X123050000Y-104775000D01*
X123050000Y-105825000D02*
X123550000Y-105825000D01*
X123550000Y-103075000D02*
X123050000Y-103075000D01*
X123050000Y-104125000D02*
X123550000Y-104125000D01*
X123550000Y-97875000D02*
X123050000Y-97875000D01*
X123050000Y-98925000D02*
X123550000Y-98925000D01*
X123550000Y-95975000D02*
X123050000Y-95975000D01*
X123050000Y-97025000D02*
X123550000Y-97025000D01*
X122950000Y-91925000D02*
X123450000Y-91925000D01*
X123450000Y-90875000D02*
X122950000Y-90875000D01*
X122950000Y-90025000D02*
X123450000Y-90025000D01*
X123450000Y-88975000D02*
X122950000Y-88975000D01*
X122950000Y-84925000D02*
X123450000Y-84925000D01*
X123450000Y-83875000D02*
X122950000Y-83875000D01*
X122950000Y-83025000D02*
X123450000Y-83025000D01*
X123450000Y-81975000D02*
X122950000Y-81975000D01*
X95250000Y-95575000D02*
X94750000Y-95575000D01*
X94750000Y-96625000D02*
X95250000Y-96625000D01*
X95250000Y-97175000D02*
X94750000Y-97175000D01*
X94750000Y-98225000D02*
X95250000Y-98225000D01*
X127281200Y-105989200D02*
X125604800Y-105989200D01*
X127230400Y-102890400D02*
X125655600Y-102890400D01*
X126284922Y-103527940D02*
G75*
G03X126284922Y-103527940I-167042J0D01*
G01*
X127281200Y-98889200D02*
X125604800Y-98889200D01*
X127230400Y-95790400D02*
X125655600Y-95790400D01*
X126284922Y-96427940D02*
G75*
G03X126284922Y-96427940I-167042J0D01*
G01*
X127281200Y-91989200D02*
X125604800Y-91989200D01*
X127230400Y-88890400D02*
X125655600Y-88890400D01*
X126284922Y-89527940D02*
G75*
G03X126284922Y-89527940I-167042J0D01*
G01*
X127381200Y-84989200D02*
X125704800Y-84989200D01*
X127330400Y-81890400D02*
X125755600Y-81890400D01*
X126384922Y-82527940D02*
G75*
G03X126384922Y-82527940I-167042J0D01*
G01*
X91118800Y-102610800D02*
X92795200Y-102610800D01*
X91169600Y-105709600D02*
X92744400Y-105709600D01*
X92449162Y-105072060D02*
G75*
G03X92449162Y-105072060I-167042J0D01*
G01*
X91118800Y-95510800D02*
X92795200Y-95510800D01*
X91169600Y-98609600D02*
X92744400Y-98609600D01*
X92449162Y-97972060D02*
G75*
G03X92449162Y-97972060I-167042J0D01*
G01*
X91750000Y-107225000D02*
X92250000Y-107225000D01*
X92250000Y-106175000D02*
X91750000Y-106175000D01*
X91750000Y-102025000D02*
X92250000Y-102025000D01*
X92250000Y-100975000D02*
X91750000Y-100975000D01*
X91750000Y-100125000D02*
X92250000Y-100125000D01*
X92250000Y-99075000D02*
X91750000Y-99075000D01*
X91650000Y-95025000D02*
X92150000Y-95025000D01*
X92150000Y-93975000D02*
X91650000Y-93975000D01*
X134186000Y-79400000D02*
G75*
G03X134186000Y-79400000I-2286000J0D01*
G01*
X134186000Y-109600000D02*
G75*
G03X134186000Y-109600000I-2286000J0D01*
G01*
X88986000Y-109600000D02*
G75*
G03X88986000Y-109600000I-2286000J0D01*
G01*
X88986000Y-79400000D02*
G75*
G03X88986000Y-79400000I-2286000J0D01*
G01*
X102200000Y-87100000D02*
X102200000Y-77100000D01*
X102200000Y-77100000D02*
X90200000Y-77100000D01*
X90200000Y-77100000D02*
X90200000Y-89100000D01*
X90200000Y-89100000D02*
X102200000Y-89100000D01*
X102200000Y-89100000D02*
X102200000Y-87100000D01*
X119050000Y-81100000D02*
X120600000Y-81100000D01*
X119050000Y-79800000D02*
X119050000Y-81100000D01*
X120473000Y-75609000D02*
X120473000Y-69767000D01*
X120473000Y-69767000D02*
X120727000Y-69767000D01*
X120727000Y-69767000D02*
X120727000Y-75609000D01*
X120727000Y-75609000D02*
X120600000Y-75609000D01*
X120600000Y-75609000D02*
X120600000Y-69767000D01*
X120346000Y-78276000D02*
X120346000Y-78657000D01*
X120854000Y-78276000D02*
X120854000Y-78657000D01*
X122886000Y-78276000D02*
X122886000Y-78657000D01*
X123394000Y-78276000D02*
X123394000Y-78657000D01*
X125426000Y-78276000D02*
X125426000Y-78657000D01*
X125934000Y-78276000D02*
X125934000Y-78657000D01*
X121870000Y-75736000D02*
X119330000Y-75736000D01*
X120854000Y-69640000D02*
X120854000Y-75736000D01*
X120346000Y-69640000D02*
X120854000Y-69640000D01*
X120346000Y-75736000D02*
X120346000Y-69640000D01*
X121870000Y-78276000D02*
X121870000Y-75736000D01*
X119330000Y-78276000D02*
X121870000Y-78276000D01*
X119330000Y-78276000D02*
X119330000Y-75736000D01*
X124410000Y-78276000D02*
X124410000Y-75736000D01*
X124410000Y-78276000D02*
X126950000Y-78276000D01*
X125426000Y-75736000D02*
X125426000Y-69640000D01*
X125426000Y-69640000D02*
X125934000Y-69640000D01*
X125934000Y-69640000D02*
X125934000Y-75736000D01*
X126950000Y-75736000D02*
X124410000Y-75736000D01*
X124410000Y-75736000D02*
X121870000Y-75736000D01*
X123394000Y-69640000D02*
X123394000Y-75736000D01*
X122886000Y-69640000D02*
X123394000Y-69640000D01*
X122886000Y-75736000D02*
X122886000Y-69640000D01*
X124410000Y-78276000D02*
X124410000Y-75736000D01*
X121870000Y-78276000D02*
X124410000Y-78276000D01*
X121870000Y-78276000D02*
X121870000Y-75736000D01*
X126950000Y-78276000D02*
X126950000Y-75736000D01*
X115405000Y-82000000D02*
X115405000Y-81000000D01*
X116755000Y-81000000D02*
X116755000Y-82000000D01*
X94450420Y-109549580D02*
X94450420Y-108650420D01*
X94450420Y-108650420D02*
X94051640Y-108650420D01*
X94051640Y-109549580D02*
X94051640Y-108650420D01*
X94450420Y-109549580D02*
X94051640Y-109549580D01*
X95748360Y-109549580D02*
X95748360Y-108650420D01*
X95748360Y-108650420D02*
X95349580Y-108650420D01*
X95349580Y-109549580D02*
X95349580Y-108650420D01*
X95748360Y-109549580D02*
X95349580Y-109549580D01*
X94900000Y-109549580D02*
X94900000Y-109399720D01*
X94900000Y-109399720D02*
X94600280Y-109399720D01*
X94600280Y-109549580D02*
X94600280Y-109399720D01*
X94900000Y-109549580D02*
X94600280Y-109549580D01*
X94900000Y-108800280D02*
X94900000Y-108650420D01*
X94900000Y-108650420D02*
X94600280Y-108650420D01*
X94600280Y-108800280D02*
X94600280Y-108650420D01*
X94900000Y-108800280D02*
X94600280Y-108800280D01*
X94900000Y-109249860D02*
X94900000Y-108950140D01*
X94900000Y-108950140D02*
X94600280Y-108950140D01*
X94600280Y-109249860D02*
X94600280Y-108950140D01*
X94900000Y-109249860D02*
X94600280Y-109249860D01*
X94450420Y-109498780D02*
X95349580Y-109498780D01*
X94450420Y-108701220D02*
X95349580Y-108701220D01*
X94450420Y-108049580D02*
X94450420Y-107150420D01*
X94450420Y-107150420D02*
X94051640Y-107150420D01*
X94051640Y-108049580D02*
X94051640Y-107150420D01*
X94450420Y-108049580D02*
X94051640Y-108049580D01*
X95748360Y-108049580D02*
X95748360Y-107150420D01*
X95748360Y-107150420D02*
X95349580Y-107150420D01*
X95349580Y-108049580D02*
X95349580Y-107150420D01*
X95748360Y-108049580D02*
X95349580Y-108049580D01*
X94900000Y-108049580D02*
X94900000Y-107899720D01*
X94900000Y-107899720D02*
X94600280Y-107899720D01*
X94600280Y-108049580D02*
X94600280Y-107899720D01*
X94900000Y-108049580D02*
X94600280Y-108049580D01*
X94900000Y-107300280D02*
X94900000Y-107150420D01*
X94900000Y-107150420D02*
X94600280Y-107150420D01*
X94600280Y-107300280D02*
X94600280Y-107150420D01*
X94900000Y-107300280D02*
X94600280Y-107300280D01*
X94900000Y-107749860D02*
X94900000Y-107450140D01*
X94900000Y-107450140D02*
X94600280Y-107450140D01*
X94600280Y-107749860D02*
X94600280Y-107450140D01*
X94900000Y-107749860D02*
X94600280Y-107749860D01*
X94450420Y-107998780D02*
X95349580Y-107998780D01*
X94450420Y-107201220D02*
X95349580Y-107201220D01*
X119679160Y-82359760D02*
X119630900Y-82359760D01*
X116880180Y-83060800D02*
X116880180Y-82359760D01*
X116880180Y-82359760D02*
X117129100Y-82359760D01*
X119679160Y-82359760D02*
X119879820Y-82359760D01*
X119879820Y-82359760D02*
X119879820Y-83060800D01*
X105050000Y-87470000D02*
X105050000Y-86770000D01*
X106250000Y-86770000D02*
X106250000Y-87470000D01*
X121420000Y-92340000D02*
X122120000Y-92340000D01*
X122120000Y-93540000D02*
X121420000Y-93540000D01*
X103257143Y-82557143D02*
X103209524Y-82604762D01*
X103066667Y-82652381D01*
X102971429Y-82652381D01*
X102828571Y-82604762D01*
X102733333Y-82509524D01*
X102685714Y-82414286D01*
X102638095Y-82223810D01*
X102638095Y-82080952D01*
X102685714Y-81890476D01*
X102733333Y-81795238D01*
X102828571Y-81700000D01*
X102971429Y-81652381D01*
X103066667Y-81652381D01*
X103209524Y-81700000D01*
X103257143Y-81747619D01*
X104209524Y-82652381D02*
X103638095Y-82652381D01*
X103923809Y-82652381D02*
X103923809Y-81652381D01*
X103828571Y-81795238D01*
X103733333Y-81890476D01*
X103638095Y-81938095D01*
X105066667Y-81652381D02*
X104876190Y-81652381D01*
X104780952Y-81700000D01*
X104733333Y-81747619D01*
X104638095Y-81890476D01*
X104590476Y-82080952D01*
X104590476Y-82461905D01*
X104638095Y-82557143D01*
X104685714Y-82604762D01*
X104780952Y-82652381D01*
X104971429Y-82652381D01*
X105066667Y-82604762D01*
X105114286Y-82557143D01*
X105161905Y-82461905D01*
X105161905Y-82223810D01*
X105114286Y-82128571D01*
X105066667Y-82080952D01*
X104971429Y-82033333D01*
X104780952Y-82033333D01*
X104685714Y-82080952D01*
X104638095Y-82128571D01*
X104590476Y-82223810D01*
X111038095Y-87852381D02*
X111038095Y-88661905D01*
X111085714Y-88757143D01*
X111133333Y-88804762D01*
X111228571Y-88852381D01*
X111419048Y-88852381D01*
X111514286Y-88804762D01*
X111561905Y-88757143D01*
X111609524Y-88661905D01*
X111609524Y-87852381D01*
X112609524Y-88852381D02*
X112038095Y-88852381D01*
X112323809Y-88852381D02*
X112323809Y-87852381D01*
X112228571Y-87995238D01*
X112133333Y-88090476D01*
X112038095Y-88138095D01*
X107633334Y-109352381D02*
X107300000Y-108876190D01*
X107061905Y-109352381D02*
X107061905Y-108352381D01*
X107442858Y-108352381D01*
X107538096Y-108400000D01*
X107585715Y-108447619D01*
X107633334Y-108542857D01*
X107633334Y-108685714D01*
X107585715Y-108780952D01*
X107538096Y-108828571D01*
X107442858Y-108876190D01*
X107061905Y-108876190D01*
X107966667Y-108352381D02*
X108633334Y-108352381D01*
X108204762Y-109352381D01*
X124333334Y-102252381D02*
X124000000Y-101776190D01*
X123761905Y-102252381D02*
X123761905Y-101252381D01*
X124142858Y-101252381D01*
X124238096Y-101300000D01*
X124285715Y-101347619D01*
X124333334Y-101442857D01*
X124333334Y-101585714D01*
X124285715Y-101680952D01*
X124238096Y-101728571D01*
X124142858Y-101776190D01*
X123761905Y-101776190D01*
X124809524Y-102252381D02*
X125000000Y-102252381D01*
X125095239Y-102204762D01*
X125142858Y-102157143D01*
X125238096Y-102014286D01*
X125285715Y-101823810D01*
X125285715Y-101442857D01*
X125238096Y-101347619D01*
X125190477Y-101300000D01*
X125095239Y-101252381D01*
X124904762Y-101252381D01*
X124809524Y-101300000D01*
X124761905Y-101347619D01*
X124714286Y-101442857D01*
X124714286Y-101680952D01*
X124761905Y-101776190D01*
X124809524Y-101823810D01*
X124904762Y-101871429D01*
X125095239Y-101871429D01*
X125190477Y-101823810D01*
X125238096Y-101776190D01*
X125285715Y-101680952D01*
X123357143Y-107452381D02*
X123023809Y-106976190D01*
X122785714Y-107452381D02*
X122785714Y-106452381D01*
X123166667Y-106452381D01*
X123261905Y-106500000D01*
X123309524Y-106547619D01*
X123357143Y-106642857D01*
X123357143Y-106785714D01*
X123309524Y-106880952D01*
X123261905Y-106928571D01*
X123166667Y-106976190D01*
X122785714Y-106976190D01*
X124309524Y-107452381D02*
X123738095Y-107452381D01*
X124023809Y-107452381D02*
X124023809Y-106452381D01*
X123928571Y-106595238D01*
X123833333Y-106690476D01*
X123738095Y-106738095D01*
X124928571Y-106452381D02*
X125023810Y-106452381D01*
X125119048Y-106500000D01*
X125166667Y-106547619D01*
X125214286Y-106642857D01*
X125261905Y-106833333D01*
X125261905Y-107071429D01*
X125214286Y-107261905D01*
X125166667Y-107357143D01*
X125119048Y-107404762D01*
X125023810Y-107452381D01*
X124928571Y-107452381D01*
X124833333Y-107404762D01*
X124785714Y-107357143D01*
X124738095Y-107261905D01*
X124690476Y-107071429D01*
X124690476Y-106833333D01*
X124738095Y-106642857D01*
X124785714Y-106547619D01*
X124833333Y-106500000D01*
X124928571Y-106452381D01*
X123557143Y-95252381D02*
X123223809Y-94776190D01*
X122985714Y-95252381D02*
X122985714Y-94252381D01*
X123366667Y-94252381D01*
X123461905Y-94300000D01*
X123509524Y-94347619D01*
X123557143Y-94442857D01*
X123557143Y-94585714D01*
X123509524Y-94680952D01*
X123461905Y-94728571D01*
X123366667Y-94776190D01*
X122985714Y-94776190D01*
X124509524Y-95252381D02*
X123938095Y-95252381D01*
X124223809Y-95252381D02*
X124223809Y-94252381D01*
X124128571Y-94395238D01*
X124033333Y-94490476D01*
X123938095Y-94538095D01*
X125461905Y-95252381D02*
X124890476Y-95252381D01*
X125176190Y-95252381D02*
X125176190Y-94252381D01*
X125080952Y-94395238D01*
X124985714Y-94490476D01*
X124890476Y-94538095D01*
X123357143Y-100452381D02*
X123023809Y-99976190D01*
X122785714Y-100452381D02*
X122785714Y-99452381D01*
X123166667Y-99452381D01*
X123261905Y-99500000D01*
X123309524Y-99547619D01*
X123357143Y-99642857D01*
X123357143Y-99785714D01*
X123309524Y-99880952D01*
X123261905Y-99928571D01*
X123166667Y-99976190D01*
X122785714Y-99976190D01*
X124309524Y-100452381D02*
X123738095Y-100452381D01*
X124023809Y-100452381D02*
X124023809Y-99452381D01*
X123928571Y-99595238D01*
X123833333Y-99690476D01*
X123738095Y-99738095D01*
X124690476Y-99547619D02*
X124738095Y-99500000D01*
X124833333Y-99452381D01*
X125071429Y-99452381D01*
X125166667Y-99500000D01*
X125214286Y-99547619D01*
X125261905Y-99642857D01*
X125261905Y-99738095D01*
X125214286Y-99880952D01*
X124642857Y-100452381D01*
X125261905Y-100452381D01*
X123057143Y-88252381D02*
X122723809Y-87776190D01*
X122485714Y-88252381D02*
X122485714Y-87252381D01*
X122866667Y-87252381D01*
X122961905Y-87300000D01*
X123009524Y-87347619D01*
X123057143Y-87442857D01*
X123057143Y-87585714D01*
X123009524Y-87680952D01*
X122961905Y-87728571D01*
X122866667Y-87776190D01*
X122485714Y-87776190D01*
X124009524Y-88252381D02*
X123438095Y-88252381D01*
X123723809Y-88252381D02*
X123723809Y-87252381D01*
X123628571Y-87395238D01*
X123533333Y-87490476D01*
X123438095Y-87538095D01*
X124342857Y-87252381D02*
X124961905Y-87252381D01*
X124628571Y-87633333D01*
X124771429Y-87633333D01*
X124866667Y-87680952D01*
X124914286Y-87728571D01*
X124961905Y-87823810D01*
X124961905Y-88061905D01*
X124914286Y-88157143D01*
X124866667Y-88204762D01*
X124771429Y-88252381D01*
X124485714Y-88252381D01*
X124390476Y-88204762D01*
X124342857Y-88157143D01*
X123647143Y-93522381D02*
X123313809Y-93046190D01*
X123075714Y-93522381D02*
X123075714Y-92522381D01*
X123456667Y-92522381D01*
X123551905Y-92570000D01*
X123599524Y-92617619D01*
X123647143Y-92712857D01*
X123647143Y-92855714D01*
X123599524Y-92950952D01*
X123551905Y-92998571D01*
X123456667Y-93046190D01*
X123075714Y-93046190D01*
X124599524Y-93522381D02*
X124028095Y-93522381D01*
X124313809Y-93522381D02*
X124313809Y-92522381D01*
X124218571Y-92665238D01*
X124123333Y-92760476D01*
X124028095Y-92808095D01*
X125456667Y-92855714D02*
X125456667Y-93522381D01*
X125218571Y-92474762D02*
X124980476Y-93189048D01*
X125599524Y-93189048D01*
X129252381Y-79042857D02*
X128776190Y-79376191D01*
X129252381Y-79614286D02*
X128252381Y-79614286D01*
X128252381Y-79233333D01*
X128300000Y-79138095D01*
X128347619Y-79090476D01*
X128442857Y-79042857D01*
X128585714Y-79042857D01*
X128680952Y-79090476D01*
X128728571Y-79138095D01*
X128776190Y-79233333D01*
X128776190Y-79614286D01*
X129252381Y-78090476D02*
X129252381Y-78661905D01*
X129252381Y-78376191D02*
X128252381Y-78376191D01*
X128395238Y-78471429D01*
X128490476Y-78566667D01*
X128538095Y-78661905D01*
X128252381Y-77185714D02*
X128252381Y-77661905D01*
X128728571Y-77709524D01*
X128680952Y-77661905D01*
X128633333Y-77566667D01*
X128633333Y-77328571D01*
X128680952Y-77233333D01*
X128728571Y-77185714D01*
X128823810Y-77138095D01*
X129061905Y-77138095D01*
X129157143Y-77185714D01*
X129204762Y-77233333D01*
X129252381Y-77328571D01*
X129252381Y-77566667D01*
X129204762Y-77661905D01*
X129157143Y-77709524D01*
X122957143Y-86552381D02*
X122623809Y-86076190D01*
X122385714Y-86552381D02*
X122385714Y-85552381D01*
X122766667Y-85552381D01*
X122861905Y-85600000D01*
X122909524Y-85647619D01*
X122957143Y-85742857D01*
X122957143Y-85885714D01*
X122909524Y-85980952D01*
X122861905Y-86028571D01*
X122766667Y-86076190D01*
X122385714Y-86076190D01*
X123909524Y-86552381D02*
X123338095Y-86552381D01*
X123623809Y-86552381D02*
X123623809Y-85552381D01*
X123528571Y-85695238D01*
X123433333Y-85790476D01*
X123338095Y-85838095D01*
X124766667Y-85552381D02*
X124576190Y-85552381D01*
X124480952Y-85600000D01*
X124433333Y-85647619D01*
X124338095Y-85790476D01*
X124290476Y-85980952D01*
X124290476Y-86361905D01*
X124338095Y-86457143D01*
X124385714Y-86504762D01*
X124480952Y-86552381D01*
X124671429Y-86552381D01*
X124766667Y-86504762D01*
X124814286Y-86457143D01*
X124861905Y-86361905D01*
X124861905Y-86123810D01*
X124814286Y-86028571D01*
X124766667Y-85980952D01*
X124671429Y-85933333D01*
X124480952Y-85933333D01*
X124385714Y-85980952D01*
X124338095Y-86028571D01*
X124290476Y-86123810D01*
X100543334Y-91847143D02*
X100495715Y-91894762D01*
X100352858Y-91942381D01*
X100257620Y-91942381D01*
X100114762Y-91894762D01*
X100019524Y-91799524D01*
X99971905Y-91704286D01*
X99924286Y-91513810D01*
X99924286Y-91370952D01*
X99971905Y-91180476D01*
X100019524Y-91085238D01*
X100114762Y-90990000D01*
X100257620Y-90942381D01*
X100352858Y-90942381D01*
X100495715Y-90990000D01*
X100543334Y-91037619D01*
X101019524Y-91942381D02*
X101210000Y-91942381D01*
X101305239Y-91894762D01*
X101352858Y-91847143D01*
X101448096Y-91704286D01*
X101495715Y-91513810D01*
X101495715Y-91132857D01*
X101448096Y-91037619D01*
X101400477Y-90990000D01*
X101305239Y-90942381D01*
X101114762Y-90942381D01*
X101019524Y-90990000D01*
X100971905Y-91037619D01*
X100924286Y-91132857D01*
X100924286Y-91370952D01*
X100971905Y-91466190D01*
X101019524Y-91513810D01*
X101114762Y-91561429D01*
X101305239Y-91561429D01*
X101400477Y-91513810D01*
X101448096Y-91466190D01*
X101495715Y-91370952D01*
X99457143Y-101857143D02*
X99409524Y-101904762D01*
X99266667Y-101952381D01*
X99171429Y-101952381D01*
X99028571Y-101904762D01*
X98933333Y-101809524D01*
X98885714Y-101714286D01*
X98838095Y-101523810D01*
X98838095Y-101380952D01*
X98885714Y-101190476D01*
X98933333Y-101095238D01*
X99028571Y-101000000D01*
X99171429Y-100952381D01*
X99266667Y-100952381D01*
X99409524Y-101000000D01*
X99457143Y-101047619D01*
X100409524Y-101952381D02*
X99838095Y-101952381D01*
X100123809Y-101952381D02*
X100123809Y-100952381D01*
X100028571Y-101095238D01*
X99933333Y-101190476D01*
X99838095Y-101238095D01*
X100790476Y-101047619D02*
X100838095Y-101000000D01*
X100933333Y-100952381D01*
X101171429Y-100952381D01*
X101266667Y-101000000D01*
X101314286Y-101047619D01*
X101361905Y-101142857D01*
X101361905Y-101238095D01*
X101314286Y-101380952D01*
X100742857Y-101952381D01*
X101361905Y-101952381D01*
X109922381Y-86966666D02*
X109446190Y-87300000D01*
X109922381Y-87538095D02*
X108922381Y-87538095D01*
X108922381Y-87157142D01*
X108970000Y-87061904D01*
X109017619Y-87014285D01*
X109112857Y-86966666D01*
X109255714Y-86966666D01*
X109350952Y-87014285D01*
X109398571Y-87061904D01*
X109446190Y-87157142D01*
X109446190Y-87538095D01*
X109922381Y-86014285D02*
X109922381Y-86585714D01*
X109922381Y-86300000D02*
X108922381Y-86300000D01*
X109065238Y-86395238D01*
X109160476Y-86490476D01*
X109208095Y-86585714D01*
X108342381Y-86966666D02*
X107866190Y-87300000D01*
X108342381Y-87538095D02*
X107342381Y-87538095D01*
X107342381Y-87157142D01*
X107390000Y-87061904D01*
X107437619Y-87014285D01*
X107532857Y-86966666D01*
X107675714Y-86966666D01*
X107770952Y-87014285D01*
X107818571Y-87061904D01*
X107866190Y-87157142D01*
X107866190Y-87538095D01*
X107437619Y-86585714D02*
X107390000Y-86538095D01*
X107342381Y-86442857D01*
X107342381Y-86204761D01*
X107390000Y-86109523D01*
X107437619Y-86061904D01*
X107532857Y-86014285D01*
X107628095Y-86014285D01*
X107770952Y-86061904D01*
X108342381Y-86633333D01*
X108342381Y-86014285D01*
X111372381Y-86966666D02*
X110896190Y-87300000D01*
X111372381Y-87538095D02*
X110372381Y-87538095D01*
X110372381Y-87157142D01*
X110420000Y-87061904D01*
X110467619Y-87014285D01*
X110562857Y-86966666D01*
X110705714Y-86966666D01*
X110800952Y-87014285D01*
X110848571Y-87061904D01*
X110896190Y-87157142D01*
X110896190Y-87538095D01*
X110705714Y-86109523D02*
X111372381Y-86109523D01*
X110324762Y-86347619D02*
X111039048Y-86585714D01*
X111039048Y-85966666D01*
X114282381Y-84776666D02*
X113806190Y-85110000D01*
X114282381Y-85348095D02*
X113282381Y-85348095D01*
X113282381Y-84967142D01*
X113330000Y-84871904D01*
X113377619Y-84824285D01*
X113472857Y-84776666D01*
X113615714Y-84776666D01*
X113710952Y-84824285D01*
X113758571Y-84871904D01*
X113806190Y-84967142D01*
X113806190Y-85348095D01*
X113282381Y-83871904D02*
X113282381Y-84348095D01*
X113758571Y-84395714D01*
X113710952Y-84348095D01*
X113663333Y-84252857D01*
X113663333Y-84014761D01*
X113710952Y-83919523D01*
X113758571Y-83871904D01*
X113853810Y-83824285D01*
X114091905Y-83824285D01*
X114187143Y-83871904D01*
X114234762Y-83919523D01*
X114282381Y-84014761D01*
X114282381Y-84252857D01*
X114234762Y-84348095D01*
X114187143Y-84395714D01*
X96757143Y-103652381D02*
X96423809Y-103176190D01*
X96185714Y-103652381D02*
X96185714Y-102652381D01*
X96566667Y-102652381D01*
X96661905Y-102700000D01*
X96709524Y-102747619D01*
X96757143Y-102842857D01*
X96757143Y-102985714D01*
X96709524Y-103080952D01*
X96661905Y-103128571D01*
X96566667Y-103176190D01*
X96185714Y-103176190D01*
X97138095Y-102747619D02*
X97185714Y-102700000D01*
X97280952Y-102652381D01*
X97519048Y-102652381D01*
X97614286Y-102700000D01*
X97661905Y-102747619D01*
X97709524Y-102842857D01*
X97709524Y-102938095D01*
X97661905Y-103080952D01*
X97090476Y-103652381D01*
X97709524Y-103652381D01*
X98614286Y-102652381D02*
X98138095Y-102652381D01*
X98090476Y-103128571D01*
X98138095Y-103080952D01*
X98233333Y-103033333D01*
X98471429Y-103033333D01*
X98566667Y-103080952D01*
X98614286Y-103128571D01*
X98661905Y-103223810D01*
X98661905Y-103461905D01*
X98614286Y-103557143D01*
X98566667Y-103604762D01*
X98471429Y-103652381D01*
X98233333Y-103652381D01*
X98138095Y-103604762D01*
X98090476Y-103557143D01*
X96757143Y-105452381D02*
X96423809Y-104976190D01*
X96185714Y-105452381D02*
X96185714Y-104452381D01*
X96566667Y-104452381D01*
X96661905Y-104500000D01*
X96709524Y-104547619D01*
X96757143Y-104642857D01*
X96757143Y-104785714D01*
X96709524Y-104880952D01*
X96661905Y-104928571D01*
X96566667Y-104976190D01*
X96185714Y-104976190D01*
X97138095Y-104547619D02*
X97185714Y-104500000D01*
X97280952Y-104452381D01*
X97519048Y-104452381D01*
X97614286Y-104500000D01*
X97661905Y-104547619D01*
X97709524Y-104642857D01*
X97709524Y-104738095D01*
X97661905Y-104880952D01*
X97090476Y-105452381D01*
X97709524Y-105452381D01*
X98042857Y-104452381D02*
X98709524Y-104452381D01*
X98280952Y-105452381D01*
X120157143Y-105852381D02*
X119823809Y-105376190D01*
X119585714Y-105852381D02*
X119585714Y-104852381D01*
X119966667Y-104852381D01*
X120061905Y-104900000D01*
X120109524Y-104947619D01*
X120157143Y-105042857D01*
X120157143Y-105185714D01*
X120109524Y-105280952D01*
X120061905Y-105328571D01*
X119966667Y-105376190D01*
X119585714Y-105376190D01*
X120538095Y-104947619D02*
X120585714Y-104900000D01*
X120680952Y-104852381D01*
X120919048Y-104852381D01*
X121014286Y-104900000D01*
X121061905Y-104947619D01*
X121109524Y-105042857D01*
X121109524Y-105138095D01*
X121061905Y-105280952D01*
X120490476Y-105852381D01*
X121109524Y-105852381D01*
X121585714Y-105852381D02*
X121776190Y-105852381D01*
X121871429Y-105804762D01*
X121919048Y-105757143D01*
X122014286Y-105614286D01*
X122061905Y-105423810D01*
X122061905Y-105042857D01*
X122014286Y-104947619D01*
X121966667Y-104900000D01*
X121871429Y-104852381D01*
X121680952Y-104852381D01*
X121585714Y-104900000D01*
X121538095Y-104947619D01*
X121490476Y-105042857D01*
X121490476Y-105280952D01*
X121538095Y-105376190D01*
X121585714Y-105423810D01*
X121680952Y-105471429D01*
X121871429Y-105471429D01*
X121966667Y-105423810D01*
X122014286Y-105376190D01*
X122061905Y-105280952D01*
X120057143Y-104052381D02*
X119723809Y-103576190D01*
X119485714Y-104052381D02*
X119485714Y-103052381D01*
X119866667Y-103052381D01*
X119961905Y-103100000D01*
X120009524Y-103147619D01*
X120057143Y-103242857D01*
X120057143Y-103385714D01*
X120009524Y-103480952D01*
X119961905Y-103528571D01*
X119866667Y-103576190D01*
X119485714Y-103576190D01*
X120390476Y-103052381D02*
X121009524Y-103052381D01*
X120676190Y-103433333D01*
X120819048Y-103433333D01*
X120914286Y-103480952D01*
X120961905Y-103528571D01*
X121009524Y-103623810D01*
X121009524Y-103861905D01*
X120961905Y-103957143D01*
X120914286Y-104004762D01*
X120819048Y-104052381D01*
X120533333Y-104052381D01*
X120438095Y-104004762D01*
X120390476Y-103957143D01*
X121628571Y-103052381D02*
X121723810Y-103052381D01*
X121819048Y-103100000D01*
X121866667Y-103147619D01*
X121914286Y-103242857D01*
X121961905Y-103433333D01*
X121961905Y-103671429D01*
X121914286Y-103861905D01*
X121866667Y-103957143D01*
X121819048Y-104004762D01*
X121723810Y-104052381D01*
X121628571Y-104052381D01*
X121533333Y-104004762D01*
X121485714Y-103957143D01*
X121438095Y-103861905D01*
X121390476Y-103671429D01*
X121390476Y-103433333D01*
X121438095Y-103242857D01*
X121485714Y-103147619D01*
X121533333Y-103100000D01*
X121628571Y-103052381D01*
X120257143Y-98952381D02*
X119923809Y-98476190D01*
X119685714Y-98952381D02*
X119685714Y-97952381D01*
X120066667Y-97952381D01*
X120161905Y-98000000D01*
X120209524Y-98047619D01*
X120257143Y-98142857D01*
X120257143Y-98285714D01*
X120209524Y-98380952D01*
X120161905Y-98428571D01*
X120066667Y-98476190D01*
X119685714Y-98476190D01*
X120590476Y-97952381D02*
X121209524Y-97952381D01*
X120876190Y-98333333D01*
X121019048Y-98333333D01*
X121114286Y-98380952D01*
X121161905Y-98428571D01*
X121209524Y-98523810D01*
X121209524Y-98761905D01*
X121161905Y-98857143D01*
X121114286Y-98904762D01*
X121019048Y-98952381D01*
X120733333Y-98952381D01*
X120638095Y-98904762D01*
X120590476Y-98857143D01*
X121542857Y-97952381D02*
X122161905Y-97952381D01*
X121828571Y-98333333D01*
X121971429Y-98333333D01*
X122066667Y-98380952D01*
X122114286Y-98428571D01*
X122161905Y-98523810D01*
X122161905Y-98761905D01*
X122114286Y-98857143D01*
X122066667Y-98904762D01*
X121971429Y-98952381D01*
X121685714Y-98952381D01*
X121590476Y-98904762D01*
X121542857Y-98857143D01*
X120157143Y-96952381D02*
X119823809Y-96476190D01*
X119585714Y-96952381D02*
X119585714Y-95952381D01*
X119966667Y-95952381D01*
X120061905Y-96000000D01*
X120109524Y-96047619D01*
X120157143Y-96142857D01*
X120157143Y-96285714D01*
X120109524Y-96380952D01*
X120061905Y-96428571D01*
X119966667Y-96476190D01*
X119585714Y-96476190D01*
X120490476Y-95952381D02*
X121109524Y-95952381D01*
X120776190Y-96333333D01*
X120919048Y-96333333D01*
X121014286Y-96380952D01*
X121061905Y-96428571D01*
X121109524Y-96523810D01*
X121109524Y-96761905D01*
X121061905Y-96857143D01*
X121014286Y-96904762D01*
X120919048Y-96952381D01*
X120633333Y-96952381D01*
X120538095Y-96904762D01*
X120490476Y-96857143D01*
X121966667Y-96285714D02*
X121966667Y-96952381D01*
X121728571Y-95904762D02*
X121490476Y-96619048D01*
X122109524Y-96619048D01*
X120157143Y-91952381D02*
X119823809Y-91476190D01*
X119585714Y-91952381D02*
X119585714Y-90952381D01*
X119966667Y-90952381D01*
X120061905Y-91000000D01*
X120109524Y-91047619D01*
X120157143Y-91142857D01*
X120157143Y-91285714D01*
X120109524Y-91380952D01*
X120061905Y-91428571D01*
X119966667Y-91476190D01*
X119585714Y-91476190D01*
X120490476Y-90952381D02*
X121109524Y-90952381D01*
X120776190Y-91333333D01*
X120919048Y-91333333D01*
X121014286Y-91380952D01*
X121061905Y-91428571D01*
X121109524Y-91523810D01*
X121109524Y-91761905D01*
X121061905Y-91857143D01*
X121014286Y-91904762D01*
X120919048Y-91952381D01*
X120633333Y-91952381D01*
X120538095Y-91904762D01*
X120490476Y-91857143D01*
X121442857Y-90952381D02*
X122109524Y-90952381D01*
X121680952Y-91952381D01*
X120057143Y-89952381D02*
X119723809Y-89476190D01*
X119485714Y-89952381D02*
X119485714Y-88952381D01*
X119866667Y-88952381D01*
X119961905Y-89000000D01*
X120009524Y-89047619D01*
X120057143Y-89142857D01*
X120057143Y-89285714D01*
X120009524Y-89380952D01*
X119961905Y-89428571D01*
X119866667Y-89476190D01*
X119485714Y-89476190D01*
X120390476Y-88952381D02*
X121009524Y-88952381D01*
X120676190Y-89333333D01*
X120819048Y-89333333D01*
X120914286Y-89380952D01*
X120961905Y-89428571D01*
X121009524Y-89523810D01*
X121009524Y-89761905D01*
X120961905Y-89857143D01*
X120914286Y-89904762D01*
X120819048Y-89952381D01*
X120533333Y-89952381D01*
X120438095Y-89904762D01*
X120390476Y-89857143D01*
X121580952Y-89380952D02*
X121485714Y-89333333D01*
X121438095Y-89285714D01*
X121390476Y-89190476D01*
X121390476Y-89142857D01*
X121438095Y-89047619D01*
X121485714Y-89000000D01*
X121580952Y-88952381D01*
X121771429Y-88952381D01*
X121866667Y-89000000D01*
X121914286Y-89047619D01*
X121961905Y-89142857D01*
X121961905Y-89190476D01*
X121914286Y-89285714D01*
X121866667Y-89333333D01*
X121771429Y-89380952D01*
X121580952Y-89380952D01*
X121485714Y-89428571D01*
X121438095Y-89476190D01*
X121390476Y-89571429D01*
X121390476Y-89761905D01*
X121438095Y-89857143D01*
X121485714Y-89904762D01*
X121580952Y-89952381D01*
X121771429Y-89952381D01*
X121866667Y-89904762D01*
X121914286Y-89857143D01*
X121961905Y-89761905D01*
X121961905Y-89571429D01*
X121914286Y-89476190D01*
X121866667Y-89428571D01*
X121771429Y-89380952D01*
X120507143Y-84892381D02*
X120173809Y-84416190D01*
X119935714Y-84892381D02*
X119935714Y-83892381D01*
X120316667Y-83892381D01*
X120411905Y-83940000D01*
X120459524Y-83987619D01*
X120507143Y-84082857D01*
X120507143Y-84225714D01*
X120459524Y-84320952D01*
X120411905Y-84368571D01*
X120316667Y-84416190D01*
X119935714Y-84416190D01*
X121364286Y-84225714D02*
X121364286Y-84892381D01*
X121126190Y-83844762D02*
X120888095Y-84559048D01*
X121507143Y-84559048D01*
X122411905Y-84892381D02*
X121840476Y-84892381D01*
X122126190Y-84892381D02*
X122126190Y-83892381D01*
X122030952Y-84035238D01*
X121935714Y-84130476D01*
X121840476Y-84178095D01*
X120437143Y-82942381D02*
X120103809Y-82466190D01*
X119865714Y-82942381D02*
X119865714Y-81942381D01*
X120246667Y-81942381D01*
X120341905Y-81990000D01*
X120389524Y-82037619D01*
X120437143Y-82132857D01*
X120437143Y-82275714D01*
X120389524Y-82370952D01*
X120341905Y-82418571D01*
X120246667Y-82466190D01*
X119865714Y-82466190D01*
X121294286Y-82275714D02*
X121294286Y-82942381D01*
X121056190Y-81894762D02*
X120818095Y-82609048D01*
X121437143Y-82609048D01*
X121770476Y-82037619D02*
X121818095Y-81990000D01*
X121913333Y-81942381D01*
X122151429Y-81942381D01*
X122246667Y-81990000D01*
X122294286Y-82037619D01*
X122341905Y-82132857D01*
X122341905Y-82228095D01*
X122294286Y-82370952D01*
X121722857Y-82942381D01*
X122341905Y-82942381D01*
X96857143Y-96552381D02*
X96523809Y-96076190D01*
X96285714Y-96552381D02*
X96285714Y-95552381D01*
X96666667Y-95552381D01*
X96761905Y-95600000D01*
X96809524Y-95647619D01*
X96857143Y-95742857D01*
X96857143Y-95885714D01*
X96809524Y-95980952D01*
X96761905Y-96028571D01*
X96666667Y-96076190D01*
X96285714Y-96076190D01*
X97714286Y-95885714D02*
X97714286Y-96552381D01*
X97476190Y-95504762D02*
X97238095Y-96219048D01*
X97857143Y-96219048D01*
X98666667Y-95552381D02*
X98476190Y-95552381D01*
X98380952Y-95600000D01*
X98333333Y-95647619D01*
X98238095Y-95790476D01*
X98190476Y-95980952D01*
X98190476Y-96361905D01*
X98238095Y-96457143D01*
X98285714Y-96504762D01*
X98380952Y-96552381D01*
X98571429Y-96552381D01*
X98666667Y-96504762D01*
X98714286Y-96457143D01*
X98761905Y-96361905D01*
X98761905Y-96123810D01*
X98714286Y-96028571D01*
X98666667Y-95980952D01*
X98571429Y-95933333D01*
X98380952Y-95933333D01*
X98285714Y-95980952D01*
X98238095Y-96028571D01*
X98190476Y-96123810D01*
X96757143Y-98152381D02*
X96423809Y-97676190D01*
X96185714Y-98152381D02*
X96185714Y-97152381D01*
X96566667Y-97152381D01*
X96661905Y-97200000D01*
X96709524Y-97247619D01*
X96757143Y-97342857D01*
X96757143Y-97485714D01*
X96709524Y-97580952D01*
X96661905Y-97628571D01*
X96566667Y-97676190D01*
X96185714Y-97676190D01*
X97614286Y-97485714D02*
X97614286Y-98152381D01*
X97376190Y-97104762D02*
X97138095Y-97819048D01*
X97757143Y-97819048D01*
X98280952Y-97580952D02*
X98185714Y-97533333D01*
X98138095Y-97485714D01*
X98090476Y-97390476D01*
X98090476Y-97342857D01*
X98138095Y-97247619D01*
X98185714Y-97200000D01*
X98280952Y-97152381D01*
X98471429Y-97152381D01*
X98566667Y-97200000D01*
X98614286Y-97247619D01*
X98661905Y-97342857D01*
X98661905Y-97390476D01*
X98614286Y-97485714D01*
X98566667Y-97533333D01*
X98471429Y-97580952D01*
X98280952Y-97580952D01*
X98185714Y-97628571D01*
X98138095Y-97676190D01*
X98090476Y-97771429D01*
X98090476Y-97961905D01*
X98138095Y-98057143D01*
X98185714Y-98104762D01*
X98280952Y-98152381D01*
X98471429Y-98152381D01*
X98566667Y-98104762D01*
X98614286Y-98057143D01*
X98661905Y-97961905D01*
X98661905Y-97771429D01*
X98614286Y-97676190D01*
X98566667Y-97628571D01*
X98471429Y-97580952D01*
X129347619Y-104495238D02*
X129300000Y-104590476D01*
X129204762Y-104685714D01*
X129061905Y-104828571D01*
X129014286Y-104923810D01*
X129014286Y-105019048D01*
X129252381Y-104971429D02*
X129204762Y-105066667D01*
X129109524Y-105161905D01*
X128919048Y-105209524D01*
X128585714Y-105209524D01*
X128395238Y-105161905D01*
X128300000Y-105066667D01*
X128252381Y-104971429D01*
X128252381Y-104780952D01*
X128300000Y-104685714D01*
X128395238Y-104590476D01*
X128585714Y-104542857D01*
X128919048Y-104542857D01*
X129109524Y-104590476D01*
X129204762Y-104685714D01*
X129252381Y-104780952D01*
X129252381Y-104971429D01*
X129252381Y-103590476D02*
X129252381Y-104161905D01*
X129252381Y-103876191D02*
X128252381Y-103876191D01*
X128395238Y-103971429D01*
X128490476Y-104066667D01*
X128538095Y-104161905D01*
X129347619Y-97495238D02*
X129300000Y-97590476D01*
X129204762Y-97685714D01*
X129061905Y-97828571D01*
X129014286Y-97923810D01*
X129014286Y-98019048D01*
X129252381Y-97971429D02*
X129204762Y-98066667D01*
X129109524Y-98161905D01*
X128919048Y-98209524D01*
X128585714Y-98209524D01*
X128395238Y-98161905D01*
X128300000Y-98066667D01*
X128252381Y-97971429D01*
X128252381Y-97780952D01*
X128300000Y-97685714D01*
X128395238Y-97590476D01*
X128585714Y-97542857D01*
X128919048Y-97542857D01*
X129109524Y-97590476D01*
X129204762Y-97685714D01*
X129252381Y-97780952D01*
X129252381Y-97971429D01*
X128347619Y-97161905D02*
X128300000Y-97114286D01*
X128252381Y-97019048D01*
X128252381Y-96780952D01*
X128300000Y-96685714D01*
X128347619Y-96638095D01*
X128442857Y-96590476D01*
X128538095Y-96590476D01*
X128680952Y-96638095D01*
X129252381Y-97209524D01*
X129252381Y-96590476D01*
X129347619Y-90495238D02*
X129300000Y-90590476D01*
X129204762Y-90685714D01*
X129061905Y-90828571D01*
X129014286Y-90923810D01*
X129014286Y-91019048D01*
X129252381Y-90971429D02*
X129204762Y-91066667D01*
X129109524Y-91161905D01*
X128919048Y-91209524D01*
X128585714Y-91209524D01*
X128395238Y-91161905D01*
X128300000Y-91066667D01*
X128252381Y-90971429D01*
X128252381Y-90780952D01*
X128300000Y-90685714D01*
X128395238Y-90590476D01*
X128585714Y-90542857D01*
X128919048Y-90542857D01*
X129109524Y-90590476D01*
X129204762Y-90685714D01*
X129252381Y-90780952D01*
X129252381Y-90971429D01*
X128252381Y-90209524D02*
X128252381Y-89590476D01*
X128633333Y-89923810D01*
X128633333Y-89780952D01*
X128680952Y-89685714D01*
X128728571Y-89638095D01*
X128823810Y-89590476D01*
X129061905Y-89590476D01*
X129157143Y-89638095D01*
X129204762Y-89685714D01*
X129252381Y-89780952D01*
X129252381Y-90066667D01*
X129204762Y-90161905D01*
X129157143Y-90209524D01*
X129447619Y-83495238D02*
X129400000Y-83590476D01*
X129304762Y-83685714D01*
X129161905Y-83828571D01*
X129114286Y-83923810D01*
X129114286Y-84019048D01*
X129352381Y-83971429D02*
X129304762Y-84066667D01*
X129209524Y-84161905D01*
X129019048Y-84209524D01*
X128685714Y-84209524D01*
X128495238Y-84161905D01*
X128400000Y-84066667D01*
X128352381Y-83971429D01*
X128352381Y-83780952D01*
X128400000Y-83685714D01*
X128495238Y-83590476D01*
X128685714Y-83542857D01*
X129019048Y-83542857D01*
X129209524Y-83590476D01*
X129304762Y-83685714D01*
X129352381Y-83780952D01*
X129352381Y-83971429D01*
X128685714Y-82685714D02*
X129352381Y-82685714D01*
X128304762Y-82923810D02*
X129019048Y-83161905D01*
X129019048Y-82542857D01*
X90147619Y-104195238D02*
X90100000Y-104290476D01*
X90004762Y-104385714D01*
X89861905Y-104528571D01*
X89814286Y-104623810D01*
X89814286Y-104719048D01*
X90052381Y-104671429D02*
X90004762Y-104766667D01*
X89909524Y-104861905D01*
X89719048Y-104909524D01*
X89385714Y-104909524D01*
X89195238Y-104861905D01*
X89100000Y-104766667D01*
X89052381Y-104671429D01*
X89052381Y-104480952D01*
X89100000Y-104385714D01*
X89195238Y-104290476D01*
X89385714Y-104242857D01*
X89719048Y-104242857D01*
X89909524Y-104290476D01*
X90004762Y-104385714D01*
X90052381Y-104480952D01*
X90052381Y-104671429D01*
X90052381Y-103766667D02*
X90052381Y-103576191D01*
X90004762Y-103480952D01*
X89957143Y-103433333D01*
X89814286Y-103338095D01*
X89623810Y-103290476D01*
X89242857Y-103290476D01*
X89147619Y-103338095D01*
X89100000Y-103385714D01*
X89052381Y-103480952D01*
X89052381Y-103671429D01*
X89100000Y-103766667D01*
X89147619Y-103814286D01*
X89242857Y-103861905D01*
X89480952Y-103861905D01*
X89576190Y-103814286D01*
X89623810Y-103766667D01*
X89671429Y-103671429D01*
X89671429Y-103480952D01*
X89623810Y-103385714D01*
X89576190Y-103338095D01*
X89480952Y-103290476D01*
X90147619Y-97571428D02*
X90100000Y-97666666D01*
X90004762Y-97761904D01*
X89861905Y-97904761D01*
X89814286Y-98000000D01*
X89814286Y-98095238D01*
X90052381Y-98047619D02*
X90004762Y-98142857D01*
X89909524Y-98238095D01*
X89719048Y-98285714D01*
X89385714Y-98285714D01*
X89195238Y-98238095D01*
X89100000Y-98142857D01*
X89052381Y-98047619D01*
X89052381Y-97857142D01*
X89100000Y-97761904D01*
X89195238Y-97666666D01*
X89385714Y-97619047D01*
X89719048Y-97619047D01*
X89909524Y-97666666D01*
X90004762Y-97761904D01*
X90052381Y-97857142D01*
X90052381Y-98047619D01*
X90052381Y-96666666D02*
X90052381Y-97238095D01*
X90052381Y-96952381D02*
X89052381Y-96952381D01*
X89195238Y-97047619D01*
X89290476Y-97142857D01*
X89338095Y-97238095D01*
X90052381Y-95714285D02*
X90052381Y-96285714D01*
X90052381Y-96000000D02*
X89052381Y-96000000D01*
X89195238Y-96095238D01*
X89290476Y-96190476D01*
X89338095Y-96285714D01*
X91357143Y-108752381D02*
X91023809Y-108276190D01*
X90785714Y-108752381D02*
X90785714Y-107752381D01*
X91166667Y-107752381D01*
X91261905Y-107800000D01*
X91309524Y-107847619D01*
X91357143Y-107942857D01*
X91357143Y-108085714D01*
X91309524Y-108180952D01*
X91261905Y-108228571D01*
X91166667Y-108276190D01*
X90785714Y-108276190D01*
X92214286Y-108085714D02*
X92214286Y-108752381D01*
X91976190Y-107704762D02*
X91738095Y-108419048D01*
X92357143Y-108419048D01*
X92785714Y-108752381D02*
X92976190Y-108752381D01*
X93071429Y-108704762D01*
X93119048Y-108657143D01*
X93214286Y-108514286D01*
X93261905Y-108323810D01*
X93261905Y-107942857D01*
X93214286Y-107847619D01*
X93166667Y-107800000D01*
X93071429Y-107752381D01*
X92880952Y-107752381D01*
X92785714Y-107800000D01*
X92738095Y-107847619D01*
X92690476Y-107942857D01*
X92690476Y-108180952D01*
X92738095Y-108276190D01*
X92785714Y-108323810D01*
X92880952Y-108371429D01*
X93071429Y-108371429D01*
X93166667Y-108323810D01*
X93214286Y-108276190D01*
X93261905Y-108180952D01*
X93957143Y-102052381D02*
X93623809Y-101576190D01*
X93385714Y-102052381D02*
X93385714Y-101052381D01*
X93766667Y-101052381D01*
X93861905Y-101100000D01*
X93909524Y-101147619D01*
X93957143Y-101242857D01*
X93957143Y-101385714D01*
X93909524Y-101480952D01*
X93861905Y-101528571D01*
X93766667Y-101576190D01*
X93385714Y-101576190D01*
X94861905Y-101052381D02*
X94385714Y-101052381D01*
X94338095Y-101528571D01*
X94385714Y-101480952D01*
X94480952Y-101433333D01*
X94719048Y-101433333D01*
X94814286Y-101480952D01*
X94861905Y-101528571D01*
X94909524Y-101623810D01*
X94909524Y-101861905D01*
X94861905Y-101957143D01*
X94814286Y-102004762D01*
X94719048Y-102052381D01*
X94480952Y-102052381D01*
X94385714Y-102004762D01*
X94338095Y-101957143D01*
X95861905Y-102052381D02*
X95290476Y-102052381D01*
X95576190Y-102052381D02*
X95576190Y-101052381D01*
X95480952Y-101195238D01*
X95385714Y-101290476D01*
X95290476Y-101338095D01*
X94057143Y-100052381D02*
X93723809Y-99576190D01*
X93485714Y-100052381D02*
X93485714Y-99052381D01*
X93866667Y-99052381D01*
X93961905Y-99100000D01*
X94009524Y-99147619D01*
X94057143Y-99242857D01*
X94057143Y-99385714D01*
X94009524Y-99480952D01*
X93961905Y-99528571D01*
X93866667Y-99576190D01*
X93485714Y-99576190D01*
X94961905Y-99052381D02*
X94485714Y-99052381D01*
X94438095Y-99528571D01*
X94485714Y-99480952D01*
X94580952Y-99433333D01*
X94819048Y-99433333D01*
X94914286Y-99480952D01*
X94961905Y-99528571D01*
X95009524Y-99623810D01*
X95009524Y-99861905D01*
X94961905Y-99957143D01*
X94914286Y-100004762D01*
X94819048Y-100052381D01*
X94580952Y-100052381D01*
X94485714Y-100004762D01*
X94438095Y-99957143D01*
X95342857Y-99052381D02*
X95961905Y-99052381D01*
X95628571Y-99433333D01*
X95771429Y-99433333D01*
X95866667Y-99480952D01*
X95914286Y-99528571D01*
X95961905Y-99623810D01*
X95961905Y-99861905D01*
X95914286Y-99957143D01*
X95866667Y-100004762D01*
X95771429Y-100052381D01*
X95485714Y-100052381D01*
X95390476Y-100004762D01*
X95342857Y-99957143D01*
X91257143Y-93552381D02*
X90923809Y-93076190D01*
X90685714Y-93552381D02*
X90685714Y-92552381D01*
X91066667Y-92552381D01*
X91161905Y-92600000D01*
X91209524Y-92647619D01*
X91257143Y-92742857D01*
X91257143Y-92885714D01*
X91209524Y-92980952D01*
X91161905Y-93028571D01*
X91066667Y-93076190D01*
X90685714Y-93076190D01*
X92161905Y-92552381D02*
X91685714Y-92552381D01*
X91638095Y-93028571D01*
X91685714Y-92980952D01*
X91780952Y-92933333D01*
X92019048Y-92933333D01*
X92114286Y-92980952D01*
X92161905Y-93028571D01*
X92209524Y-93123810D01*
X92209524Y-93361905D01*
X92161905Y-93457143D01*
X92114286Y-93504762D01*
X92019048Y-93552381D01*
X91780952Y-93552381D01*
X91685714Y-93504762D01*
X91638095Y-93457143D01*
X93114286Y-92552381D02*
X92638095Y-92552381D01*
X92590476Y-93028571D01*
X92638095Y-92980952D01*
X92733333Y-92933333D01*
X92971429Y-92933333D01*
X93066667Y-92980952D01*
X93114286Y-93028571D01*
X93161905Y-93123810D01*
X93161905Y-93361905D01*
X93114286Y-93457143D01*
X93066667Y-93504762D01*
X92971429Y-93552381D01*
X92733333Y-93552381D01*
X92638095Y-93504762D01*
X92590476Y-93457143D01*
X94885715Y-89878571D02*
X95885715Y-91378571D01*
X95885715Y-89878571D02*
X94885715Y-91378571D01*
X96314286Y-89878571D02*
X97242857Y-89878571D01*
X96742857Y-90450000D01*
X96957143Y-90450000D01*
X97100000Y-90521429D01*
X97171429Y-90592857D01*
X97242857Y-90735714D01*
X97242857Y-91092857D01*
X97171429Y-91235714D01*
X97100000Y-91307143D01*
X96957143Y-91378571D01*
X96528571Y-91378571D01*
X96385714Y-91307143D01*
X96314286Y-91235714D01*
X99128572Y-90207143D02*
X100271429Y-90207143D01*
X92128572Y-90207143D02*
X93271429Y-90207143D01*
X92700000Y-90778571D02*
X92700000Y-89635714D01*
X116542381Y-85192857D02*
X116066190Y-85526191D01*
X116542381Y-85764286D02*
X115542381Y-85764286D01*
X115542381Y-85383333D01*
X115590000Y-85288095D01*
X115637619Y-85240476D01*
X115732857Y-85192857D01*
X115875714Y-85192857D01*
X115970952Y-85240476D01*
X116018571Y-85288095D01*
X116066190Y-85383333D01*
X116066190Y-85764286D01*
X115542381Y-84288095D02*
X115542381Y-84764286D01*
X116018571Y-84811905D01*
X115970952Y-84764286D01*
X115923333Y-84669048D01*
X115923333Y-84430952D01*
X115970952Y-84335714D01*
X116018571Y-84288095D01*
X116113810Y-84240476D01*
X116351905Y-84240476D01*
X116447143Y-84288095D01*
X116494762Y-84335714D01*
X116542381Y-84430952D01*
X116542381Y-84669048D01*
X116494762Y-84764286D01*
X116447143Y-84811905D01*
X115542381Y-83907143D02*
X115542381Y-83240476D01*
X116542381Y-83669048D01*
X96461905Y-109552381D02*
X96461905Y-108552381D01*
X96700000Y-108552381D01*
X96842858Y-108600000D01*
X96938096Y-108695238D01*
X96985715Y-108790476D01*
X97033334Y-108980952D01*
X97033334Y-109123810D01*
X96985715Y-109314286D01*
X96938096Y-109409524D01*
X96842858Y-109504762D01*
X96700000Y-109552381D01*
X96461905Y-109552381D01*
X97985715Y-109552381D02*
X97414286Y-109552381D01*
X97700000Y-109552381D02*
X97700000Y-108552381D01*
X97604762Y-108695238D01*
X97509524Y-108790476D01*
X97414286Y-108838095D01*
X96461905Y-108052381D02*
X96461905Y-107052381D01*
X96700000Y-107052381D01*
X96842858Y-107100000D01*
X96938096Y-107195238D01*
X96985715Y-107290476D01*
X97033334Y-107480952D01*
X97033334Y-107623810D01*
X96985715Y-107814286D01*
X96938096Y-107909524D01*
X96842858Y-108004762D01*
X96700000Y-108052381D01*
X96461905Y-108052381D01*
X97414286Y-107147619D02*
X97461905Y-107100000D01*
X97557143Y-107052381D01*
X97795239Y-107052381D01*
X97890477Y-107100000D01*
X97938096Y-107147619D01*
X97985715Y-107242857D01*
X97985715Y-107338095D01*
X97938096Y-107480952D01*
X97366667Y-108052381D01*
X97985715Y-108052381D01*
X117271905Y-85882381D02*
X117271905Y-84882381D01*
X117510000Y-84882381D01*
X117652858Y-84930000D01*
X117748096Y-85025238D01*
X117795715Y-85120476D01*
X117843334Y-85310952D01*
X117843334Y-85453810D01*
X117795715Y-85644286D01*
X117748096Y-85739524D01*
X117652858Y-85834762D01*
X117510000Y-85882381D01*
X117271905Y-85882381D01*
X118176667Y-84882381D02*
X118795715Y-84882381D01*
X118462381Y-85263333D01*
X118605239Y-85263333D01*
X118700477Y-85310952D01*
X118748096Y-85358571D01*
X118795715Y-85453810D01*
X118795715Y-85691905D01*
X118748096Y-85787143D01*
X118700477Y-85834762D01*
X118605239Y-85882381D01*
X118319524Y-85882381D01*
X118224286Y-85834762D01*
X118176667Y-85787143D01*
X104107143Y-87286666D02*
X104154762Y-87334285D01*
X104202381Y-87477142D01*
X104202381Y-87572380D01*
X104154762Y-87715238D01*
X104059524Y-87810476D01*
X103964286Y-87858095D01*
X103773810Y-87905714D01*
X103630952Y-87905714D01*
X103440476Y-87858095D01*
X103345238Y-87810476D01*
X103250000Y-87715238D01*
X103202381Y-87572380D01*
X103202381Y-87477142D01*
X103250000Y-87334285D01*
X103297619Y-87286666D01*
X103297619Y-86905714D02*
X103250000Y-86858095D01*
X103202381Y-86762857D01*
X103202381Y-86524761D01*
X103250000Y-86429523D01*
X103297619Y-86381904D01*
X103392857Y-86334285D01*
X103488095Y-86334285D01*
X103630952Y-86381904D01*
X104202381Y-86953333D01*
X104202381Y-86334285D01*
X121183334Y-94707143D02*
X121135715Y-94754762D01*
X120992858Y-94802381D01*
X120897620Y-94802381D01*
X120754762Y-94754762D01*
X120659524Y-94659524D01*
X120611905Y-94564286D01*
X120564286Y-94373810D01*
X120564286Y-94230952D01*
X120611905Y-94040476D01*
X120659524Y-93945238D01*
X120754762Y-93850000D01*
X120897620Y-93802381D01*
X120992858Y-93802381D01*
X121135715Y-93850000D01*
X121183334Y-93897619D01*
X122135715Y-94802381D02*
X121564286Y-94802381D01*
X121850000Y-94802381D02*
X121850000Y-93802381D01*
X121754762Y-93945238D01*
X121659524Y-94040476D01*
X121564286Y-94088095D01*
M02*
