G04 #@! TF.FileFunction,Legend,Bot*
%FSLAX46Y46*%
G04 Gerber Fmt 4.6, Leading zero omitted, Abs format (unit mm)*
G04 Created by KiCad (PCBNEW (2015-01-16 BZR 5376)-product) date 31.05.2015 18:22:37*
%MOMM*%
G01*
G04 APERTURE LIST*
%ADD10C,0.100000*%
%ADD11C,0.150000*%
%ADD12C,0.200000*%
G04 APERTURE END LIST*
D10*
D11*
X105835000Y-78955600D02*
X106419200Y-79514400D01*
X106419200Y-79514400D02*
X113988400Y-79565200D01*
X113988400Y-79565200D02*
X114039200Y-78396800D01*
X114039200Y-78396800D02*
X116934800Y-78447600D01*
X105225400Y-92824000D02*
X104133200Y-92773200D01*
X104133200Y-92773200D02*
X104082400Y-80860600D01*
X110940400Y-92747800D02*
X107409800Y-92773200D01*
X118357200Y-79793800D02*
X118357200Y-92925600D01*
X118357200Y-92925600D02*
X113201000Y-92925600D01*
X111175000Y-102550000D02*
X111175000Y-103050000D01*
X110225000Y-103050000D02*
X110225000Y-102550000D01*
X97250000Y-107075000D02*
X97750000Y-107075000D01*
X97750000Y-108125000D02*
X97250000Y-108125000D01*
X126750000Y-107525000D02*
X126250000Y-107525000D01*
X126250000Y-106475000D02*
X126750000Y-106475000D01*
X126750000Y-102325000D02*
X126250000Y-102325000D01*
X126250000Y-101275000D02*
X126750000Y-101275000D01*
X126750000Y-100625000D02*
X126250000Y-100625000D01*
X126250000Y-99575000D02*
X126750000Y-99575000D01*
X126850000Y-95325000D02*
X126350000Y-95325000D01*
X126350000Y-94275000D02*
X126850000Y-94275000D01*
X126850000Y-93625000D02*
X126350000Y-93625000D01*
X126350000Y-92575000D02*
X126850000Y-92575000D01*
X126850000Y-88325000D02*
X126350000Y-88325000D01*
X126350000Y-87275000D02*
X126850000Y-87275000D01*
X126850000Y-86625000D02*
X126350000Y-86625000D01*
X126350000Y-85575000D02*
X126850000Y-85575000D01*
X129225000Y-80550000D02*
X129225000Y-81050000D01*
X128175000Y-81050000D02*
X128175000Y-80550000D01*
X104475000Y-100750000D02*
X104475000Y-101250000D01*
X103525000Y-101250000D02*
X103525000Y-100750000D01*
X106175000Y-100750000D02*
X106175000Y-101250000D01*
X105225000Y-101250000D02*
X105225000Y-100750000D01*
X109575000Y-102550000D02*
X109575000Y-103050000D01*
X108625000Y-103050000D02*
X108625000Y-102550000D01*
X117275000Y-102550000D02*
X117275000Y-103050000D01*
X116325000Y-103050000D02*
X116325000Y-102550000D01*
X115650000Y-94725000D02*
X116150000Y-94725000D01*
X116150000Y-95675000D02*
X115650000Y-95675000D01*
X115775000Y-102550000D02*
X115775000Y-103050000D01*
X114825000Y-103050000D02*
X114825000Y-102550000D01*
X114275000Y-102550000D02*
X114275000Y-103050000D01*
X113325000Y-103050000D02*
X113325000Y-102550000D01*
X112775000Y-102550000D02*
X112775000Y-103050000D01*
X111825000Y-103050000D02*
X111825000Y-102550000D01*
X107450000Y-99925000D02*
X107950000Y-99925000D01*
X107950000Y-100875000D02*
X107450000Y-100875000D01*
X96250000Y-84225000D02*
X95750000Y-84225000D01*
X95750000Y-83175000D02*
X96250000Y-83175000D01*
X106625000Y-94850000D02*
X106625000Y-95350000D01*
X105575000Y-95350000D02*
X105575000Y-94850000D01*
X94700000Y-91000000D02*
G75*
G03X94700000Y-91000000I-100000J0D01*
G01*
X94850000Y-91550000D02*
X94850000Y-91050000D01*
X97750000Y-91550000D02*
X94850000Y-91550000D01*
X97750000Y-91050000D02*
X97750000Y-91550000D01*
X94850000Y-91050000D02*
X97750000Y-91050000D01*
X109200000Y-100500000D02*
X109200000Y-98400000D01*
X110100000Y-100500000D02*
X110900000Y-100500000D01*
X111800000Y-98500000D02*
X111800000Y-100500000D01*
X110200000Y-98500000D02*
X110900000Y-98500000D01*
X110300000Y-99300000D02*
G75*
G03X110300000Y-99300000I-100000J0D01*
G01*
X94750000Y-102675000D02*
X95250000Y-102675000D01*
X95250000Y-103725000D02*
X94750000Y-103725000D01*
X94750000Y-104475000D02*
X95250000Y-104475000D01*
X95250000Y-105525000D02*
X94750000Y-105525000D01*
X123550000Y-105825000D02*
X123050000Y-105825000D01*
X123050000Y-104775000D02*
X123550000Y-104775000D01*
X123550000Y-104125000D02*
X123050000Y-104125000D01*
X123050000Y-103075000D02*
X123550000Y-103075000D01*
X123550000Y-98925000D02*
X123050000Y-98925000D01*
X123050000Y-97875000D02*
X123550000Y-97875000D01*
X123550000Y-97025000D02*
X123050000Y-97025000D01*
X123050000Y-95975000D02*
X123550000Y-95975000D01*
X122950000Y-90875000D02*
X123450000Y-90875000D01*
X123450000Y-91925000D02*
X122950000Y-91925000D01*
X122950000Y-88975000D02*
X123450000Y-88975000D01*
X123450000Y-90025000D02*
X122950000Y-90025000D01*
X122950000Y-83875000D02*
X123450000Y-83875000D01*
X123450000Y-84925000D02*
X122950000Y-84925000D01*
X122950000Y-81975000D02*
X123450000Y-81975000D01*
X123450000Y-83025000D02*
X122950000Y-83025000D01*
X95250000Y-96625000D02*
X94750000Y-96625000D01*
X94750000Y-95575000D02*
X95250000Y-95575000D01*
X95250000Y-98225000D02*
X94750000Y-98225000D01*
X94750000Y-97175000D02*
X95250000Y-97175000D01*
X127281200Y-102910800D02*
X125604800Y-102910800D01*
X127230400Y-106009600D02*
X125655600Y-106009600D01*
X126284922Y-105372060D02*
G75*
G03X126284922Y-105372060I-167042J0D01*
G01*
X127281200Y-95810800D02*
X125604800Y-95810800D01*
X127230400Y-98909600D02*
X125655600Y-98909600D01*
X126284922Y-98272060D02*
G75*
G03X126284922Y-98272060I-167042J0D01*
G01*
X127281200Y-88910800D02*
X125604800Y-88910800D01*
X127230400Y-92009600D02*
X125655600Y-92009600D01*
X126284922Y-91372060D02*
G75*
G03X126284922Y-91372060I-167042J0D01*
G01*
X127381200Y-81910800D02*
X125704800Y-81910800D01*
X127330400Y-85009600D02*
X125755600Y-85009600D01*
X126384922Y-84372060D02*
G75*
G03X126384922Y-84372060I-167042J0D01*
G01*
X91118800Y-105689200D02*
X92795200Y-105689200D01*
X91169600Y-102590400D02*
X92744400Y-102590400D01*
X92449162Y-103227940D02*
G75*
G03X92449162Y-103227940I-167042J0D01*
G01*
X91118800Y-98589200D02*
X92795200Y-98589200D01*
X91169600Y-95490400D02*
X92744400Y-95490400D01*
X92449162Y-96127940D02*
G75*
G03X92449162Y-96127940I-167042J0D01*
G01*
X91750000Y-100975000D02*
X92250000Y-100975000D01*
X92250000Y-102025000D02*
X91750000Y-102025000D01*
X91750000Y-106175000D02*
X92250000Y-106175000D01*
X92250000Y-107225000D02*
X91750000Y-107225000D01*
X91650000Y-93975000D02*
X92150000Y-93975000D01*
X92150000Y-95025000D02*
X91650000Y-95025000D01*
X91750000Y-99075000D02*
X92250000Y-99075000D01*
X92250000Y-100125000D02*
X91750000Y-100125000D01*
X93000000Y-90550000D02*
X93000000Y-91250000D01*
X94200000Y-91250000D02*
X94200000Y-90550000D01*
X99500000Y-91250000D02*
X99500000Y-90550000D01*
X98300000Y-90550000D02*
X98300000Y-91250000D01*
X94450000Y-108575000D02*
X94950000Y-108575000D01*
X94950000Y-109625000D02*
X94450000Y-109625000D01*
X94450000Y-107075000D02*
X94950000Y-107075000D01*
X94950000Y-108125000D02*
X94450000Y-108125000D01*
X94950240Y-80700840D02*
X94950240Y-80749100D01*
X94249200Y-83499820D02*
X94950240Y-83499820D01*
X94950240Y-83499820D02*
X94950240Y-83250900D01*
X94950240Y-80700840D02*
X94950240Y-80500180D01*
X94950240Y-80500180D02*
X94249200Y-80500180D01*
X117975000Y-100450000D02*
X117975000Y-99950000D01*
X119025000Y-99950000D02*
X119025000Y-100450000D01*
X117975000Y-102850000D02*
X117975000Y-102350000D01*
X119025000Y-102350000D02*
X119025000Y-102850000D01*
X103714285Y-81378571D02*
X102714285Y-82878571D01*
X102714285Y-81378571D02*
X103714285Y-82878571D01*
X102214286Y-81521429D02*
X102142857Y-81450000D01*
X102000000Y-81378571D01*
X101642857Y-81378571D01*
X101500000Y-81450000D01*
X101428571Y-81521429D01*
X101357143Y-81664286D01*
X101357143Y-81807143D01*
X101428571Y-82021429D01*
X102285714Y-82878571D01*
X101357143Y-82878571D01*
X111057143Y-104857143D02*
X111104762Y-104809524D01*
X111152381Y-104666667D01*
X111152381Y-104571429D01*
X111104762Y-104428571D01*
X111009524Y-104333333D01*
X110914286Y-104285714D01*
X110723810Y-104238095D01*
X110580952Y-104238095D01*
X110390476Y-104285714D01*
X110295238Y-104333333D01*
X110200000Y-104428571D01*
X110152381Y-104571429D01*
X110152381Y-104666667D01*
X110200000Y-104809524D01*
X110247619Y-104857143D01*
X111152381Y-105809524D02*
X111152381Y-105238095D01*
X111152381Y-105523809D02*
X110152381Y-105523809D01*
X110295238Y-105428571D01*
X110390476Y-105333333D01*
X110438095Y-105238095D01*
X110152381Y-106142857D02*
X110152381Y-106809524D01*
X111152381Y-106380952D01*
X99666666Y-108052381D02*
X100000000Y-107576190D01*
X100238095Y-108052381D02*
X100238095Y-107052381D01*
X99857142Y-107052381D01*
X99761904Y-107100000D01*
X99714285Y-107147619D01*
X99666666Y-107242857D01*
X99666666Y-107385714D01*
X99714285Y-107480952D01*
X99761904Y-107528571D01*
X99857142Y-107576190D01*
X100238095Y-107576190D01*
X99095238Y-107480952D02*
X99190476Y-107433333D01*
X99238095Y-107385714D01*
X99285714Y-107290476D01*
X99285714Y-107242857D01*
X99238095Y-107147619D01*
X99190476Y-107100000D01*
X99095238Y-107052381D01*
X98904761Y-107052381D01*
X98809523Y-107100000D01*
X98761904Y-107147619D01*
X98714285Y-107242857D01*
X98714285Y-107290476D01*
X98761904Y-107385714D01*
X98809523Y-107433333D01*
X98904761Y-107480952D01*
X99095238Y-107480952D01*
X99190476Y-107528571D01*
X99238095Y-107576190D01*
X99285714Y-107671429D01*
X99285714Y-107861905D01*
X99238095Y-107957143D01*
X99190476Y-108004762D01*
X99095238Y-108052381D01*
X98904761Y-108052381D01*
X98809523Y-108004762D01*
X98761904Y-107957143D01*
X98714285Y-107861905D01*
X98714285Y-107671429D01*
X98761904Y-107576190D01*
X98809523Y-107528571D01*
X98904761Y-107480952D01*
X124642857Y-107452381D02*
X124976191Y-106976190D01*
X125214286Y-107452381D02*
X125214286Y-106452381D01*
X124833333Y-106452381D01*
X124738095Y-106500000D01*
X124690476Y-106547619D01*
X124642857Y-106642857D01*
X124642857Y-106785714D01*
X124690476Y-106880952D01*
X124738095Y-106928571D01*
X124833333Y-106976190D01*
X125214286Y-106976190D01*
X123690476Y-107452381D02*
X124261905Y-107452381D01*
X123976191Y-107452381D02*
X123976191Y-106452381D01*
X124071429Y-106595238D01*
X124166667Y-106690476D01*
X124261905Y-106738095D01*
X123357143Y-106452381D02*
X122690476Y-106452381D01*
X123119048Y-107452381D01*
X124642857Y-102252381D02*
X124976191Y-101776190D01*
X125214286Y-102252381D02*
X125214286Y-101252381D01*
X124833333Y-101252381D01*
X124738095Y-101300000D01*
X124690476Y-101347619D01*
X124642857Y-101442857D01*
X124642857Y-101585714D01*
X124690476Y-101680952D01*
X124738095Y-101728571D01*
X124833333Y-101776190D01*
X125214286Y-101776190D01*
X123690476Y-102252381D02*
X124261905Y-102252381D01*
X123976191Y-102252381D02*
X123976191Y-101252381D01*
X124071429Y-101395238D01*
X124166667Y-101490476D01*
X124261905Y-101538095D01*
X123119048Y-101680952D02*
X123214286Y-101633333D01*
X123261905Y-101585714D01*
X123309524Y-101490476D01*
X123309524Y-101442857D01*
X123261905Y-101347619D01*
X123214286Y-101300000D01*
X123119048Y-101252381D01*
X122928571Y-101252381D01*
X122833333Y-101300000D01*
X122785714Y-101347619D01*
X122738095Y-101442857D01*
X122738095Y-101490476D01*
X122785714Y-101585714D01*
X122833333Y-101633333D01*
X122928571Y-101680952D01*
X123119048Y-101680952D01*
X123214286Y-101728571D01*
X123261905Y-101776190D01*
X123309524Y-101871429D01*
X123309524Y-102061905D01*
X123261905Y-102157143D01*
X123214286Y-102204762D01*
X123119048Y-102252381D01*
X122928571Y-102252381D01*
X122833333Y-102204762D01*
X122785714Y-102157143D01*
X122738095Y-102061905D01*
X122738095Y-101871429D01*
X122785714Y-101776190D01*
X122833333Y-101728571D01*
X122928571Y-101680952D01*
X124642857Y-100552381D02*
X124976191Y-100076190D01*
X125214286Y-100552381D02*
X125214286Y-99552381D01*
X124833333Y-99552381D01*
X124738095Y-99600000D01*
X124690476Y-99647619D01*
X124642857Y-99742857D01*
X124642857Y-99885714D01*
X124690476Y-99980952D01*
X124738095Y-100028571D01*
X124833333Y-100076190D01*
X125214286Y-100076190D01*
X123690476Y-100552381D02*
X124261905Y-100552381D01*
X123976191Y-100552381D02*
X123976191Y-99552381D01*
X124071429Y-99695238D01*
X124166667Y-99790476D01*
X124261905Y-99838095D01*
X123214286Y-100552381D02*
X123023810Y-100552381D01*
X122928571Y-100504762D01*
X122880952Y-100457143D01*
X122785714Y-100314286D01*
X122738095Y-100123810D01*
X122738095Y-99742857D01*
X122785714Y-99647619D01*
X122833333Y-99600000D01*
X122928571Y-99552381D01*
X123119048Y-99552381D01*
X123214286Y-99600000D01*
X123261905Y-99647619D01*
X123309524Y-99742857D01*
X123309524Y-99980952D01*
X123261905Y-100076190D01*
X123214286Y-100123810D01*
X123119048Y-100171429D01*
X122928571Y-100171429D01*
X122833333Y-100123810D01*
X122785714Y-100076190D01*
X122738095Y-99980952D01*
X124742857Y-95252381D02*
X125076191Y-94776190D01*
X125314286Y-95252381D02*
X125314286Y-94252381D01*
X124933333Y-94252381D01*
X124838095Y-94300000D01*
X124790476Y-94347619D01*
X124742857Y-94442857D01*
X124742857Y-94585714D01*
X124790476Y-94680952D01*
X124838095Y-94728571D01*
X124933333Y-94776190D01*
X125314286Y-94776190D01*
X124361905Y-94347619D02*
X124314286Y-94300000D01*
X124219048Y-94252381D01*
X123980952Y-94252381D01*
X123885714Y-94300000D01*
X123838095Y-94347619D01*
X123790476Y-94442857D01*
X123790476Y-94538095D01*
X123838095Y-94680952D01*
X124409524Y-95252381D01*
X123790476Y-95252381D01*
X123171429Y-94252381D02*
X123076190Y-94252381D01*
X122980952Y-94300000D01*
X122933333Y-94347619D01*
X122885714Y-94442857D01*
X122838095Y-94633333D01*
X122838095Y-94871429D01*
X122885714Y-95061905D01*
X122933333Y-95157143D01*
X122980952Y-95204762D01*
X123076190Y-95252381D01*
X123171429Y-95252381D01*
X123266667Y-95204762D01*
X123314286Y-95157143D01*
X123361905Y-95061905D01*
X123409524Y-94871429D01*
X123409524Y-94633333D01*
X123361905Y-94442857D01*
X123314286Y-94347619D01*
X123266667Y-94300000D01*
X123171429Y-94252381D01*
X124742857Y-93552381D02*
X125076191Y-93076190D01*
X125314286Y-93552381D02*
X125314286Y-92552381D01*
X124933333Y-92552381D01*
X124838095Y-92600000D01*
X124790476Y-92647619D01*
X124742857Y-92742857D01*
X124742857Y-92885714D01*
X124790476Y-92980952D01*
X124838095Y-93028571D01*
X124933333Y-93076190D01*
X125314286Y-93076190D01*
X124361905Y-92647619D02*
X124314286Y-92600000D01*
X124219048Y-92552381D01*
X123980952Y-92552381D01*
X123885714Y-92600000D01*
X123838095Y-92647619D01*
X123790476Y-92742857D01*
X123790476Y-92838095D01*
X123838095Y-92980952D01*
X124409524Y-93552381D01*
X123790476Y-93552381D01*
X122838095Y-93552381D02*
X123409524Y-93552381D01*
X123123810Y-93552381D02*
X123123810Y-92552381D01*
X123219048Y-92695238D01*
X123314286Y-92790476D01*
X123409524Y-92838095D01*
X124242857Y-88252381D02*
X124576191Y-87776190D01*
X124814286Y-88252381D02*
X124814286Y-87252381D01*
X124433333Y-87252381D01*
X124338095Y-87300000D01*
X124290476Y-87347619D01*
X124242857Y-87442857D01*
X124242857Y-87585714D01*
X124290476Y-87680952D01*
X124338095Y-87728571D01*
X124433333Y-87776190D01*
X124814286Y-87776190D01*
X123861905Y-87347619D02*
X123814286Y-87300000D01*
X123719048Y-87252381D01*
X123480952Y-87252381D01*
X123385714Y-87300000D01*
X123338095Y-87347619D01*
X123290476Y-87442857D01*
X123290476Y-87538095D01*
X123338095Y-87680952D01*
X123909524Y-88252381D01*
X123290476Y-88252381D01*
X122909524Y-87347619D02*
X122861905Y-87300000D01*
X122766667Y-87252381D01*
X122528571Y-87252381D01*
X122433333Y-87300000D01*
X122385714Y-87347619D01*
X122338095Y-87442857D01*
X122338095Y-87538095D01*
X122385714Y-87680952D01*
X122957143Y-88252381D01*
X122338095Y-88252381D01*
X124242857Y-86552381D02*
X124576191Y-86076190D01*
X124814286Y-86552381D02*
X124814286Y-85552381D01*
X124433333Y-85552381D01*
X124338095Y-85600000D01*
X124290476Y-85647619D01*
X124242857Y-85742857D01*
X124242857Y-85885714D01*
X124290476Y-85980952D01*
X124338095Y-86028571D01*
X124433333Y-86076190D01*
X124814286Y-86076190D01*
X123861905Y-85647619D02*
X123814286Y-85600000D01*
X123719048Y-85552381D01*
X123480952Y-85552381D01*
X123385714Y-85600000D01*
X123338095Y-85647619D01*
X123290476Y-85742857D01*
X123290476Y-85838095D01*
X123338095Y-85980952D01*
X123909524Y-86552381D01*
X123290476Y-86552381D01*
X122957143Y-85552381D02*
X122338095Y-85552381D01*
X122671429Y-85933333D01*
X122528571Y-85933333D01*
X122433333Y-85980952D01*
X122385714Y-86028571D01*
X122338095Y-86123810D01*
X122338095Y-86361905D01*
X122385714Y-86457143D01*
X122433333Y-86504762D01*
X122528571Y-86552381D01*
X122814286Y-86552381D01*
X122909524Y-86504762D01*
X122957143Y-86457143D01*
X129252381Y-77757143D02*
X128776190Y-77423809D01*
X129252381Y-77185714D02*
X128252381Y-77185714D01*
X128252381Y-77566667D01*
X128300000Y-77661905D01*
X128347619Y-77709524D01*
X128442857Y-77757143D01*
X128585714Y-77757143D01*
X128680952Y-77709524D01*
X128728571Y-77661905D01*
X128776190Y-77566667D01*
X128776190Y-77185714D01*
X128347619Y-78138095D02*
X128300000Y-78185714D01*
X128252381Y-78280952D01*
X128252381Y-78519048D01*
X128300000Y-78614286D01*
X128347619Y-78661905D01*
X128442857Y-78709524D01*
X128538095Y-78709524D01*
X128680952Y-78661905D01*
X129252381Y-78090476D01*
X129252381Y-78709524D01*
X128585714Y-79566667D02*
X129252381Y-79566667D01*
X128204762Y-79328571D02*
X128919048Y-79090476D01*
X128919048Y-79709524D01*
X104357143Y-98533334D02*
X104404762Y-98485715D01*
X104452381Y-98342858D01*
X104452381Y-98247620D01*
X104404762Y-98104762D01*
X104309524Y-98009524D01*
X104214286Y-97961905D01*
X104023810Y-97914286D01*
X103880952Y-97914286D01*
X103690476Y-97961905D01*
X103595238Y-98009524D01*
X103500000Y-98104762D01*
X103452381Y-98247620D01*
X103452381Y-98342858D01*
X103500000Y-98485715D01*
X103547619Y-98533334D01*
X103452381Y-98866667D02*
X103452381Y-99485715D01*
X103833333Y-99152381D01*
X103833333Y-99295239D01*
X103880952Y-99390477D01*
X103928571Y-99438096D01*
X104023810Y-99485715D01*
X104261905Y-99485715D01*
X104357143Y-99438096D01*
X104404762Y-99390477D01*
X104452381Y-99295239D01*
X104452381Y-99009524D01*
X104404762Y-98914286D01*
X104357143Y-98866667D01*
X106157143Y-98533334D02*
X106204762Y-98485715D01*
X106252381Y-98342858D01*
X106252381Y-98247620D01*
X106204762Y-98104762D01*
X106109524Y-98009524D01*
X106014286Y-97961905D01*
X105823810Y-97914286D01*
X105680952Y-97914286D01*
X105490476Y-97961905D01*
X105395238Y-98009524D01*
X105300000Y-98104762D01*
X105252381Y-98247620D01*
X105252381Y-98342858D01*
X105300000Y-98485715D01*
X105347619Y-98533334D01*
X105585714Y-99390477D02*
X106252381Y-99390477D01*
X105204762Y-99152381D02*
X105919048Y-98914286D01*
X105919048Y-99533334D01*
X109357143Y-105033334D02*
X109404762Y-104985715D01*
X109452381Y-104842858D01*
X109452381Y-104747620D01*
X109404762Y-104604762D01*
X109309524Y-104509524D01*
X109214286Y-104461905D01*
X109023810Y-104414286D01*
X108880952Y-104414286D01*
X108690476Y-104461905D01*
X108595238Y-104509524D01*
X108500000Y-104604762D01*
X108452381Y-104747620D01*
X108452381Y-104842858D01*
X108500000Y-104985715D01*
X108547619Y-105033334D01*
X108452381Y-105938096D02*
X108452381Y-105461905D01*
X108928571Y-105414286D01*
X108880952Y-105461905D01*
X108833333Y-105557143D01*
X108833333Y-105795239D01*
X108880952Y-105890477D01*
X108928571Y-105938096D01*
X109023810Y-105985715D01*
X109261905Y-105985715D01*
X109357143Y-105938096D01*
X109404762Y-105890477D01*
X109452381Y-105795239D01*
X109452381Y-105557143D01*
X109404762Y-105461905D01*
X109357143Y-105414286D01*
X117157143Y-104833334D02*
X117204762Y-104785715D01*
X117252381Y-104642858D01*
X117252381Y-104547620D01*
X117204762Y-104404762D01*
X117109524Y-104309524D01*
X117014286Y-104261905D01*
X116823810Y-104214286D01*
X116680952Y-104214286D01*
X116490476Y-104261905D01*
X116395238Y-104309524D01*
X116300000Y-104404762D01*
X116252381Y-104547620D01*
X116252381Y-104642858D01*
X116300000Y-104785715D01*
X116347619Y-104833334D01*
X116252381Y-105690477D02*
X116252381Y-105500000D01*
X116300000Y-105404762D01*
X116347619Y-105357143D01*
X116490476Y-105261905D01*
X116680952Y-105214286D01*
X117061905Y-105214286D01*
X117157143Y-105261905D01*
X117204762Y-105309524D01*
X117252381Y-105404762D01*
X117252381Y-105595239D01*
X117204762Y-105690477D01*
X117157143Y-105738096D01*
X117061905Y-105785715D01*
X116823810Y-105785715D01*
X116728571Y-105738096D01*
X116680952Y-105690477D01*
X116633333Y-105595239D01*
X116633333Y-105404762D01*
X116680952Y-105309524D01*
X116728571Y-105261905D01*
X116823810Y-105214286D01*
X113766666Y-95657143D02*
X113814285Y-95704762D01*
X113957142Y-95752381D01*
X114052380Y-95752381D01*
X114195238Y-95704762D01*
X114290476Y-95609524D01*
X114338095Y-95514286D01*
X114385714Y-95323810D01*
X114385714Y-95180952D01*
X114338095Y-94990476D01*
X114290476Y-94895238D01*
X114195238Y-94800000D01*
X114052380Y-94752381D01*
X113957142Y-94752381D01*
X113814285Y-94800000D01*
X113766666Y-94847619D01*
X113433333Y-94752381D02*
X112766666Y-94752381D01*
X113195238Y-95752381D01*
X115657143Y-100433334D02*
X115704762Y-100385715D01*
X115752381Y-100242858D01*
X115752381Y-100147620D01*
X115704762Y-100004762D01*
X115609524Y-99909524D01*
X115514286Y-99861905D01*
X115323810Y-99814286D01*
X115180952Y-99814286D01*
X114990476Y-99861905D01*
X114895238Y-99909524D01*
X114800000Y-100004762D01*
X114752381Y-100147620D01*
X114752381Y-100242858D01*
X114800000Y-100385715D01*
X114847619Y-100433334D01*
X115180952Y-101004762D02*
X115133333Y-100909524D01*
X115085714Y-100861905D01*
X114990476Y-100814286D01*
X114942857Y-100814286D01*
X114847619Y-100861905D01*
X114800000Y-100909524D01*
X114752381Y-101004762D01*
X114752381Y-101195239D01*
X114800000Y-101290477D01*
X114847619Y-101338096D01*
X114942857Y-101385715D01*
X114990476Y-101385715D01*
X115085714Y-101338096D01*
X115133333Y-101290477D01*
X115180952Y-101195239D01*
X115180952Y-101004762D01*
X115228571Y-100909524D01*
X115276190Y-100861905D01*
X115371429Y-100814286D01*
X115561905Y-100814286D01*
X115657143Y-100861905D01*
X115704762Y-100909524D01*
X115752381Y-101004762D01*
X115752381Y-101195239D01*
X115704762Y-101290477D01*
X115657143Y-101338096D01*
X115561905Y-101385715D01*
X115371429Y-101385715D01*
X115276190Y-101338096D01*
X115228571Y-101290477D01*
X115180952Y-101195239D01*
X114357143Y-99547143D02*
X114404762Y-99499524D01*
X114452381Y-99356667D01*
X114452381Y-99261429D01*
X114404762Y-99118571D01*
X114309524Y-99023333D01*
X114214286Y-98975714D01*
X114023810Y-98928095D01*
X113880952Y-98928095D01*
X113690476Y-98975714D01*
X113595238Y-99023333D01*
X113500000Y-99118571D01*
X113452381Y-99261429D01*
X113452381Y-99356667D01*
X113500000Y-99499524D01*
X113547619Y-99547143D01*
X114452381Y-100499524D02*
X114452381Y-99928095D01*
X114452381Y-100213809D02*
X113452381Y-100213809D01*
X113595238Y-100118571D01*
X113690476Y-100023333D01*
X113738095Y-99928095D01*
X113452381Y-101118571D02*
X113452381Y-101213810D01*
X113500000Y-101309048D01*
X113547619Y-101356667D01*
X113642857Y-101404286D01*
X113833333Y-101451905D01*
X114071429Y-101451905D01*
X114261905Y-101404286D01*
X114357143Y-101356667D01*
X114404762Y-101309048D01*
X114452381Y-101213810D01*
X114452381Y-101118571D01*
X114404762Y-101023333D01*
X114357143Y-100975714D01*
X114261905Y-100928095D01*
X114071429Y-100880476D01*
X113833333Y-100880476D01*
X113642857Y-100928095D01*
X113547619Y-100975714D01*
X113500000Y-101023333D01*
X113452381Y-101118571D01*
X112897143Y-99587143D02*
X112944762Y-99539524D01*
X112992381Y-99396667D01*
X112992381Y-99301429D01*
X112944762Y-99158571D01*
X112849524Y-99063333D01*
X112754286Y-99015714D01*
X112563810Y-98968095D01*
X112420952Y-98968095D01*
X112230476Y-99015714D01*
X112135238Y-99063333D01*
X112040000Y-99158571D01*
X111992381Y-99301429D01*
X111992381Y-99396667D01*
X112040000Y-99539524D01*
X112087619Y-99587143D01*
X112992381Y-100539524D02*
X112992381Y-99968095D01*
X112992381Y-100253809D02*
X111992381Y-100253809D01*
X112135238Y-100158571D01*
X112230476Y-100063333D01*
X112278095Y-99968095D01*
X112992381Y-101491905D02*
X112992381Y-100920476D01*
X112992381Y-101206190D02*
X111992381Y-101206190D01*
X112135238Y-101110952D01*
X112230476Y-101015714D01*
X112278095Y-100920476D01*
X108342857Y-99457143D02*
X108390476Y-99504762D01*
X108533333Y-99552381D01*
X108628571Y-99552381D01*
X108771429Y-99504762D01*
X108866667Y-99409524D01*
X108914286Y-99314286D01*
X108961905Y-99123810D01*
X108961905Y-98980952D01*
X108914286Y-98790476D01*
X108866667Y-98695238D01*
X108771429Y-98600000D01*
X108628571Y-98552381D01*
X108533333Y-98552381D01*
X108390476Y-98600000D01*
X108342857Y-98647619D01*
X107390476Y-99552381D02*
X107961905Y-99552381D01*
X107676191Y-99552381D02*
X107676191Y-98552381D01*
X107771429Y-98695238D01*
X107866667Y-98790476D01*
X107961905Y-98838095D01*
X106485714Y-98552381D02*
X106961905Y-98552381D01*
X107009524Y-99028571D01*
X106961905Y-98980952D01*
X106866667Y-98933333D01*
X106628571Y-98933333D01*
X106533333Y-98980952D01*
X106485714Y-99028571D01*
X106438095Y-99123810D01*
X106438095Y-99361905D01*
X106485714Y-99457143D01*
X106533333Y-99504762D01*
X106628571Y-99552381D01*
X106866667Y-99552381D01*
X106961905Y-99504762D01*
X107009524Y-99457143D01*
X96166666Y-85652381D02*
X96500000Y-85176190D01*
X96738095Y-85652381D02*
X96738095Y-84652381D01*
X96357142Y-84652381D01*
X96261904Y-84700000D01*
X96214285Y-84747619D01*
X96166666Y-84842857D01*
X96166666Y-84985714D01*
X96214285Y-85080952D01*
X96261904Y-85128571D01*
X96357142Y-85176190D01*
X96738095Y-85176190D01*
X95833333Y-84652381D02*
X95214285Y-84652381D01*
X95547619Y-85033333D01*
X95404761Y-85033333D01*
X95309523Y-85080952D01*
X95261904Y-85128571D01*
X95214285Y-85223810D01*
X95214285Y-85461905D01*
X95261904Y-85557143D01*
X95309523Y-85604762D01*
X95404761Y-85652381D01*
X95690476Y-85652381D01*
X95785714Y-85604762D01*
X95833333Y-85557143D01*
X105152381Y-94933334D02*
X104676190Y-94600000D01*
X105152381Y-94361905D02*
X104152381Y-94361905D01*
X104152381Y-94742858D01*
X104200000Y-94838096D01*
X104247619Y-94885715D01*
X104342857Y-94933334D01*
X104485714Y-94933334D01*
X104580952Y-94885715D01*
X104628571Y-94838096D01*
X104676190Y-94742858D01*
X104676190Y-94361905D01*
X104152381Y-95790477D02*
X104152381Y-95600000D01*
X104200000Y-95504762D01*
X104247619Y-95457143D01*
X104390476Y-95361905D01*
X104580952Y-95314286D01*
X104961905Y-95314286D01*
X105057143Y-95361905D01*
X105104762Y-95409524D01*
X105152381Y-95504762D01*
X105152381Y-95695239D01*
X105104762Y-95790477D01*
X105057143Y-95838096D01*
X104961905Y-95885715D01*
X104723810Y-95885715D01*
X104628571Y-95838096D01*
X104580952Y-95790477D01*
X104533333Y-95695239D01*
X104533333Y-95504762D01*
X104580952Y-95409524D01*
X104628571Y-95361905D01*
X104723810Y-95314286D01*
D12*
X95752381Y-87338095D02*
X96561905Y-87338095D01*
X96657143Y-87385714D01*
X96704762Y-87433333D01*
X96752381Y-87528571D01*
X96752381Y-87719048D01*
X96704762Y-87814286D01*
X96657143Y-87861905D01*
X96561905Y-87909524D01*
X95752381Y-87909524D01*
X95847619Y-88338095D02*
X95800000Y-88385714D01*
X95752381Y-88480952D01*
X95752381Y-88719048D01*
X95800000Y-88814286D01*
X95847619Y-88861905D01*
X95942857Y-88909524D01*
X96038095Y-88909524D01*
X96180952Y-88861905D01*
X96752381Y-88290476D01*
X96752381Y-88909524D01*
D11*
X109952381Y-95090476D02*
X110952381Y-95757143D01*
X109952381Y-95757143D02*
X110952381Y-95090476D01*
X110857143Y-96709524D02*
X110904762Y-96661905D01*
X110952381Y-96519048D01*
X110952381Y-96423810D01*
X110904762Y-96280952D01*
X110809524Y-96185714D01*
X110714286Y-96138095D01*
X110523810Y-96090476D01*
X110380952Y-96090476D01*
X110190476Y-96138095D01*
X110095238Y-96185714D01*
X110000000Y-96280952D01*
X109952381Y-96423810D01*
X109952381Y-96519048D01*
X110000000Y-96661905D01*
X110047619Y-96709524D01*
X110952381Y-97661905D02*
X110952381Y-97090476D01*
X110952381Y-97376190D02*
X109952381Y-97376190D01*
X110095238Y-97280952D01*
X110190476Y-97185714D01*
X110238095Y-97090476D01*
X98042857Y-103552381D02*
X98376191Y-103076190D01*
X98614286Y-103552381D02*
X98614286Y-102552381D01*
X98233333Y-102552381D01*
X98138095Y-102600000D01*
X98090476Y-102647619D01*
X98042857Y-102742857D01*
X98042857Y-102885714D01*
X98090476Y-102980952D01*
X98138095Y-103028571D01*
X98233333Y-103076190D01*
X98614286Y-103076190D01*
X97661905Y-102647619D02*
X97614286Y-102600000D01*
X97519048Y-102552381D01*
X97280952Y-102552381D01*
X97185714Y-102600000D01*
X97138095Y-102647619D01*
X97090476Y-102742857D01*
X97090476Y-102838095D01*
X97138095Y-102980952D01*
X97709524Y-103552381D01*
X97090476Y-103552381D01*
X96233333Y-102552381D02*
X96423810Y-102552381D01*
X96519048Y-102600000D01*
X96566667Y-102647619D01*
X96661905Y-102790476D01*
X96709524Y-102980952D01*
X96709524Y-103361905D01*
X96661905Y-103457143D01*
X96614286Y-103504762D01*
X96519048Y-103552381D01*
X96328571Y-103552381D01*
X96233333Y-103504762D01*
X96185714Y-103457143D01*
X96138095Y-103361905D01*
X96138095Y-103123810D01*
X96185714Y-103028571D01*
X96233333Y-102980952D01*
X96328571Y-102933333D01*
X96519048Y-102933333D01*
X96614286Y-102980952D01*
X96661905Y-103028571D01*
X96709524Y-103123810D01*
X98042857Y-105452381D02*
X98376191Y-104976190D01*
X98614286Y-105452381D02*
X98614286Y-104452381D01*
X98233333Y-104452381D01*
X98138095Y-104500000D01*
X98090476Y-104547619D01*
X98042857Y-104642857D01*
X98042857Y-104785714D01*
X98090476Y-104880952D01*
X98138095Y-104928571D01*
X98233333Y-104976190D01*
X98614286Y-104976190D01*
X97661905Y-104547619D02*
X97614286Y-104500000D01*
X97519048Y-104452381D01*
X97280952Y-104452381D01*
X97185714Y-104500000D01*
X97138095Y-104547619D01*
X97090476Y-104642857D01*
X97090476Y-104738095D01*
X97138095Y-104880952D01*
X97709524Y-105452381D01*
X97090476Y-105452381D01*
X96519048Y-104880952D02*
X96614286Y-104833333D01*
X96661905Y-104785714D01*
X96709524Y-104690476D01*
X96709524Y-104642857D01*
X96661905Y-104547619D01*
X96614286Y-104500000D01*
X96519048Y-104452381D01*
X96328571Y-104452381D01*
X96233333Y-104500000D01*
X96185714Y-104547619D01*
X96138095Y-104642857D01*
X96138095Y-104690476D01*
X96185714Y-104785714D01*
X96233333Y-104833333D01*
X96328571Y-104880952D01*
X96519048Y-104880952D01*
X96614286Y-104928571D01*
X96661905Y-104976190D01*
X96709524Y-105071429D01*
X96709524Y-105261905D01*
X96661905Y-105357143D01*
X96614286Y-105404762D01*
X96519048Y-105452381D01*
X96328571Y-105452381D01*
X96233333Y-105404762D01*
X96185714Y-105357143D01*
X96138095Y-105261905D01*
X96138095Y-105071429D01*
X96185714Y-104976190D01*
X96233333Y-104928571D01*
X96328571Y-104880952D01*
X121442857Y-105752381D02*
X121776191Y-105276190D01*
X122014286Y-105752381D02*
X122014286Y-104752381D01*
X121633333Y-104752381D01*
X121538095Y-104800000D01*
X121490476Y-104847619D01*
X121442857Y-104942857D01*
X121442857Y-105085714D01*
X121490476Y-105180952D01*
X121538095Y-105228571D01*
X121633333Y-105276190D01*
X122014286Y-105276190D01*
X121109524Y-104752381D02*
X120490476Y-104752381D01*
X120823810Y-105133333D01*
X120680952Y-105133333D01*
X120585714Y-105180952D01*
X120538095Y-105228571D01*
X120490476Y-105323810D01*
X120490476Y-105561905D01*
X120538095Y-105657143D01*
X120585714Y-105704762D01*
X120680952Y-105752381D01*
X120966667Y-105752381D01*
X121061905Y-105704762D01*
X121109524Y-105657143D01*
X119538095Y-105752381D02*
X120109524Y-105752381D01*
X119823810Y-105752381D02*
X119823810Y-104752381D01*
X119919048Y-104895238D01*
X120014286Y-104990476D01*
X120109524Y-105038095D01*
X121442857Y-104052381D02*
X121776191Y-103576190D01*
X122014286Y-104052381D02*
X122014286Y-103052381D01*
X121633333Y-103052381D01*
X121538095Y-103100000D01*
X121490476Y-103147619D01*
X121442857Y-103242857D01*
X121442857Y-103385714D01*
X121490476Y-103480952D01*
X121538095Y-103528571D01*
X121633333Y-103576190D01*
X122014286Y-103576190D01*
X121109524Y-103052381D02*
X120490476Y-103052381D01*
X120823810Y-103433333D01*
X120680952Y-103433333D01*
X120585714Y-103480952D01*
X120538095Y-103528571D01*
X120490476Y-103623810D01*
X120490476Y-103861905D01*
X120538095Y-103957143D01*
X120585714Y-104004762D01*
X120680952Y-104052381D01*
X120966667Y-104052381D01*
X121061905Y-104004762D01*
X121109524Y-103957143D01*
X120109524Y-103147619D02*
X120061905Y-103100000D01*
X119966667Y-103052381D01*
X119728571Y-103052381D01*
X119633333Y-103100000D01*
X119585714Y-103147619D01*
X119538095Y-103242857D01*
X119538095Y-103338095D01*
X119585714Y-103480952D01*
X120157143Y-104052381D01*
X119538095Y-104052381D01*
X121542857Y-98852381D02*
X121876191Y-98376190D01*
X122114286Y-98852381D02*
X122114286Y-97852381D01*
X121733333Y-97852381D01*
X121638095Y-97900000D01*
X121590476Y-97947619D01*
X121542857Y-98042857D01*
X121542857Y-98185714D01*
X121590476Y-98280952D01*
X121638095Y-98328571D01*
X121733333Y-98376190D01*
X122114286Y-98376190D01*
X121209524Y-97852381D02*
X120590476Y-97852381D01*
X120923810Y-98233333D01*
X120780952Y-98233333D01*
X120685714Y-98280952D01*
X120638095Y-98328571D01*
X120590476Y-98423810D01*
X120590476Y-98661905D01*
X120638095Y-98757143D01*
X120685714Y-98804762D01*
X120780952Y-98852381D01*
X121066667Y-98852381D01*
X121161905Y-98804762D01*
X121209524Y-98757143D01*
X119685714Y-97852381D02*
X120161905Y-97852381D01*
X120209524Y-98328571D01*
X120161905Y-98280952D01*
X120066667Y-98233333D01*
X119828571Y-98233333D01*
X119733333Y-98280952D01*
X119685714Y-98328571D01*
X119638095Y-98423810D01*
X119638095Y-98661905D01*
X119685714Y-98757143D01*
X119733333Y-98804762D01*
X119828571Y-98852381D01*
X120066667Y-98852381D01*
X120161905Y-98804762D01*
X120209524Y-98757143D01*
X121542857Y-96952381D02*
X121876191Y-96476190D01*
X122114286Y-96952381D02*
X122114286Y-95952381D01*
X121733333Y-95952381D01*
X121638095Y-96000000D01*
X121590476Y-96047619D01*
X121542857Y-96142857D01*
X121542857Y-96285714D01*
X121590476Y-96380952D01*
X121638095Y-96428571D01*
X121733333Y-96476190D01*
X122114286Y-96476190D01*
X121209524Y-95952381D02*
X120590476Y-95952381D01*
X120923810Y-96333333D01*
X120780952Y-96333333D01*
X120685714Y-96380952D01*
X120638095Y-96428571D01*
X120590476Y-96523810D01*
X120590476Y-96761905D01*
X120638095Y-96857143D01*
X120685714Y-96904762D01*
X120780952Y-96952381D01*
X121066667Y-96952381D01*
X121161905Y-96904762D01*
X121209524Y-96857143D01*
X119733333Y-95952381D02*
X119923810Y-95952381D01*
X120019048Y-96000000D01*
X120066667Y-96047619D01*
X120161905Y-96190476D01*
X120209524Y-96380952D01*
X120209524Y-96761905D01*
X120161905Y-96857143D01*
X120114286Y-96904762D01*
X120019048Y-96952381D01*
X119828571Y-96952381D01*
X119733333Y-96904762D01*
X119685714Y-96857143D01*
X119638095Y-96761905D01*
X119638095Y-96523810D01*
X119685714Y-96428571D01*
X119733333Y-96380952D01*
X119828571Y-96333333D01*
X120019048Y-96333333D01*
X120114286Y-96380952D01*
X120161905Y-96428571D01*
X120209524Y-96523810D01*
X121442857Y-91952381D02*
X121776191Y-91476190D01*
X122014286Y-91952381D02*
X122014286Y-90952381D01*
X121633333Y-90952381D01*
X121538095Y-91000000D01*
X121490476Y-91047619D01*
X121442857Y-91142857D01*
X121442857Y-91285714D01*
X121490476Y-91380952D01*
X121538095Y-91428571D01*
X121633333Y-91476190D01*
X122014286Y-91476190D01*
X121109524Y-90952381D02*
X120490476Y-90952381D01*
X120823810Y-91333333D01*
X120680952Y-91333333D01*
X120585714Y-91380952D01*
X120538095Y-91428571D01*
X120490476Y-91523810D01*
X120490476Y-91761905D01*
X120538095Y-91857143D01*
X120585714Y-91904762D01*
X120680952Y-91952381D01*
X120966667Y-91952381D01*
X121061905Y-91904762D01*
X121109524Y-91857143D01*
X120014286Y-91952381D02*
X119823810Y-91952381D01*
X119728571Y-91904762D01*
X119680952Y-91857143D01*
X119585714Y-91714286D01*
X119538095Y-91523810D01*
X119538095Y-91142857D01*
X119585714Y-91047619D01*
X119633333Y-91000000D01*
X119728571Y-90952381D01*
X119919048Y-90952381D01*
X120014286Y-91000000D01*
X120061905Y-91047619D01*
X120109524Y-91142857D01*
X120109524Y-91380952D01*
X120061905Y-91476190D01*
X120014286Y-91523810D01*
X119919048Y-91571429D01*
X119728571Y-91571429D01*
X119633333Y-91523810D01*
X119585714Y-91476190D01*
X119538095Y-91380952D01*
X121342857Y-89952381D02*
X121676191Y-89476190D01*
X121914286Y-89952381D02*
X121914286Y-88952381D01*
X121533333Y-88952381D01*
X121438095Y-89000000D01*
X121390476Y-89047619D01*
X121342857Y-89142857D01*
X121342857Y-89285714D01*
X121390476Y-89380952D01*
X121438095Y-89428571D01*
X121533333Y-89476190D01*
X121914286Y-89476190D01*
X120485714Y-89285714D02*
X120485714Y-89952381D01*
X120723810Y-88904762D02*
X120961905Y-89619048D01*
X120342857Y-89619048D01*
X119771429Y-88952381D02*
X119676190Y-88952381D01*
X119580952Y-89000000D01*
X119533333Y-89047619D01*
X119485714Y-89142857D01*
X119438095Y-89333333D01*
X119438095Y-89571429D01*
X119485714Y-89761905D01*
X119533333Y-89857143D01*
X119580952Y-89904762D01*
X119676190Y-89952381D01*
X119771429Y-89952381D01*
X119866667Y-89904762D01*
X119914286Y-89857143D01*
X119961905Y-89761905D01*
X120009524Y-89571429D01*
X120009524Y-89333333D01*
X119961905Y-89142857D01*
X119914286Y-89047619D01*
X119866667Y-89000000D01*
X119771429Y-88952381D01*
X121342857Y-84852381D02*
X121676191Y-84376190D01*
X121914286Y-84852381D02*
X121914286Y-83852381D01*
X121533333Y-83852381D01*
X121438095Y-83900000D01*
X121390476Y-83947619D01*
X121342857Y-84042857D01*
X121342857Y-84185714D01*
X121390476Y-84280952D01*
X121438095Y-84328571D01*
X121533333Y-84376190D01*
X121914286Y-84376190D01*
X120485714Y-84185714D02*
X120485714Y-84852381D01*
X120723810Y-83804762D02*
X120961905Y-84519048D01*
X120342857Y-84519048D01*
X120057143Y-83852381D02*
X119438095Y-83852381D01*
X119771429Y-84233333D01*
X119628571Y-84233333D01*
X119533333Y-84280952D01*
X119485714Y-84328571D01*
X119438095Y-84423810D01*
X119438095Y-84661905D01*
X119485714Y-84757143D01*
X119533333Y-84804762D01*
X119628571Y-84852381D01*
X119914286Y-84852381D01*
X120009524Y-84804762D01*
X120057143Y-84757143D01*
X121242857Y-82952381D02*
X121576191Y-82476190D01*
X121814286Y-82952381D02*
X121814286Y-81952381D01*
X121433333Y-81952381D01*
X121338095Y-82000000D01*
X121290476Y-82047619D01*
X121242857Y-82142857D01*
X121242857Y-82285714D01*
X121290476Y-82380952D01*
X121338095Y-82428571D01*
X121433333Y-82476190D01*
X121814286Y-82476190D01*
X120385714Y-82285714D02*
X120385714Y-82952381D01*
X120623810Y-81904762D02*
X120861905Y-82619048D01*
X120242857Y-82619048D01*
X119433333Y-82285714D02*
X119433333Y-82952381D01*
X119671429Y-81904762D02*
X119909524Y-82619048D01*
X119290476Y-82619048D01*
X98142857Y-96452381D02*
X98476191Y-95976190D01*
X98714286Y-96452381D02*
X98714286Y-95452381D01*
X98333333Y-95452381D01*
X98238095Y-95500000D01*
X98190476Y-95547619D01*
X98142857Y-95642857D01*
X98142857Y-95785714D01*
X98190476Y-95880952D01*
X98238095Y-95928571D01*
X98333333Y-95976190D01*
X98714286Y-95976190D01*
X97285714Y-95785714D02*
X97285714Y-96452381D01*
X97523810Y-95404762D02*
X97761905Y-96119048D01*
X97142857Y-96119048D01*
X96285714Y-95452381D02*
X96761905Y-95452381D01*
X96809524Y-95928571D01*
X96761905Y-95880952D01*
X96666667Y-95833333D01*
X96428571Y-95833333D01*
X96333333Y-95880952D01*
X96285714Y-95928571D01*
X96238095Y-96023810D01*
X96238095Y-96261905D01*
X96285714Y-96357143D01*
X96333333Y-96404762D01*
X96428571Y-96452381D01*
X96666667Y-96452381D01*
X96761905Y-96404762D01*
X96809524Y-96357143D01*
X98242857Y-98152381D02*
X98576191Y-97676190D01*
X98814286Y-98152381D02*
X98814286Y-97152381D01*
X98433333Y-97152381D01*
X98338095Y-97200000D01*
X98290476Y-97247619D01*
X98242857Y-97342857D01*
X98242857Y-97485714D01*
X98290476Y-97580952D01*
X98338095Y-97628571D01*
X98433333Y-97676190D01*
X98814286Y-97676190D01*
X97385714Y-97485714D02*
X97385714Y-98152381D01*
X97623810Y-97104762D02*
X97861905Y-97819048D01*
X97242857Y-97819048D01*
X96957143Y-97152381D02*
X96290476Y-97152381D01*
X96719048Y-98152381D01*
X103709524Y-103652381D02*
X103042857Y-104652381D01*
X103042857Y-103652381D02*
X103709524Y-104652381D01*
X102138095Y-104652381D02*
X102709524Y-104652381D01*
X102423810Y-104652381D02*
X102423810Y-103652381D01*
X102519048Y-103795238D01*
X102614286Y-103890476D01*
X102709524Y-103938095D01*
X129347619Y-104404762D02*
X129300000Y-104309524D01*
X129204762Y-104214286D01*
X129061905Y-104071429D01*
X129014286Y-103976190D01*
X129014286Y-103880952D01*
X129252381Y-103928571D02*
X129204762Y-103833333D01*
X129109524Y-103738095D01*
X128919048Y-103690476D01*
X128585714Y-103690476D01*
X128395238Y-103738095D01*
X128300000Y-103833333D01*
X128252381Y-103928571D01*
X128252381Y-104119048D01*
X128300000Y-104214286D01*
X128395238Y-104309524D01*
X128585714Y-104357143D01*
X128919048Y-104357143D01*
X129109524Y-104309524D01*
X129204762Y-104214286D01*
X129252381Y-104119048D01*
X129252381Y-103928571D01*
X128252381Y-105261905D02*
X128252381Y-104785714D01*
X128728571Y-104738095D01*
X128680952Y-104785714D01*
X128633333Y-104880952D01*
X128633333Y-105119048D01*
X128680952Y-105214286D01*
X128728571Y-105261905D01*
X128823810Y-105309524D01*
X129061905Y-105309524D01*
X129157143Y-105261905D01*
X129204762Y-105214286D01*
X129252381Y-105119048D01*
X129252381Y-104880952D01*
X129204762Y-104785714D01*
X129157143Y-104738095D01*
X129347619Y-97304762D02*
X129300000Y-97209524D01*
X129204762Y-97114286D01*
X129061905Y-96971429D01*
X129014286Y-96876190D01*
X129014286Y-96780952D01*
X129252381Y-96828571D02*
X129204762Y-96733333D01*
X129109524Y-96638095D01*
X128919048Y-96590476D01*
X128585714Y-96590476D01*
X128395238Y-96638095D01*
X128300000Y-96733333D01*
X128252381Y-96828571D01*
X128252381Y-97019048D01*
X128300000Y-97114286D01*
X128395238Y-97209524D01*
X128585714Y-97257143D01*
X128919048Y-97257143D01*
X129109524Y-97209524D01*
X129204762Y-97114286D01*
X129252381Y-97019048D01*
X129252381Y-96828571D01*
X128252381Y-98114286D02*
X128252381Y-97923809D01*
X128300000Y-97828571D01*
X128347619Y-97780952D01*
X128490476Y-97685714D01*
X128680952Y-97638095D01*
X129061905Y-97638095D01*
X129157143Y-97685714D01*
X129204762Y-97733333D01*
X129252381Y-97828571D01*
X129252381Y-98019048D01*
X129204762Y-98114286D01*
X129157143Y-98161905D01*
X129061905Y-98209524D01*
X128823810Y-98209524D01*
X128728571Y-98161905D01*
X128680952Y-98114286D01*
X128633333Y-98019048D01*
X128633333Y-97828571D01*
X128680952Y-97733333D01*
X128728571Y-97685714D01*
X128823810Y-97638095D01*
X129347619Y-90304762D02*
X129300000Y-90209524D01*
X129204762Y-90114286D01*
X129061905Y-89971429D01*
X129014286Y-89876190D01*
X129014286Y-89780952D01*
X129252381Y-89828571D02*
X129204762Y-89733333D01*
X129109524Y-89638095D01*
X128919048Y-89590476D01*
X128585714Y-89590476D01*
X128395238Y-89638095D01*
X128300000Y-89733333D01*
X128252381Y-89828571D01*
X128252381Y-90019048D01*
X128300000Y-90114286D01*
X128395238Y-90209524D01*
X128585714Y-90257143D01*
X128919048Y-90257143D01*
X129109524Y-90209524D01*
X129204762Y-90114286D01*
X129252381Y-90019048D01*
X129252381Y-89828571D01*
X128252381Y-90590476D02*
X128252381Y-91257143D01*
X129252381Y-90828571D01*
X129447619Y-83304762D02*
X129400000Y-83209524D01*
X129304762Y-83114286D01*
X129161905Y-82971429D01*
X129114286Y-82876190D01*
X129114286Y-82780952D01*
X129352381Y-82828571D02*
X129304762Y-82733333D01*
X129209524Y-82638095D01*
X129019048Y-82590476D01*
X128685714Y-82590476D01*
X128495238Y-82638095D01*
X128400000Y-82733333D01*
X128352381Y-82828571D01*
X128352381Y-83019048D01*
X128400000Y-83114286D01*
X128495238Y-83209524D01*
X128685714Y-83257143D01*
X129019048Y-83257143D01*
X129209524Y-83209524D01*
X129304762Y-83114286D01*
X129352381Y-83019048D01*
X129352381Y-82828571D01*
X128780952Y-83828571D02*
X128733333Y-83733333D01*
X128685714Y-83685714D01*
X128590476Y-83638095D01*
X128542857Y-83638095D01*
X128447619Y-83685714D01*
X128400000Y-83733333D01*
X128352381Y-83828571D01*
X128352381Y-84019048D01*
X128400000Y-84114286D01*
X128447619Y-84161905D01*
X128542857Y-84209524D01*
X128590476Y-84209524D01*
X128685714Y-84161905D01*
X128733333Y-84114286D01*
X128780952Y-84019048D01*
X128780952Y-83828571D01*
X128828571Y-83733333D01*
X128876190Y-83685714D01*
X128971429Y-83638095D01*
X129161905Y-83638095D01*
X129257143Y-83685714D01*
X129304762Y-83733333D01*
X129352381Y-83828571D01*
X129352381Y-84019048D01*
X129304762Y-84114286D01*
X129257143Y-84161905D01*
X129161905Y-84209524D01*
X128971429Y-84209524D01*
X128876190Y-84161905D01*
X128828571Y-84114286D01*
X128780952Y-84019048D01*
X90147619Y-103428572D02*
X90100000Y-103333334D01*
X90004762Y-103238096D01*
X89861905Y-103095239D01*
X89814286Y-103000000D01*
X89814286Y-102904762D01*
X90052381Y-102952381D02*
X90004762Y-102857143D01*
X89909524Y-102761905D01*
X89719048Y-102714286D01*
X89385714Y-102714286D01*
X89195238Y-102761905D01*
X89100000Y-102857143D01*
X89052381Y-102952381D01*
X89052381Y-103142858D01*
X89100000Y-103238096D01*
X89195238Y-103333334D01*
X89385714Y-103380953D01*
X89719048Y-103380953D01*
X89909524Y-103333334D01*
X90004762Y-103238096D01*
X90052381Y-103142858D01*
X90052381Y-102952381D01*
X90052381Y-104333334D02*
X90052381Y-103761905D01*
X90052381Y-104047619D02*
X89052381Y-104047619D01*
X89195238Y-103952381D01*
X89290476Y-103857143D01*
X89338095Y-103761905D01*
X89052381Y-104952381D02*
X89052381Y-105047620D01*
X89100000Y-105142858D01*
X89147619Y-105190477D01*
X89242857Y-105238096D01*
X89433333Y-105285715D01*
X89671429Y-105285715D01*
X89861905Y-105238096D01*
X89957143Y-105190477D01*
X90004762Y-105142858D01*
X90052381Y-105047620D01*
X90052381Y-104952381D01*
X90004762Y-104857143D01*
X89957143Y-104809524D01*
X89861905Y-104761905D01*
X89671429Y-104714286D01*
X89433333Y-104714286D01*
X89242857Y-104761905D01*
X89147619Y-104809524D01*
X89100000Y-104857143D01*
X89052381Y-104952381D01*
X90147619Y-96428572D02*
X90100000Y-96333334D01*
X90004762Y-96238096D01*
X89861905Y-96095239D01*
X89814286Y-96000000D01*
X89814286Y-95904762D01*
X90052381Y-95952381D02*
X90004762Y-95857143D01*
X89909524Y-95761905D01*
X89719048Y-95714286D01*
X89385714Y-95714286D01*
X89195238Y-95761905D01*
X89100000Y-95857143D01*
X89052381Y-95952381D01*
X89052381Y-96142858D01*
X89100000Y-96238096D01*
X89195238Y-96333334D01*
X89385714Y-96380953D01*
X89719048Y-96380953D01*
X89909524Y-96333334D01*
X90004762Y-96238096D01*
X90052381Y-96142858D01*
X90052381Y-95952381D01*
X90052381Y-97333334D02*
X90052381Y-96761905D01*
X90052381Y-97047619D02*
X89052381Y-97047619D01*
X89195238Y-96952381D01*
X89290476Y-96857143D01*
X89338095Y-96761905D01*
X89147619Y-97714286D02*
X89100000Y-97761905D01*
X89052381Y-97857143D01*
X89052381Y-98095239D01*
X89100000Y-98190477D01*
X89147619Y-98238096D01*
X89242857Y-98285715D01*
X89338095Y-98285715D01*
X89480952Y-98238096D01*
X90052381Y-97666667D01*
X90052381Y-98285715D01*
X95242857Y-102152381D02*
X95576191Y-101676190D01*
X95814286Y-102152381D02*
X95814286Y-101152381D01*
X95433333Y-101152381D01*
X95338095Y-101200000D01*
X95290476Y-101247619D01*
X95242857Y-101342857D01*
X95242857Y-101485714D01*
X95290476Y-101580952D01*
X95338095Y-101628571D01*
X95433333Y-101676190D01*
X95814286Y-101676190D01*
X94338095Y-101152381D02*
X94814286Y-101152381D01*
X94861905Y-101628571D01*
X94814286Y-101580952D01*
X94719048Y-101533333D01*
X94480952Y-101533333D01*
X94385714Y-101580952D01*
X94338095Y-101628571D01*
X94290476Y-101723810D01*
X94290476Y-101961905D01*
X94338095Y-102057143D01*
X94385714Y-102104762D01*
X94480952Y-102152381D01*
X94719048Y-102152381D01*
X94814286Y-102104762D01*
X94861905Y-102057143D01*
X93671429Y-101152381D02*
X93576190Y-101152381D01*
X93480952Y-101200000D01*
X93433333Y-101247619D01*
X93385714Y-101342857D01*
X93338095Y-101533333D01*
X93338095Y-101771429D01*
X93385714Y-101961905D01*
X93433333Y-102057143D01*
X93480952Y-102104762D01*
X93576190Y-102152381D01*
X93671429Y-102152381D01*
X93766667Y-102104762D01*
X93814286Y-102057143D01*
X93861905Y-101961905D01*
X93909524Y-101771429D01*
X93909524Y-101533333D01*
X93861905Y-101342857D01*
X93814286Y-101247619D01*
X93766667Y-101200000D01*
X93671429Y-101152381D01*
X92742857Y-108752381D02*
X93076191Y-108276190D01*
X93314286Y-108752381D02*
X93314286Y-107752381D01*
X92933333Y-107752381D01*
X92838095Y-107800000D01*
X92790476Y-107847619D01*
X92742857Y-107942857D01*
X92742857Y-108085714D01*
X92790476Y-108180952D01*
X92838095Y-108228571D01*
X92933333Y-108276190D01*
X93314286Y-108276190D01*
X91838095Y-107752381D02*
X92314286Y-107752381D01*
X92361905Y-108228571D01*
X92314286Y-108180952D01*
X92219048Y-108133333D01*
X91980952Y-108133333D01*
X91885714Y-108180952D01*
X91838095Y-108228571D01*
X91790476Y-108323810D01*
X91790476Y-108561905D01*
X91838095Y-108657143D01*
X91885714Y-108704762D01*
X91980952Y-108752381D01*
X92219048Y-108752381D01*
X92314286Y-108704762D01*
X92361905Y-108657143D01*
X91409524Y-107847619D02*
X91361905Y-107800000D01*
X91266667Y-107752381D01*
X91028571Y-107752381D01*
X90933333Y-107800000D01*
X90885714Y-107847619D01*
X90838095Y-107942857D01*
X90838095Y-108038095D01*
X90885714Y-108180952D01*
X91457143Y-108752381D01*
X90838095Y-108752381D01*
X92542857Y-93552381D02*
X92876191Y-93076190D01*
X93114286Y-93552381D02*
X93114286Y-92552381D01*
X92733333Y-92552381D01*
X92638095Y-92600000D01*
X92590476Y-92647619D01*
X92542857Y-92742857D01*
X92542857Y-92885714D01*
X92590476Y-92980952D01*
X92638095Y-93028571D01*
X92733333Y-93076190D01*
X93114286Y-93076190D01*
X91638095Y-92552381D02*
X92114286Y-92552381D01*
X92161905Y-93028571D01*
X92114286Y-92980952D01*
X92019048Y-92933333D01*
X91780952Y-92933333D01*
X91685714Y-92980952D01*
X91638095Y-93028571D01*
X91590476Y-93123810D01*
X91590476Y-93361905D01*
X91638095Y-93457143D01*
X91685714Y-93504762D01*
X91780952Y-93552381D01*
X92019048Y-93552381D01*
X92114286Y-93504762D01*
X92161905Y-93457143D01*
X90733333Y-92885714D02*
X90733333Y-93552381D01*
X90971429Y-92504762D02*
X91209524Y-93219048D01*
X90590476Y-93219048D01*
X95342857Y-100052381D02*
X95676191Y-99576190D01*
X95914286Y-100052381D02*
X95914286Y-99052381D01*
X95533333Y-99052381D01*
X95438095Y-99100000D01*
X95390476Y-99147619D01*
X95342857Y-99242857D01*
X95342857Y-99385714D01*
X95390476Y-99480952D01*
X95438095Y-99528571D01*
X95533333Y-99576190D01*
X95914286Y-99576190D01*
X94438095Y-99052381D02*
X94914286Y-99052381D01*
X94961905Y-99528571D01*
X94914286Y-99480952D01*
X94819048Y-99433333D01*
X94580952Y-99433333D01*
X94485714Y-99480952D01*
X94438095Y-99528571D01*
X94390476Y-99623810D01*
X94390476Y-99861905D01*
X94438095Y-99957143D01*
X94485714Y-100004762D01*
X94580952Y-100052381D01*
X94819048Y-100052381D01*
X94914286Y-100004762D01*
X94961905Y-99957143D01*
X93533333Y-99052381D02*
X93723810Y-99052381D01*
X93819048Y-99100000D01*
X93866667Y-99147619D01*
X93961905Y-99290476D01*
X94009524Y-99480952D01*
X94009524Y-99861905D01*
X93961905Y-99957143D01*
X93914286Y-100004762D01*
X93819048Y-100052381D01*
X93628571Y-100052381D01*
X93533333Y-100004762D01*
X93485714Y-99957143D01*
X93438095Y-99861905D01*
X93438095Y-99623810D01*
X93485714Y-99528571D01*
X93533333Y-99480952D01*
X93628571Y-99433333D01*
X93819048Y-99433333D01*
X93914286Y-99480952D01*
X93961905Y-99528571D01*
X94009524Y-99623810D01*
X92057143Y-90257143D02*
X92104762Y-90209524D01*
X92152381Y-90066667D01*
X92152381Y-89971429D01*
X92104762Y-89828571D01*
X92009524Y-89733333D01*
X91914286Y-89685714D01*
X91723810Y-89638095D01*
X91580952Y-89638095D01*
X91390476Y-89685714D01*
X91295238Y-89733333D01*
X91200000Y-89828571D01*
X91152381Y-89971429D01*
X91152381Y-90066667D01*
X91200000Y-90209524D01*
X91247619Y-90257143D01*
X92152381Y-91209524D02*
X92152381Y-90638095D01*
X92152381Y-90923809D02*
X91152381Y-90923809D01*
X91295238Y-90828571D01*
X91390476Y-90733333D01*
X91438095Y-90638095D01*
X91152381Y-91542857D02*
X91152381Y-92161905D01*
X91533333Y-91828571D01*
X91533333Y-91971429D01*
X91580952Y-92066667D01*
X91628571Y-92114286D01*
X91723810Y-92161905D01*
X91961905Y-92161905D01*
X92057143Y-92114286D01*
X92104762Y-92066667D01*
X92152381Y-91971429D01*
X92152381Y-91685714D01*
X92104762Y-91590476D01*
X92057143Y-91542857D01*
X101157143Y-90357143D02*
X101204762Y-90309524D01*
X101252381Y-90166667D01*
X101252381Y-90071429D01*
X101204762Y-89928571D01*
X101109524Y-89833333D01*
X101014286Y-89785714D01*
X100823810Y-89738095D01*
X100680952Y-89738095D01*
X100490476Y-89785714D01*
X100395238Y-89833333D01*
X100300000Y-89928571D01*
X100252381Y-90071429D01*
X100252381Y-90166667D01*
X100300000Y-90309524D01*
X100347619Y-90357143D01*
X101252381Y-91309524D02*
X101252381Y-90738095D01*
X101252381Y-91023809D02*
X100252381Y-91023809D01*
X100395238Y-90928571D01*
X100490476Y-90833333D01*
X100538095Y-90738095D01*
X100585714Y-92166667D02*
X101252381Y-92166667D01*
X100204762Y-91928571D02*
X100919048Y-91690476D01*
X100919048Y-92309524D01*
X98342857Y-109452381D02*
X98676191Y-108976190D01*
X98914286Y-109452381D02*
X98914286Y-108452381D01*
X98533333Y-108452381D01*
X98438095Y-108500000D01*
X98390476Y-108547619D01*
X98342857Y-108642857D01*
X98342857Y-108785714D01*
X98390476Y-108880952D01*
X98438095Y-108928571D01*
X98533333Y-108976190D01*
X98914286Y-108976190D01*
X97438095Y-108452381D02*
X97914286Y-108452381D01*
X97961905Y-108928571D01*
X97914286Y-108880952D01*
X97819048Y-108833333D01*
X97580952Y-108833333D01*
X97485714Y-108880952D01*
X97438095Y-108928571D01*
X97390476Y-109023810D01*
X97390476Y-109261905D01*
X97438095Y-109357143D01*
X97485714Y-109404762D01*
X97580952Y-109452381D01*
X97819048Y-109452381D01*
X97914286Y-109404762D01*
X97961905Y-109357143D01*
X96819048Y-108880952D02*
X96914286Y-108833333D01*
X96961905Y-108785714D01*
X97009524Y-108690476D01*
X97009524Y-108642857D01*
X96961905Y-108547619D01*
X96914286Y-108500000D01*
X96819048Y-108452381D01*
X96628571Y-108452381D01*
X96533333Y-108500000D01*
X96485714Y-108547619D01*
X96438095Y-108642857D01*
X96438095Y-108690476D01*
X96485714Y-108785714D01*
X96533333Y-108833333D01*
X96628571Y-108880952D01*
X96819048Y-108880952D01*
X96914286Y-108928571D01*
X96961905Y-108976190D01*
X97009524Y-109071429D01*
X97009524Y-109261905D01*
X96961905Y-109357143D01*
X96914286Y-109404762D01*
X96819048Y-109452381D01*
X96628571Y-109452381D01*
X96533333Y-109404762D01*
X96485714Y-109357143D01*
X96438095Y-109261905D01*
X96438095Y-109071429D01*
X96485714Y-108976190D01*
X96533333Y-108928571D01*
X96628571Y-108880952D01*
X95342857Y-106752381D02*
X95676191Y-106276190D01*
X95914286Y-106752381D02*
X95914286Y-105752381D01*
X95533333Y-105752381D01*
X95438095Y-105800000D01*
X95390476Y-105847619D01*
X95342857Y-105942857D01*
X95342857Y-106085714D01*
X95390476Y-106180952D01*
X95438095Y-106228571D01*
X95533333Y-106276190D01*
X95914286Y-106276190D01*
X94438095Y-105752381D02*
X94914286Y-105752381D01*
X94961905Y-106228571D01*
X94914286Y-106180952D01*
X94819048Y-106133333D01*
X94580952Y-106133333D01*
X94485714Y-106180952D01*
X94438095Y-106228571D01*
X94390476Y-106323810D01*
X94390476Y-106561905D01*
X94438095Y-106657143D01*
X94485714Y-106704762D01*
X94580952Y-106752381D01*
X94819048Y-106752381D01*
X94914286Y-106704762D01*
X94961905Y-106657143D01*
X93914286Y-106752381D02*
X93723810Y-106752381D01*
X93628571Y-106704762D01*
X93580952Y-106657143D01*
X93485714Y-106514286D01*
X93438095Y-106323810D01*
X93438095Y-105942857D01*
X93485714Y-105847619D01*
X93533333Y-105800000D01*
X93628571Y-105752381D01*
X93819048Y-105752381D01*
X93914286Y-105800000D01*
X93961905Y-105847619D01*
X94009524Y-105942857D01*
X94009524Y-106180952D01*
X93961905Y-106276190D01*
X93914286Y-106323810D01*
X93819048Y-106371429D01*
X93628571Y-106371429D01*
X93533333Y-106323810D01*
X93485714Y-106276190D01*
X93438095Y-106180952D01*
X94452381Y-78561905D02*
X93452381Y-78561905D01*
X93452381Y-78800000D01*
X93500000Y-78942858D01*
X93595238Y-79038096D01*
X93690476Y-79085715D01*
X93880952Y-79133334D01*
X94023810Y-79133334D01*
X94214286Y-79085715D01*
X94309524Y-79038096D01*
X94404762Y-78942858D01*
X94452381Y-78800000D01*
X94452381Y-78561905D01*
X93785714Y-79990477D02*
X94452381Y-79990477D01*
X93404762Y-79752381D02*
X94119048Y-79514286D01*
X94119048Y-80133334D01*
X119052381Y-97057143D02*
X118576190Y-96723809D01*
X119052381Y-96485714D02*
X118052381Y-96485714D01*
X118052381Y-96866667D01*
X118100000Y-96961905D01*
X118147619Y-97009524D01*
X118242857Y-97057143D01*
X118385714Y-97057143D01*
X118480952Y-97009524D01*
X118528571Y-96961905D01*
X118576190Y-96866667D01*
X118576190Y-96485714D01*
X118052381Y-97914286D02*
X118052381Y-97723809D01*
X118100000Y-97628571D01*
X118147619Y-97580952D01*
X118290476Y-97485714D01*
X118480952Y-97438095D01*
X118861905Y-97438095D01*
X118957143Y-97485714D01*
X119004762Y-97533333D01*
X119052381Y-97628571D01*
X119052381Y-97819048D01*
X119004762Y-97914286D01*
X118957143Y-97961905D01*
X118861905Y-98009524D01*
X118623810Y-98009524D01*
X118528571Y-97961905D01*
X118480952Y-97914286D01*
X118433333Y-97819048D01*
X118433333Y-97628571D01*
X118480952Y-97533333D01*
X118528571Y-97485714D01*
X118623810Y-97438095D01*
X118052381Y-98628571D02*
X118052381Y-98723810D01*
X118100000Y-98819048D01*
X118147619Y-98866667D01*
X118242857Y-98914286D01*
X118433333Y-98961905D01*
X118671429Y-98961905D01*
X118861905Y-98914286D01*
X118957143Y-98866667D01*
X119004762Y-98819048D01*
X119052381Y-98723810D01*
X119052381Y-98628571D01*
X119004762Y-98533333D01*
X118957143Y-98485714D01*
X118861905Y-98438095D01*
X118671429Y-98390476D01*
X118433333Y-98390476D01*
X118242857Y-98438095D01*
X118147619Y-98485714D01*
X118100000Y-98533333D01*
X118052381Y-98628571D01*
X119052381Y-104457143D02*
X118576190Y-104123809D01*
X119052381Y-103885714D02*
X118052381Y-103885714D01*
X118052381Y-104266667D01*
X118100000Y-104361905D01*
X118147619Y-104409524D01*
X118242857Y-104457143D01*
X118385714Y-104457143D01*
X118480952Y-104409524D01*
X118528571Y-104361905D01*
X118576190Y-104266667D01*
X118576190Y-103885714D01*
X118052381Y-105314286D02*
X118052381Y-105123809D01*
X118100000Y-105028571D01*
X118147619Y-104980952D01*
X118290476Y-104885714D01*
X118480952Y-104838095D01*
X118861905Y-104838095D01*
X118957143Y-104885714D01*
X119004762Y-104933333D01*
X119052381Y-105028571D01*
X119052381Y-105219048D01*
X119004762Y-105314286D01*
X118957143Y-105361905D01*
X118861905Y-105409524D01*
X118623810Y-105409524D01*
X118528571Y-105361905D01*
X118480952Y-105314286D01*
X118433333Y-105219048D01*
X118433333Y-105028571D01*
X118480952Y-104933333D01*
X118528571Y-104885714D01*
X118623810Y-104838095D01*
X119052381Y-106361905D02*
X119052381Y-105790476D01*
X119052381Y-106076190D02*
X118052381Y-106076190D01*
X118195238Y-105980952D01*
X118290476Y-105885714D01*
X118338095Y-105790476D01*
M02*
