M48
INCH,TZ
T1C0.012
T2C0.035
T3C0.040
T4C0.043
T5C0.087
%
G90
G05
T1
X35159Y-34677
X35394Y-42008
X35394Y-42717
X35512Y-36543
X35564Y-36042
X35591Y-33701
X35682Y-35686
X36024Y-42402
X36181Y-43071
X36184Y-35703
X36202Y-41236
X36220Y-37835
X36220Y-38189
X36220Y-38583
X36220Y-40630
X36220Y-41024
X36535Y-43071
X37480Y-43425
X37847Y-40669
X37913Y-35000
X37992Y-37598
X38150Y-39488
X38386Y-38465
X38583Y-41693
X38740Y-38425
X38937Y-37520
X38976Y-37126
X38976Y-38268
X39213Y-37323
X39469Y-42181
X39567Y-39449
X39704Y-42033
X39724Y-36339
X39724Y-36732
X39769Y-40726
X39821Y-39604
X40370Y-31839
X40669Y-31260
X41063Y-37953
X41220Y-36024
X41732Y-41024
X41737Y-40713
X41795Y-31480
X41850Y-43386
X42157Y-40067
X42244Y-42315
X42283Y-37402
X42441Y-37126
X42717Y-39055
X42795Y-34724
X42835Y-42598
X42953Y-37638
X43031Y-42323
X43111Y-34607
X43184Y-41104
X43189Y-36890
X43425Y-36654
X43632Y-40913
X44173Y-39449
X44256Y-36094
X44449Y-37047
X44539Y-38756
X44646Y-41142
X44850Y-38421
X44882Y-36732
X45157Y-33386
X45284Y-37794
X45354Y-42362
X45354Y-42835
X45398Y-33657
X45433Y-43268
X45551Y-30945
X45556Y-39768
X45591Y-39488
X45709Y-42362
X45866Y-36969
X45945Y-31181
X45984Y-41142
X46102Y-39646
X46134Y-32602
X46169Y-31539
X46437Y-31768
X46732Y-34843
X47114Y-32161
X47165Y-39646
X47283Y-38858
X47283Y-40354
X47756Y-32520
X47756Y-40512
X47874Y-34764
X48071Y-37441
X48150Y-37008
X48346Y-34134
X48346Y-40354
X48819Y-39685
X48886Y-36953
X49764Y-35276
X49764Y-35630
X49764Y-35984
X49764Y-37953
X49764Y-38307
X49764Y-38701
X49764Y-40748
X49764Y-41142
X49764Y-41496
X49803Y-32480
X49803Y-32835
X49803Y-33228
X50236Y-31063
X50512Y-42717
X50630Y-36693
X50630Y-37323
X50709Y-41929
T2
X38533Y-43425
X40207Y-43425
X43258Y-43386
X44931Y-43386
T3
X47480Y-31417
X48480Y-31417
X49480Y-31417
T4
X36874Y-34291
X38874Y-34291
T5
X34134Y-31260
X34134Y-43150
X51929Y-31260
X51929Y-43150
T0
M30
