G04 #@! TF.FileFunction,Copper,L3,Inr,Plane*
%FSLAX46Y46*%
G04 Gerber Fmt 4.6, Leading zero omitted, Abs format (unit mm)*
G04 Created by KiCad (PCBNEW (2015-01-16 BZR 5376)-product) date 31.05.2015 18:22:37*
%MOMM*%
G01*
G04 APERTURE LIST*
%ADD10C,0.100000*%
%ADD11C,2.500000*%
%ADD12C,3.000000*%
%ADD13R,1.727200X2.032000*%
%ADD14O,1.727200X2.032000*%
%ADD15C,0.900000*%
%ADD16C,0.452400*%
%ADD17C,1.000000*%
%ADD18C,0.203200*%
%ADD19C,0.254000*%
G04 APERTURE END LIST*
D10*
D11*
X131900000Y-79400000D03*
X131900000Y-109600000D03*
X86700000Y-109600000D03*
X86700000Y-79400000D03*
D12*
X93660000Y-87100000D03*
X98740000Y-87100000D03*
D13*
X120600000Y-79800000D03*
D14*
X123140000Y-79800000D03*
X125680000Y-79800000D03*
D15*
X109875000Y-110200000D03*
X97875000Y-110300000D03*
D16*
X112200000Y-100200000D03*
X110826219Y-103918180D03*
X124170000Y-93860000D03*
X117180000Y-82810000D03*
X115310000Y-85490000D03*
X91952015Y-104739579D03*
X91500000Y-107700000D03*
X120100000Y-98700000D03*
X126400000Y-97300000D03*
X126400000Y-96400000D03*
X126400000Y-98300000D03*
X127600000Y-78900000D03*
X126400000Y-90500000D03*
X126400000Y-91400000D03*
X126400000Y-89600000D03*
X126400000Y-104500000D03*
X126400000Y-103500000D03*
X126400000Y-105400000D03*
X126500000Y-83400000D03*
X126500000Y-84400000D03*
X126500000Y-82500000D03*
X96900000Y-100300000D03*
X115400000Y-109900000D03*
X103300000Y-79400000D03*
X116700000Y-79200000D03*
X92000000Y-97000000D03*
X92000000Y-96100000D03*
X92000000Y-98000000D03*
X92000000Y-104200000D03*
X92000000Y-103200000D03*
X95200000Y-110300000D03*
X96300000Y-88900000D03*
X117100000Y-100700000D03*
X120100000Y-102500000D03*
X115711409Y-101011409D03*
X91908295Y-90685477D03*
X89302818Y-88080000D03*
X112410000Y-91680000D03*
X113130000Y-98440000D03*
X112900000Y-94100000D03*
X107080000Y-101770000D03*
X101012579Y-103443542D03*
X116500000Y-93900000D03*
X104700000Y-91500000D03*
X116800000Y-104500000D03*
X113400000Y-104500000D03*
X106300000Y-110200000D03*
X100848601Y-106763833D03*
X107300000Y-107480220D03*
X115800000Y-100300000D03*
X113918180Y-97588591D03*
X108500000Y-99200000D03*
X109688068Y-104403651D03*
X101144585Y-100595370D03*
X100251165Y-107140779D03*
X110300000Y-93100000D03*
X109700000Y-93700000D03*
X107800000Y-94300000D03*
X107400000Y-95000000D03*
X109100000Y-95600000D03*
X98900000Y-95300000D03*
X90331897Y-91545534D03*
X99000000Y-97200000D03*
X99600000Y-94800000D03*
X90200000Y-92818180D03*
X98400000Y-97600000D03*
X100500000Y-100200000D03*
X109501461Y-87901461D03*
X108700000Y-88200000D03*
X106000000Y-104200000D03*
X106011409Y-103411409D03*
X90400000Y-85600000D03*
X117270000Y-80110000D03*
X106160000Y-79960000D03*
X102540000Y-80870000D03*
X96130202Y-103300000D03*
X109300000Y-107500000D03*
X115200000Y-107600000D03*
X98000000Y-105900000D03*
X108800000Y-108200000D03*
X116100000Y-107600000D03*
X121300000Y-102900000D03*
X122800000Y-102500000D03*
X122100000Y-95100000D03*
X122300000Y-94000000D03*
X118700000Y-88500000D03*
X121600000Y-88300000D03*
X122800000Y-86700000D03*
X121300000Y-82600000D03*
X96500000Y-95500000D03*
X99000000Y-94300000D03*
X100900000Y-92300000D03*
X97500000Y-97700000D03*
X114700000Y-84800000D03*
X115020259Y-95997441D03*
X92800000Y-109400000D03*
X91900000Y-109400000D03*
D17*
X128800000Y-106500000D03*
X128300000Y-108500000D03*
X128600000Y-93200000D03*
X128600000Y-94800000D03*
X89900000Y-106700000D03*
X89900000Y-108500000D03*
D16*
X124000000Y-100800000D03*
X119670000Y-81690000D03*
X119800000Y-100700000D03*
X117950000Y-80690000D03*
X115700000Y-78600000D03*
X114000000Y-93300000D03*
X100900000Y-93300000D03*
X115200000Y-108800000D03*
X104300000Y-96400000D03*
X90633024Y-90643368D03*
D18*
X95154523Y-90685477D02*
X91908295Y-90685477D01*
X98740000Y-87100000D02*
X95154523Y-90685477D01*
X92000000Y-90777182D02*
X91908295Y-90685477D01*
X92000000Y-96100000D02*
X92000000Y-90777182D01*
X94514523Y-90685477D02*
X91908295Y-90685477D01*
X98100000Y-87100000D02*
X98740000Y-87100000D01*
X96300000Y-88900000D02*
X98100000Y-87100000D01*
D19*
G36*
X133673000Y-110947395D02*
X133531282Y-111089113D01*
X133531282Y-109276997D01*
X133531282Y-79076997D01*
X133283501Y-78477320D01*
X132825093Y-78018112D01*
X132225849Y-77769284D01*
X131576997Y-77768718D01*
X130977320Y-78016499D01*
X130518112Y-78474907D01*
X130269284Y-79074151D01*
X130268718Y-79723003D01*
X130516499Y-80322680D01*
X130974907Y-80781888D01*
X131574151Y-81030716D01*
X132223003Y-81031282D01*
X132822680Y-80783501D01*
X133281888Y-80325093D01*
X133530716Y-79725849D01*
X133531282Y-79076997D01*
X133531282Y-109276997D01*
X133283501Y-108677320D01*
X132825093Y-108218112D01*
X132225849Y-107969284D01*
X131576997Y-107968718D01*
X130977320Y-108216499D01*
X130518112Y-108674907D01*
X130269284Y-109274151D01*
X130268718Y-109923003D01*
X130516499Y-110522680D01*
X130974907Y-110981888D01*
X131574151Y-111230716D01*
X132223003Y-111231282D01*
X132822680Y-110983501D01*
X133281888Y-110525093D01*
X133530716Y-109925849D01*
X133531282Y-109276997D01*
X133531282Y-111089113D01*
X133247395Y-111373000D01*
X129681153Y-111373000D01*
X129681153Y-106325527D01*
X129547311Y-106001605D01*
X129481153Y-105935331D01*
X129481153Y-94625527D01*
X129347311Y-94301605D01*
X129099698Y-94053560D01*
X128970794Y-94000034D01*
X129098395Y-93947311D01*
X129346440Y-93699698D01*
X129480847Y-93376011D01*
X129481153Y-93025527D01*
X129347311Y-92701605D01*
X129099698Y-92453560D01*
X128776011Y-92319153D01*
X128425527Y-92318847D01*
X128101605Y-92452689D01*
X127853560Y-92700302D01*
X127719153Y-93023989D01*
X127718847Y-93374473D01*
X127852689Y-93698395D01*
X128100302Y-93946440D01*
X128229205Y-93999965D01*
X128101605Y-94052689D01*
X127853560Y-94300302D01*
X127719153Y-94623989D01*
X127718847Y-94974473D01*
X127852689Y-95298395D01*
X128100302Y-95546440D01*
X128423989Y-95680847D01*
X128774473Y-95681153D01*
X129098395Y-95547311D01*
X129346440Y-95299698D01*
X129480847Y-94976011D01*
X129481153Y-94625527D01*
X129481153Y-105935331D01*
X129299698Y-105753560D01*
X128976011Y-105619153D01*
X128625527Y-105618847D01*
X128301605Y-105752689D01*
X128053560Y-106000302D01*
X127919153Y-106323989D01*
X127918847Y-106674473D01*
X128052689Y-106998395D01*
X128300302Y-107246440D01*
X128623989Y-107380847D01*
X128974473Y-107381153D01*
X129298395Y-107247311D01*
X129546440Y-106999698D01*
X129680847Y-106676011D01*
X129681153Y-106325527D01*
X129681153Y-111373000D01*
X129181153Y-111373000D01*
X129181153Y-108325527D01*
X129047311Y-108001605D01*
X128799698Y-107753560D01*
X128476011Y-107619153D01*
X128125527Y-107618847D01*
X127801605Y-107752689D01*
X127553560Y-108000302D01*
X127419153Y-108323989D01*
X127418847Y-108674473D01*
X127552689Y-108998395D01*
X127800302Y-109246440D01*
X128123989Y-109380847D01*
X128474473Y-109381153D01*
X128798395Y-109247311D01*
X129046440Y-108999698D01*
X129180847Y-108676011D01*
X129181153Y-108325527D01*
X129181153Y-111373000D01*
X126924600Y-111373000D01*
X126924600Y-79979769D01*
X126924600Y-79620231D01*
X126829860Y-79143943D01*
X126560065Y-78740166D01*
X126156288Y-78470371D01*
X125680000Y-78375631D01*
X125203712Y-78470371D01*
X124799935Y-78740166D01*
X124530140Y-79143943D01*
X124435400Y-79620231D01*
X124435400Y-79979769D01*
X124530140Y-80456057D01*
X124799935Y-80859834D01*
X125203712Y-81129629D01*
X125680000Y-81224369D01*
X126156288Y-81129629D01*
X126560065Y-80859834D01*
X126829860Y-80456057D01*
X126924600Y-79979769D01*
X126924600Y-111373000D01*
X124607305Y-111373000D01*
X124607305Y-100679750D01*
X124515059Y-100456498D01*
X124384600Y-100325811D01*
X124384600Y-79979769D01*
X124384600Y-79620231D01*
X124289860Y-79143943D01*
X124020065Y-78740166D01*
X123616288Y-78470371D01*
X123140000Y-78375631D01*
X122663712Y-78470371D01*
X122259935Y-78740166D01*
X121990140Y-79143943D01*
X121895400Y-79620231D01*
X121895400Y-79979769D01*
X121990140Y-80456057D01*
X122259935Y-80859834D01*
X122663712Y-81129629D01*
X123140000Y-81224369D01*
X123616288Y-81129629D01*
X124020065Y-80859834D01*
X124289860Y-80456057D01*
X124384600Y-79979769D01*
X124384600Y-100325811D01*
X124344400Y-100285541D01*
X124121309Y-100192905D01*
X123879750Y-100192695D01*
X123656498Y-100284941D01*
X123485541Y-100455600D01*
X123407305Y-100644012D01*
X123407305Y-86579750D01*
X123315059Y-86356498D01*
X123144400Y-86185541D01*
X122921309Y-86092905D01*
X122679750Y-86092695D01*
X122456498Y-86184941D01*
X122285541Y-86355600D01*
X122192905Y-86578691D01*
X122192695Y-86820250D01*
X122284941Y-87043502D01*
X122455600Y-87214459D01*
X122678691Y-87307095D01*
X122920250Y-87307305D01*
X123143502Y-87215059D01*
X123314459Y-87044400D01*
X123407095Y-86821309D01*
X123407305Y-86579750D01*
X123407305Y-100644012D01*
X123392905Y-100678691D01*
X123392695Y-100920250D01*
X123484941Y-101143502D01*
X123655600Y-101314459D01*
X123878691Y-101407095D01*
X124120250Y-101407305D01*
X124343502Y-101315059D01*
X124514459Y-101144400D01*
X124607095Y-100921309D01*
X124607305Y-100679750D01*
X124607305Y-111373000D01*
X123407305Y-111373000D01*
X123407305Y-102379750D01*
X123315059Y-102156498D01*
X123144400Y-101985541D01*
X122921309Y-101892905D01*
X122907305Y-101892892D01*
X122907305Y-93879750D01*
X122815059Y-93656498D01*
X122644400Y-93485541D01*
X122421309Y-93392905D01*
X122207305Y-93392718D01*
X122207305Y-88179750D01*
X122115059Y-87956498D01*
X121944400Y-87785541D01*
X121907305Y-87770137D01*
X121907305Y-82479750D01*
X121852064Y-82346056D01*
X121852064Y-80816000D01*
X121852064Y-78784000D01*
X121823878Y-78638726D01*
X121740004Y-78511044D01*
X121613384Y-78425574D01*
X121463600Y-78395536D01*
X119736400Y-78395536D01*
X119591126Y-78423722D01*
X119463444Y-78507596D01*
X119377974Y-78634216D01*
X119347936Y-78784000D01*
X119347936Y-80816000D01*
X119376122Y-80961274D01*
X119459996Y-81088956D01*
X119488322Y-81108076D01*
X119326498Y-81174941D01*
X119155541Y-81345600D01*
X119062905Y-81568691D01*
X119062695Y-81810250D01*
X119154941Y-82033502D01*
X119325600Y-82204459D01*
X119548691Y-82297095D01*
X119790250Y-82297305D01*
X120013502Y-82205059D01*
X120184459Y-82034400D01*
X120277095Y-81811309D01*
X120277305Y-81569750D01*
X120185059Y-81346498D01*
X120043272Y-81204464D01*
X121463600Y-81204464D01*
X121608874Y-81176278D01*
X121736556Y-81092404D01*
X121822026Y-80965784D01*
X121852064Y-80816000D01*
X121852064Y-82346056D01*
X121815059Y-82256498D01*
X121644400Y-82085541D01*
X121421309Y-81992905D01*
X121179750Y-81992695D01*
X120956498Y-82084941D01*
X120785541Y-82255600D01*
X120692905Y-82478691D01*
X120692695Y-82720250D01*
X120784941Y-82943502D01*
X120955600Y-83114459D01*
X121178691Y-83207095D01*
X121420250Y-83207305D01*
X121643502Y-83115059D01*
X121814459Y-82944400D01*
X121907095Y-82721309D01*
X121907305Y-82479750D01*
X121907305Y-87770137D01*
X121721309Y-87692905D01*
X121479750Y-87692695D01*
X121256498Y-87784941D01*
X121085541Y-87955600D01*
X120992905Y-88178691D01*
X120992695Y-88420250D01*
X121084941Y-88643502D01*
X121255600Y-88814459D01*
X121478691Y-88907095D01*
X121720250Y-88907305D01*
X121943502Y-88815059D01*
X122114459Y-88644400D01*
X122207095Y-88421309D01*
X122207305Y-88179750D01*
X122207305Y-93392718D01*
X122179750Y-93392695D01*
X121956498Y-93484941D01*
X121785541Y-93655600D01*
X121692905Y-93878691D01*
X121692695Y-94120250D01*
X121784941Y-94343502D01*
X121947270Y-94506115D01*
X121756498Y-94584941D01*
X121585541Y-94755600D01*
X121492905Y-94978691D01*
X121492695Y-95220250D01*
X121584941Y-95443502D01*
X121755600Y-95614459D01*
X121978691Y-95707095D01*
X122220250Y-95707305D01*
X122443502Y-95615059D01*
X122614459Y-95444400D01*
X122707095Y-95221309D01*
X122707305Y-94979750D01*
X122615059Y-94756498D01*
X122452729Y-94593884D01*
X122643502Y-94515059D01*
X122814459Y-94344400D01*
X122907095Y-94121309D01*
X122907305Y-93879750D01*
X122907305Y-101892892D01*
X122679750Y-101892695D01*
X122456498Y-101984941D01*
X122285541Y-102155600D01*
X122192905Y-102378691D01*
X122192695Y-102620250D01*
X122284941Y-102843502D01*
X122455600Y-103014459D01*
X122678691Y-103107095D01*
X122920250Y-103107305D01*
X123143502Y-103015059D01*
X123314459Y-102844400D01*
X123407095Y-102621309D01*
X123407305Y-102379750D01*
X123407305Y-111373000D01*
X121907305Y-111373000D01*
X121907305Y-102779750D01*
X121815059Y-102556498D01*
X121644400Y-102385541D01*
X121421309Y-102292905D01*
X121179750Y-102292695D01*
X120956498Y-102384941D01*
X120785541Y-102555600D01*
X120692905Y-102778691D01*
X120692695Y-103020250D01*
X120784941Y-103243502D01*
X120955600Y-103414459D01*
X121178691Y-103507095D01*
X121420250Y-103507305D01*
X121643502Y-103415059D01*
X121814459Y-103244400D01*
X121907095Y-103021309D01*
X121907305Y-102779750D01*
X121907305Y-111373000D01*
X120407305Y-111373000D01*
X120407305Y-100579750D01*
X120315059Y-100356498D01*
X120144400Y-100185541D01*
X119921309Y-100092905D01*
X119679750Y-100092695D01*
X119456498Y-100184941D01*
X119307305Y-100333873D01*
X119307305Y-88379750D01*
X119215059Y-88156498D01*
X119044400Y-87985541D01*
X118821309Y-87892905D01*
X118579750Y-87892695D01*
X118557305Y-87901969D01*
X118557305Y-80569750D01*
X118465059Y-80346498D01*
X118294400Y-80175541D01*
X118071309Y-80082905D01*
X117877224Y-80082736D01*
X117877305Y-79989750D01*
X117785059Y-79766498D01*
X117614400Y-79595541D01*
X117391309Y-79502905D01*
X117149750Y-79502695D01*
X116926498Y-79594941D01*
X116755541Y-79765600D01*
X116662905Y-79988691D01*
X116662695Y-80230250D01*
X116754941Y-80453502D01*
X116925600Y-80624459D01*
X117148691Y-80717095D01*
X117342775Y-80717263D01*
X117342695Y-80810250D01*
X117434941Y-81033502D01*
X117605600Y-81204459D01*
X117828691Y-81297095D01*
X118070250Y-81297305D01*
X118293502Y-81205059D01*
X118464459Y-81034400D01*
X118557095Y-80811309D01*
X118557305Y-80569750D01*
X118557305Y-87901969D01*
X118356498Y-87984941D01*
X118185541Y-88155600D01*
X118092905Y-88378691D01*
X118092695Y-88620250D01*
X118184941Y-88843502D01*
X118355600Y-89014459D01*
X118578691Y-89107095D01*
X118820250Y-89107305D01*
X119043502Y-89015059D01*
X119214459Y-88844400D01*
X119307095Y-88621309D01*
X119307305Y-88379750D01*
X119307305Y-100333873D01*
X119285541Y-100355600D01*
X119192905Y-100578691D01*
X119192695Y-100820250D01*
X119284941Y-101043502D01*
X119455600Y-101214459D01*
X119678691Y-101307095D01*
X119920250Y-101307305D01*
X120143502Y-101215059D01*
X120314459Y-101044400D01*
X120407095Y-100821309D01*
X120407305Y-100579750D01*
X120407305Y-111373000D01*
X117407305Y-111373000D01*
X117407305Y-104379750D01*
X117315059Y-104156498D01*
X117144400Y-103985541D01*
X117107305Y-103970137D01*
X117107305Y-93779750D01*
X117015059Y-93556498D01*
X116844400Y-93385541D01*
X116621309Y-93292905D01*
X116379750Y-93292695D01*
X116307305Y-93322628D01*
X116307305Y-78479750D01*
X116215059Y-78256498D01*
X116044400Y-78085541D01*
X115821309Y-77992905D01*
X115579750Y-77992695D01*
X115356498Y-78084941D01*
X115185541Y-78255600D01*
X115092905Y-78478691D01*
X115092695Y-78720250D01*
X115184941Y-78943502D01*
X115355600Y-79114459D01*
X115578691Y-79207095D01*
X115820250Y-79207305D01*
X116043502Y-79115059D01*
X116214459Y-78944400D01*
X116307095Y-78721309D01*
X116307305Y-78479750D01*
X116307305Y-93322628D01*
X116156498Y-93384941D01*
X115985541Y-93555600D01*
X115892905Y-93778691D01*
X115892695Y-94020250D01*
X115984941Y-94243502D01*
X116155600Y-94414459D01*
X116378691Y-94507095D01*
X116620250Y-94507305D01*
X116843502Y-94415059D01*
X117014459Y-94244400D01*
X117107095Y-94021309D01*
X117107305Y-93779750D01*
X117107305Y-103970137D01*
X116921309Y-103892905D01*
X116679750Y-103892695D01*
X116456498Y-103984941D01*
X116407305Y-104034048D01*
X116407305Y-100179750D01*
X116315059Y-99956498D01*
X116144400Y-99785541D01*
X115921309Y-99692905D01*
X115679750Y-99692695D01*
X115627564Y-99714257D01*
X115627564Y-95877191D01*
X115535318Y-95653939D01*
X115364659Y-95482982D01*
X115307305Y-95459166D01*
X115307305Y-84679750D01*
X115215059Y-84456498D01*
X115044400Y-84285541D01*
X114821309Y-84192905D01*
X114579750Y-84192695D01*
X114356498Y-84284941D01*
X114185541Y-84455600D01*
X114092905Y-84678691D01*
X114092695Y-84920250D01*
X114184941Y-85143502D01*
X114355600Y-85314459D01*
X114578691Y-85407095D01*
X114820250Y-85407305D01*
X115043502Y-85315059D01*
X115214459Y-85144400D01*
X115307095Y-84921309D01*
X115307305Y-84679750D01*
X115307305Y-95459166D01*
X115141568Y-95390346D01*
X114900009Y-95390136D01*
X114676757Y-95482382D01*
X114607305Y-95551712D01*
X114607305Y-93179750D01*
X114515059Y-92956498D01*
X114344400Y-92785541D01*
X114121309Y-92692905D01*
X113879750Y-92692695D01*
X113656498Y-92784941D01*
X113485541Y-92955600D01*
X113392905Y-93178691D01*
X113392695Y-93420250D01*
X113484941Y-93643502D01*
X113655600Y-93814459D01*
X113878691Y-93907095D01*
X114120250Y-93907305D01*
X114343502Y-93815059D01*
X114514459Y-93644400D01*
X114607095Y-93421309D01*
X114607305Y-93179750D01*
X114607305Y-95551712D01*
X114505800Y-95653041D01*
X114413164Y-95876132D01*
X114412954Y-96117691D01*
X114505200Y-96340943D01*
X114675859Y-96511900D01*
X114898950Y-96604536D01*
X115140509Y-96604746D01*
X115363761Y-96512500D01*
X115534718Y-96341841D01*
X115627354Y-96118750D01*
X115627564Y-95877191D01*
X115627564Y-99714257D01*
X115456498Y-99784941D01*
X115285541Y-99955600D01*
X115192905Y-100178691D01*
X115192695Y-100420250D01*
X115284941Y-100643502D01*
X115455600Y-100814459D01*
X115678691Y-100907095D01*
X115920250Y-100907305D01*
X116143502Y-100815059D01*
X116314459Y-100644400D01*
X116407095Y-100421309D01*
X116407305Y-100179750D01*
X116407305Y-104034048D01*
X116285541Y-104155600D01*
X116192905Y-104378691D01*
X116192695Y-104620250D01*
X116284941Y-104843502D01*
X116455600Y-105014459D01*
X116678691Y-105107095D01*
X116920250Y-105107305D01*
X117143502Y-105015059D01*
X117314459Y-104844400D01*
X117407095Y-104621309D01*
X117407305Y-104379750D01*
X117407305Y-111373000D01*
X116707305Y-111373000D01*
X116707305Y-107479750D01*
X116615059Y-107256498D01*
X116444400Y-107085541D01*
X116221309Y-106992905D01*
X115979750Y-106992695D01*
X115756498Y-107084941D01*
X115649963Y-107191289D01*
X115544400Y-107085541D01*
X115321309Y-106992905D01*
X115079750Y-106992695D01*
X114856498Y-107084941D01*
X114685541Y-107255600D01*
X114592905Y-107478691D01*
X114592695Y-107720250D01*
X114684941Y-107943502D01*
X114855600Y-108114459D01*
X115061836Y-108200096D01*
X114856498Y-108284941D01*
X114685541Y-108455600D01*
X114592905Y-108678691D01*
X114592695Y-108920250D01*
X114684941Y-109143502D01*
X114855600Y-109314459D01*
X115078691Y-109407095D01*
X115320250Y-109407305D01*
X115543502Y-109315059D01*
X115714459Y-109144400D01*
X115807095Y-108921309D01*
X115807305Y-108679750D01*
X115715059Y-108456498D01*
X115544400Y-108285541D01*
X115338163Y-108199903D01*
X115543502Y-108115059D01*
X115650036Y-108008710D01*
X115755600Y-108114459D01*
X115978691Y-108207095D01*
X116220250Y-108207305D01*
X116443502Y-108115059D01*
X116614459Y-107944400D01*
X116707095Y-107721309D01*
X116707305Y-107479750D01*
X116707305Y-111373000D01*
X114956144Y-111373000D01*
X114956144Y-110035429D01*
X114829898Y-109729891D01*
X114596338Y-109495923D01*
X114525485Y-109466502D01*
X114525485Y-97468341D01*
X114433239Y-97245089D01*
X114262580Y-97074132D01*
X114039489Y-96981496D01*
X113797930Y-96981286D01*
X113574678Y-97073532D01*
X113403721Y-97244191D01*
X113311085Y-97467282D01*
X113310875Y-97708841D01*
X113403121Y-97932093D01*
X113573780Y-98103050D01*
X113796871Y-98195686D01*
X114038430Y-98195896D01*
X114261682Y-98103650D01*
X114432639Y-97932991D01*
X114525275Y-97709900D01*
X114525485Y-97468341D01*
X114525485Y-109466502D01*
X114291021Y-109369145D01*
X114007305Y-109368896D01*
X114007305Y-104379750D01*
X113915059Y-104156498D01*
X113744400Y-103985541D01*
X113521309Y-103892905D01*
X113279750Y-103892695D01*
X113056498Y-103984941D01*
X112885541Y-104155600D01*
X112807305Y-104344012D01*
X112807305Y-100079750D01*
X112715059Y-99856498D01*
X112544400Y-99685541D01*
X112321309Y-99592905D01*
X112079750Y-99592695D01*
X111856498Y-99684941D01*
X111685541Y-99855600D01*
X111592905Y-100078691D01*
X111592695Y-100320250D01*
X111684941Y-100543502D01*
X111855600Y-100714459D01*
X112078691Y-100807095D01*
X112320250Y-100807305D01*
X112543502Y-100715059D01*
X112714459Y-100544400D01*
X112807095Y-100321309D01*
X112807305Y-100079750D01*
X112807305Y-104344012D01*
X112792905Y-104378691D01*
X112792695Y-104620250D01*
X112884941Y-104843502D01*
X113055600Y-105014459D01*
X113278691Y-105107095D01*
X113520250Y-105107305D01*
X113743502Y-105015059D01*
X113914459Y-104844400D01*
X114007095Y-104621309D01*
X114007305Y-104379750D01*
X114007305Y-109368896D01*
X113960429Y-109368856D01*
X113654891Y-109495102D01*
X113420923Y-109728662D01*
X113294145Y-110033979D01*
X113293856Y-110364571D01*
X113420102Y-110670109D01*
X113653662Y-110904077D01*
X113958979Y-111030855D01*
X114289571Y-111031144D01*
X114595109Y-110904898D01*
X114829077Y-110671338D01*
X114955855Y-110366021D01*
X114956144Y-110035429D01*
X114956144Y-111373000D01*
X111433524Y-111373000D01*
X111433524Y-103797930D01*
X111341278Y-103574678D01*
X111170619Y-103403721D01*
X110947528Y-103311085D01*
X110907305Y-103311050D01*
X110907305Y-92979750D01*
X110815059Y-92756498D01*
X110644400Y-92585541D01*
X110421309Y-92492905D01*
X110179750Y-92492695D01*
X110108766Y-92522025D01*
X110108766Y-87781211D01*
X110016520Y-87557959D01*
X109845861Y-87387002D01*
X109622770Y-87294366D01*
X109381211Y-87294156D01*
X109157959Y-87386402D01*
X108987002Y-87557061D01*
X108949939Y-87646317D01*
X108821309Y-87592905D01*
X108579750Y-87592695D01*
X108356498Y-87684941D01*
X108185541Y-87855600D01*
X108092905Y-88078691D01*
X108092695Y-88320250D01*
X108184941Y-88543502D01*
X108355600Y-88714459D01*
X108578691Y-88807095D01*
X108820250Y-88807305D01*
X109043502Y-88715059D01*
X109214459Y-88544400D01*
X109251521Y-88455143D01*
X109380152Y-88508556D01*
X109621711Y-88508766D01*
X109844963Y-88416520D01*
X110015920Y-88245861D01*
X110108556Y-88022770D01*
X110108766Y-87781211D01*
X110108766Y-92522025D01*
X109956498Y-92584941D01*
X109785541Y-92755600D01*
X109692905Y-92978691D01*
X109692805Y-93092793D01*
X109579750Y-93092695D01*
X109356498Y-93184941D01*
X109185541Y-93355600D01*
X109092905Y-93578691D01*
X109092695Y-93820250D01*
X109184941Y-94043502D01*
X109355600Y-94214459D01*
X109578691Y-94307095D01*
X109820250Y-94307305D01*
X110043502Y-94215059D01*
X110214459Y-94044400D01*
X110307095Y-93821309D01*
X110307194Y-93707206D01*
X110420250Y-93707305D01*
X110643502Y-93615059D01*
X110814459Y-93444400D01*
X110907095Y-93221309D01*
X110907305Y-92979750D01*
X110907305Y-103311050D01*
X110705969Y-103310875D01*
X110482717Y-103403121D01*
X110311760Y-103573780D01*
X110219124Y-103796871D01*
X110218914Y-104038430D01*
X110311160Y-104261682D01*
X110481819Y-104432639D01*
X110704910Y-104525275D01*
X110946469Y-104525485D01*
X111169721Y-104433239D01*
X111340678Y-104262580D01*
X111433314Y-104039489D01*
X111433524Y-103797930D01*
X111433524Y-111373000D01*
X110706144Y-111373000D01*
X110706144Y-110035429D01*
X110579898Y-109729891D01*
X110346338Y-109495923D01*
X110295373Y-109474760D01*
X110295373Y-104283401D01*
X110203127Y-104060149D01*
X110032468Y-103889192D01*
X109809377Y-103796556D01*
X109707305Y-103796467D01*
X109707305Y-95479750D01*
X109615059Y-95256498D01*
X109444400Y-95085541D01*
X109221309Y-94992905D01*
X108979750Y-94992695D01*
X108756498Y-95084941D01*
X108585541Y-95255600D01*
X108492905Y-95478691D01*
X108492695Y-95720250D01*
X108584941Y-95943502D01*
X108755600Y-96114459D01*
X108978691Y-96207095D01*
X109220250Y-96207305D01*
X109443502Y-96115059D01*
X109614459Y-95944400D01*
X109707095Y-95721309D01*
X109707305Y-95479750D01*
X109707305Y-103796467D01*
X109567818Y-103796346D01*
X109344566Y-103888592D01*
X109173609Y-104059251D01*
X109107305Y-104218927D01*
X109107305Y-99079750D01*
X109015059Y-98856498D01*
X108844400Y-98685541D01*
X108621309Y-98592905D01*
X108407305Y-98592718D01*
X108407305Y-94179750D01*
X108315059Y-93956498D01*
X108144400Y-93785541D01*
X107921309Y-93692905D01*
X107679750Y-93692695D01*
X107456498Y-93784941D01*
X107285541Y-93955600D01*
X107192905Y-94178691D01*
X107192695Y-94420250D01*
X107195665Y-94427438D01*
X107056498Y-94484941D01*
X106885541Y-94655600D01*
X106792905Y-94878691D01*
X106792695Y-95120250D01*
X106884941Y-95343502D01*
X107055600Y-95514459D01*
X107278691Y-95607095D01*
X107520250Y-95607305D01*
X107743502Y-95515059D01*
X107914459Y-95344400D01*
X108007095Y-95121309D01*
X108007305Y-94879750D01*
X108004334Y-94872561D01*
X108143502Y-94815059D01*
X108314459Y-94644400D01*
X108407095Y-94421309D01*
X108407305Y-94179750D01*
X108407305Y-98592718D01*
X108379750Y-98592695D01*
X108156498Y-98684941D01*
X107985541Y-98855600D01*
X107892905Y-99078691D01*
X107892695Y-99320250D01*
X107984941Y-99543502D01*
X108155600Y-99714459D01*
X108378691Y-99807095D01*
X108620250Y-99807305D01*
X108843502Y-99715059D01*
X109014459Y-99544400D01*
X109107095Y-99321309D01*
X109107305Y-99079750D01*
X109107305Y-104218927D01*
X109080973Y-104282342D01*
X109080763Y-104523901D01*
X109173009Y-104747153D01*
X109343668Y-104918110D01*
X109566759Y-105010746D01*
X109808318Y-105010956D01*
X110031570Y-104918710D01*
X110202527Y-104748051D01*
X110295163Y-104524960D01*
X110295373Y-104283401D01*
X110295373Y-109474760D01*
X110041021Y-109369145D01*
X109907305Y-109369028D01*
X109907305Y-107379750D01*
X109815059Y-107156498D01*
X109644400Y-106985541D01*
X109421309Y-106892905D01*
X109179750Y-106892695D01*
X108956498Y-106984941D01*
X108785541Y-107155600D01*
X108692905Y-107378691D01*
X108692718Y-107592706D01*
X108679750Y-107592695D01*
X108456498Y-107684941D01*
X108285541Y-107855600D01*
X108192905Y-108078691D01*
X108192695Y-108320250D01*
X108284941Y-108543502D01*
X108455600Y-108714459D01*
X108678691Y-108807095D01*
X108920250Y-108807305D01*
X109143502Y-108715059D01*
X109314459Y-108544400D01*
X109407095Y-108321309D01*
X109407281Y-108107293D01*
X109420250Y-108107305D01*
X109643502Y-108015059D01*
X109814459Y-107844400D01*
X109907095Y-107621309D01*
X109907305Y-107379750D01*
X109907305Y-109369028D01*
X109710429Y-109368856D01*
X109404891Y-109495102D01*
X109170923Y-109728662D01*
X109044145Y-110033979D01*
X109043856Y-110364571D01*
X109170102Y-110670109D01*
X109403662Y-110904077D01*
X109708979Y-111030855D01*
X110039571Y-111031144D01*
X110345109Y-110904898D01*
X110579077Y-110671338D01*
X110705855Y-110366021D01*
X110706144Y-110035429D01*
X110706144Y-111373000D01*
X107907305Y-111373000D01*
X107907305Y-107359970D01*
X107815059Y-107136718D01*
X107644400Y-106965761D01*
X107421309Y-106873125D01*
X107179750Y-106872915D01*
X106956498Y-106965161D01*
X106785541Y-107135820D01*
X106767305Y-107179736D01*
X106767305Y-79839750D01*
X106675059Y-79616498D01*
X106504400Y-79445541D01*
X106281309Y-79352905D01*
X106039750Y-79352695D01*
X105816498Y-79444941D01*
X105645541Y-79615600D01*
X105552905Y-79838691D01*
X105552695Y-80080250D01*
X105644941Y-80303502D01*
X105815600Y-80474459D01*
X106038691Y-80567095D01*
X106280250Y-80567305D01*
X106503502Y-80475059D01*
X106674459Y-80304400D01*
X106767095Y-80081309D01*
X106767305Y-79839750D01*
X106767305Y-107179736D01*
X106692905Y-107358911D01*
X106692695Y-107600470D01*
X106784941Y-107823722D01*
X106955600Y-107994679D01*
X107178691Y-108087315D01*
X107420250Y-108087525D01*
X107643502Y-107995279D01*
X107814459Y-107824620D01*
X107907095Y-107601529D01*
X107907305Y-107359970D01*
X107907305Y-111373000D01*
X106907305Y-111373000D01*
X106907305Y-110079750D01*
X106815059Y-109856498D01*
X106644400Y-109685541D01*
X106618714Y-109674875D01*
X106618714Y-103291159D01*
X106526468Y-103067907D01*
X106355809Y-102896950D01*
X106132718Y-102804314D01*
X105891159Y-102804104D01*
X105667907Y-102896350D01*
X105496950Y-103067009D01*
X105404314Y-103290100D01*
X105404104Y-103531659D01*
X105496350Y-103754911D01*
X105541299Y-103799938D01*
X105485541Y-103855600D01*
X105392905Y-104078691D01*
X105392695Y-104320250D01*
X105484941Y-104543502D01*
X105655600Y-104714459D01*
X105878691Y-104807095D01*
X106120250Y-104807305D01*
X106343502Y-104715059D01*
X106514459Y-104544400D01*
X106607095Y-104321309D01*
X106607305Y-104079750D01*
X106515059Y-103856498D01*
X106470109Y-103811470D01*
X106525868Y-103755809D01*
X106618504Y-103532718D01*
X106618714Y-103291159D01*
X106618714Y-109674875D01*
X106421309Y-109592905D01*
X106179750Y-109592695D01*
X105956498Y-109684941D01*
X105785541Y-109855600D01*
X105692905Y-110078691D01*
X105692695Y-110320250D01*
X105784941Y-110543502D01*
X105955600Y-110714459D01*
X106178691Y-110807095D01*
X106420250Y-110807305D01*
X106643502Y-110715059D01*
X106814459Y-110544400D01*
X106907095Y-110321309D01*
X106907305Y-110079750D01*
X106907305Y-111373000D01*
X105307305Y-111373000D01*
X105307305Y-91379750D01*
X105215059Y-91156498D01*
X105044400Y-90985541D01*
X104821309Y-90892905D01*
X104579750Y-90892695D01*
X104356498Y-90984941D01*
X104185541Y-91155600D01*
X104092905Y-91378691D01*
X104092695Y-91620250D01*
X104184941Y-91843502D01*
X104355600Y-92014459D01*
X104578691Y-92107095D01*
X104820250Y-92107305D01*
X105043502Y-92015059D01*
X105214459Y-91844400D01*
X105307095Y-91621309D01*
X105307305Y-91379750D01*
X105307305Y-111373000D01*
X104907305Y-111373000D01*
X104907305Y-96279750D01*
X104815059Y-96056498D01*
X104644400Y-95885541D01*
X104421309Y-95792905D01*
X104179750Y-95792695D01*
X103956498Y-95884941D01*
X103785541Y-96055600D01*
X103692905Y-96278691D01*
X103692695Y-96520250D01*
X103784941Y-96743502D01*
X103955600Y-96914459D01*
X104178691Y-97007095D01*
X104420250Y-97007305D01*
X104643502Y-96915059D01*
X104814459Y-96744400D01*
X104907095Y-96521309D01*
X104907305Y-96279750D01*
X104907305Y-111373000D01*
X103147305Y-111373000D01*
X103147305Y-80749750D01*
X103055059Y-80526498D01*
X102884400Y-80355541D01*
X102661309Y-80262905D01*
X102419750Y-80262695D01*
X102196498Y-80354941D01*
X102025541Y-80525600D01*
X101932905Y-80748691D01*
X101932695Y-80990250D01*
X102024941Y-81213502D01*
X102195600Y-81384459D01*
X102418691Y-81477095D01*
X102660250Y-81477305D01*
X102883502Y-81385059D01*
X103054459Y-81214400D01*
X103147095Y-80991309D01*
X103147305Y-80749750D01*
X103147305Y-111373000D01*
X102956144Y-111373000D01*
X102956144Y-110135429D01*
X102829898Y-109829891D01*
X102596338Y-109595923D01*
X102291021Y-109469145D01*
X101960429Y-109468856D01*
X101751890Y-109555022D01*
X101751890Y-100475120D01*
X101659644Y-100251868D01*
X101507305Y-100099262D01*
X101507305Y-93179750D01*
X101415059Y-92956498D01*
X101258710Y-92799876D01*
X101414459Y-92644400D01*
X101507095Y-92421309D01*
X101507305Y-92179750D01*
X101415059Y-91956498D01*
X101244400Y-91785541D01*
X101021309Y-91692905D01*
X100779750Y-91692695D01*
X100675433Y-91735797D01*
X100675433Y-87438160D01*
X100657514Y-86671761D01*
X100398698Y-86046922D01*
X100137898Y-85876050D01*
X99963950Y-86049998D01*
X99963950Y-85702102D01*
X99793078Y-85441302D01*
X99078160Y-85164567D01*
X98311761Y-85182486D01*
X97686922Y-85441302D01*
X97516050Y-85702102D01*
X98740000Y-86926052D01*
X99963950Y-85702102D01*
X99963950Y-86049998D01*
X98913948Y-87100000D01*
X100137898Y-88323950D01*
X100398698Y-88153078D01*
X100675433Y-87438160D01*
X100675433Y-91735797D01*
X100556498Y-91784941D01*
X100385541Y-91955600D01*
X100292905Y-92178691D01*
X100292695Y-92420250D01*
X100384941Y-92643502D01*
X100541289Y-92800123D01*
X100385541Y-92955600D01*
X100292905Y-93178691D01*
X100292695Y-93420250D01*
X100384941Y-93643502D01*
X100555600Y-93814459D01*
X100778691Y-93907095D01*
X101020250Y-93907305D01*
X101243502Y-93815059D01*
X101414459Y-93644400D01*
X101507095Y-93421309D01*
X101507305Y-93179750D01*
X101507305Y-100099262D01*
X101488985Y-100080911D01*
X101265894Y-99988275D01*
X101069437Y-99988104D01*
X101015059Y-99856498D01*
X100844400Y-99685541D01*
X100621309Y-99592905D01*
X100379750Y-99592695D01*
X100207305Y-99663947D01*
X100207305Y-94679750D01*
X100115059Y-94456498D01*
X99963950Y-94305125D01*
X99963950Y-88497898D01*
X98740000Y-87273948D01*
X98566052Y-87447896D01*
X98566052Y-87100000D01*
X97342102Y-85876050D01*
X97081302Y-86046922D01*
X96804567Y-86761840D01*
X96822486Y-87528239D01*
X97081302Y-88153078D01*
X97342102Y-88323950D01*
X98566052Y-87100000D01*
X98566052Y-87447896D01*
X97516050Y-88497898D01*
X97686922Y-88758698D01*
X98401840Y-89035433D01*
X99168239Y-89017514D01*
X99793078Y-88758698D01*
X99963950Y-88497898D01*
X99963950Y-94305125D01*
X99944400Y-94285541D01*
X99721309Y-94192905D01*
X99607293Y-94192805D01*
X99607305Y-94179750D01*
X99515059Y-93956498D01*
X99344400Y-93785541D01*
X99121309Y-93692905D01*
X98879750Y-93692695D01*
X98656498Y-93784941D01*
X98485541Y-93955600D01*
X98392905Y-94178691D01*
X98392695Y-94420250D01*
X98484941Y-94643502D01*
X98605798Y-94764570D01*
X98556498Y-94784941D01*
X98385541Y-94955600D01*
X98292905Y-95178691D01*
X98292695Y-95420250D01*
X98384941Y-95643502D01*
X98555600Y-95814459D01*
X98778691Y-95907095D01*
X99020250Y-95907305D01*
X99243502Y-95815059D01*
X99414459Y-95644400D01*
X99507095Y-95421309D01*
X99507107Y-95407119D01*
X99720250Y-95407305D01*
X99943502Y-95315059D01*
X100114459Y-95144400D01*
X100207095Y-94921309D01*
X100207305Y-94679750D01*
X100207305Y-99663947D01*
X100156498Y-99684941D01*
X99985541Y-99855600D01*
X99892905Y-100078691D01*
X99892695Y-100320250D01*
X99984941Y-100543502D01*
X100155600Y-100714459D01*
X100378691Y-100807095D01*
X100575147Y-100807265D01*
X100629526Y-100938872D01*
X100800185Y-101109829D01*
X101023276Y-101202465D01*
X101264835Y-101202675D01*
X101488087Y-101110429D01*
X101659044Y-100939770D01*
X101751680Y-100716679D01*
X101751890Y-100475120D01*
X101751890Y-109555022D01*
X101654891Y-109595102D01*
X101619884Y-109630047D01*
X101619884Y-103323292D01*
X101527638Y-103100040D01*
X101356979Y-102929083D01*
X101133888Y-102836447D01*
X100892329Y-102836237D01*
X100669077Y-102928483D01*
X100498120Y-103099142D01*
X100405484Y-103322233D01*
X100405274Y-103563792D01*
X100497520Y-103787044D01*
X100668179Y-103958001D01*
X100891270Y-104050637D01*
X101132829Y-104050847D01*
X101356081Y-103958601D01*
X101527038Y-103787942D01*
X101619674Y-103564851D01*
X101619884Y-103323292D01*
X101619884Y-109630047D01*
X101455906Y-109793740D01*
X101455906Y-106643583D01*
X101363660Y-106420331D01*
X101193001Y-106249374D01*
X100969910Y-106156738D01*
X100728351Y-106156528D01*
X100505099Y-106248774D01*
X100334142Y-106419433D01*
X100286731Y-106533609D01*
X100130915Y-106533474D01*
X99907663Y-106625720D01*
X99736706Y-106796379D01*
X99644070Y-107019470D01*
X99643860Y-107261029D01*
X99736106Y-107484281D01*
X99906765Y-107655238D01*
X100129856Y-107747874D01*
X100371415Y-107748084D01*
X100594667Y-107655838D01*
X100765624Y-107485179D01*
X100813034Y-107371002D01*
X100968851Y-107371138D01*
X101192103Y-107278892D01*
X101363060Y-107108233D01*
X101455696Y-106885142D01*
X101455906Y-106643583D01*
X101455906Y-109793740D01*
X101420923Y-109828662D01*
X101294145Y-110133979D01*
X101293856Y-110464571D01*
X101420102Y-110770109D01*
X101653662Y-111004077D01*
X101958979Y-111130855D01*
X102289571Y-111131144D01*
X102595109Y-111004898D01*
X102829077Y-110771338D01*
X102955855Y-110466021D01*
X102956144Y-110135429D01*
X102956144Y-111373000D01*
X99607305Y-111373000D01*
X99607305Y-97079750D01*
X99515059Y-96856498D01*
X99344400Y-96685541D01*
X99121309Y-96592905D01*
X98879750Y-96592695D01*
X98656498Y-96684941D01*
X98485541Y-96855600D01*
X98428560Y-96992824D01*
X98279750Y-96992695D01*
X98056498Y-97084941D01*
X97899964Y-97241202D01*
X97844400Y-97185541D01*
X97621309Y-97092905D01*
X97379750Y-97092695D01*
X97156498Y-97184941D01*
X97107305Y-97234048D01*
X97107305Y-95379750D01*
X97015059Y-95156498D01*
X96844400Y-94985541D01*
X96621309Y-94892905D01*
X96379750Y-94892695D01*
X96156498Y-94984941D01*
X95985541Y-95155600D01*
X95892905Y-95378691D01*
X95892695Y-95620250D01*
X95984941Y-95843502D01*
X96155600Y-96014459D01*
X96378691Y-96107095D01*
X96620250Y-96107305D01*
X96843502Y-96015059D01*
X97014459Y-95844400D01*
X97107095Y-95621309D01*
X97107305Y-95379750D01*
X97107305Y-97234048D01*
X96985541Y-97355600D01*
X96892905Y-97578691D01*
X96892695Y-97820250D01*
X96984941Y-98043502D01*
X97155600Y-98214459D01*
X97378691Y-98307095D01*
X97620250Y-98307305D01*
X97843502Y-98215059D01*
X98000035Y-98058797D01*
X98055600Y-98114459D01*
X98278691Y-98207095D01*
X98520250Y-98207305D01*
X98743502Y-98115059D01*
X98914459Y-97944400D01*
X98971439Y-97807175D01*
X99120250Y-97807305D01*
X99343502Y-97715059D01*
X99514459Y-97544400D01*
X99607095Y-97321309D01*
X99607305Y-97079750D01*
X99607305Y-111373000D01*
X98706144Y-111373000D01*
X98706144Y-110135429D01*
X98607305Y-109896220D01*
X98607305Y-105779750D01*
X98515059Y-105556498D01*
X98344400Y-105385541D01*
X98121309Y-105292905D01*
X97879750Y-105292695D01*
X97656498Y-105384941D01*
X97485541Y-105555600D01*
X97392905Y-105778691D01*
X97392695Y-106020250D01*
X97484941Y-106243502D01*
X97655600Y-106414459D01*
X97878691Y-106507095D01*
X98120250Y-106507305D01*
X98343502Y-106415059D01*
X98514459Y-106244400D01*
X98607095Y-106021309D01*
X98607305Y-105779750D01*
X98607305Y-109896220D01*
X98579898Y-109829891D01*
X98346338Y-109595923D01*
X98041021Y-109469145D01*
X97710429Y-109468856D01*
X97404891Y-109595102D01*
X97170923Y-109828662D01*
X97044145Y-110133979D01*
X97043856Y-110464571D01*
X97170102Y-110770109D01*
X97403662Y-111004077D01*
X97708979Y-111130855D01*
X98039571Y-111131144D01*
X98345109Y-111004898D01*
X98579077Y-110771338D01*
X98705855Y-110466021D01*
X98706144Y-110135429D01*
X98706144Y-111373000D01*
X96737507Y-111373000D01*
X96737507Y-103179750D01*
X96645261Y-102956498D01*
X96474602Y-102785541D01*
X96251511Y-102692905D01*
X96009952Y-102692695D01*
X95786700Y-102784941D01*
X95615743Y-102955600D01*
X95541326Y-103134815D01*
X95541326Y-86727487D01*
X95255564Y-86035891D01*
X94726892Y-85506296D01*
X94035796Y-85219327D01*
X93287487Y-85218674D01*
X92595891Y-85504436D01*
X92066296Y-86033108D01*
X91779327Y-86724204D01*
X91778674Y-87472513D01*
X92064436Y-88164109D01*
X92593108Y-88693704D01*
X93284204Y-88980673D01*
X94032513Y-88981326D01*
X94724109Y-88695564D01*
X95253704Y-88166892D01*
X95540673Y-87475796D01*
X95541326Y-86727487D01*
X95541326Y-103134815D01*
X95523107Y-103178691D01*
X95522897Y-103420250D01*
X95615143Y-103643502D01*
X95785802Y-103814459D01*
X96008893Y-103907095D01*
X96250452Y-103907305D01*
X96473704Y-103815059D01*
X96644661Y-103644400D01*
X96737297Y-103421309D01*
X96737507Y-103179750D01*
X96737507Y-111373000D01*
X93407305Y-111373000D01*
X93407305Y-109279750D01*
X93315059Y-109056498D01*
X93144400Y-108885541D01*
X92921309Y-108792905D01*
X92679750Y-108792695D01*
X92456498Y-108884941D01*
X92349963Y-108991289D01*
X92244400Y-108885541D01*
X92021309Y-108792905D01*
X91779750Y-108792695D01*
X91556498Y-108884941D01*
X91385541Y-109055600D01*
X91292905Y-109278691D01*
X91292695Y-109520250D01*
X91384941Y-109743502D01*
X91555600Y-109914459D01*
X91778691Y-110007095D01*
X92020250Y-110007305D01*
X92243502Y-109915059D01*
X92350036Y-109808710D01*
X92455600Y-109914459D01*
X92678691Y-110007095D01*
X92920250Y-110007305D01*
X93143502Y-109915059D01*
X93314459Y-109744400D01*
X93407095Y-109521309D01*
X93407305Y-109279750D01*
X93407305Y-111373000D01*
X91240329Y-111373000D01*
X91240329Y-90523118D01*
X91148083Y-90299866D01*
X91007305Y-90158842D01*
X91007305Y-85479750D01*
X90915059Y-85256498D01*
X90744400Y-85085541D01*
X90521309Y-84992905D01*
X90279750Y-84992695D01*
X90056498Y-85084941D01*
X89885541Y-85255600D01*
X89792905Y-85478691D01*
X89792695Y-85720250D01*
X89884941Y-85943502D01*
X90055600Y-86114459D01*
X90278691Y-86207095D01*
X90520250Y-86207305D01*
X90743502Y-86115059D01*
X90914459Y-85944400D01*
X91007095Y-85721309D01*
X91007305Y-85479750D01*
X91007305Y-90158842D01*
X90977424Y-90128909D01*
X90754333Y-90036273D01*
X90512774Y-90036063D01*
X90289522Y-90128309D01*
X90118565Y-90298968D01*
X90025929Y-90522059D01*
X90025719Y-90763618D01*
X90114459Y-90978386D01*
X89988395Y-91030475D01*
X89817438Y-91201134D01*
X89724802Y-91424225D01*
X89724592Y-91665784D01*
X89816838Y-91889036D01*
X89987497Y-92059993D01*
X90210588Y-92152629D01*
X90452147Y-92152839D01*
X90675399Y-92060593D01*
X90846356Y-91889934D01*
X90938992Y-91666843D01*
X90939202Y-91425284D01*
X90850461Y-91210515D01*
X90976526Y-91158427D01*
X91147483Y-90987768D01*
X91240119Y-90764677D01*
X91240329Y-90523118D01*
X91240329Y-111373000D01*
X90807305Y-111373000D01*
X90807305Y-92697930D01*
X90715059Y-92474678D01*
X90544400Y-92303721D01*
X90321309Y-92211085D01*
X90079750Y-92210875D01*
X89856498Y-92303121D01*
X89685541Y-92473780D01*
X89592905Y-92696871D01*
X89592695Y-92938430D01*
X89684941Y-93161682D01*
X89855600Y-93332639D01*
X90078691Y-93425275D01*
X90320250Y-93425485D01*
X90543502Y-93333239D01*
X90714459Y-93162580D01*
X90807095Y-92939489D01*
X90807305Y-92697930D01*
X90807305Y-111373000D01*
X90781153Y-111373000D01*
X90781153Y-108325527D01*
X90781153Y-106525527D01*
X90647311Y-106201605D01*
X90399698Y-105953560D01*
X90076011Y-105819153D01*
X89725527Y-105818847D01*
X89401605Y-105952689D01*
X89153560Y-106200302D01*
X89019153Y-106523989D01*
X89018847Y-106874473D01*
X89152689Y-107198395D01*
X89400302Y-107446440D01*
X89723989Y-107580847D01*
X90074473Y-107581153D01*
X90398395Y-107447311D01*
X90646440Y-107199698D01*
X90780847Y-106876011D01*
X90781153Y-106525527D01*
X90781153Y-108325527D01*
X90647311Y-108001605D01*
X90399698Y-107753560D01*
X90076011Y-107619153D01*
X89725527Y-107618847D01*
X89401605Y-107752689D01*
X89153560Y-108000302D01*
X89019153Y-108323989D01*
X89018847Y-108674473D01*
X89152689Y-108998395D01*
X89400302Y-109246440D01*
X89723989Y-109380847D01*
X90074473Y-109381153D01*
X90398395Y-109247311D01*
X90646440Y-108999698D01*
X90780847Y-108676011D01*
X90781153Y-108325527D01*
X90781153Y-111373000D01*
X88331282Y-111373000D01*
X88331282Y-109276997D01*
X88331282Y-79076997D01*
X88083501Y-78477320D01*
X87625093Y-78018112D01*
X87025849Y-77769284D01*
X86376997Y-77768718D01*
X85777320Y-78016499D01*
X85318112Y-78474907D01*
X85069284Y-79074151D01*
X85068718Y-79723003D01*
X85316499Y-80322680D01*
X85774907Y-80781888D01*
X86374151Y-81030716D01*
X87023003Y-81031282D01*
X87622680Y-80783501D01*
X88081888Y-80325093D01*
X88330716Y-79725849D01*
X88331282Y-79076997D01*
X88331282Y-109276997D01*
X88083501Y-108677320D01*
X87625093Y-108218112D01*
X87025849Y-107969284D01*
X86376997Y-107968718D01*
X85777320Y-108216499D01*
X85318112Y-108674907D01*
X85069284Y-109274151D01*
X85068718Y-109923003D01*
X85316499Y-110522680D01*
X85774907Y-110981888D01*
X86374151Y-111230716D01*
X87023003Y-111231282D01*
X87622680Y-110983501D01*
X88081888Y-110525093D01*
X88330716Y-109925849D01*
X88331282Y-109276997D01*
X88331282Y-111373000D01*
X85352605Y-111373000D01*
X84927000Y-110947395D01*
X84927000Y-78052605D01*
X85352605Y-77627000D01*
X133247395Y-77627000D01*
X133673000Y-78052605D01*
X133673000Y-110947395D01*
X133673000Y-110947395D01*
G37*
X133673000Y-110947395D02*
X133531282Y-111089113D01*
X133531282Y-109276997D01*
X133531282Y-79076997D01*
X133283501Y-78477320D01*
X132825093Y-78018112D01*
X132225849Y-77769284D01*
X131576997Y-77768718D01*
X130977320Y-78016499D01*
X130518112Y-78474907D01*
X130269284Y-79074151D01*
X130268718Y-79723003D01*
X130516499Y-80322680D01*
X130974907Y-80781888D01*
X131574151Y-81030716D01*
X132223003Y-81031282D01*
X132822680Y-80783501D01*
X133281888Y-80325093D01*
X133530716Y-79725849D01*
X133531282Y-79076997D01*
X133531282Y-109276997D01*
X133283501Y-108677320D01*
X132825093Y-108218112D01*
X132225849Y-107969284D01*
X131576997Y-107968718D01*
X130977320Y-108216499D01*
X130518112Y-108674907D01*
X130269284Y-109274151D01*
X130268718Y-109923003D01*
X130516499Y-110522680D01*
X130974907Y-110981888D01*
X131574151Y-111230716D01*
X132223003Y-111231282D01*
X132822680Y-110983501D01*
X133281888Y-110525093D01*
X133530716Y-109925849D01*
X133531282Y-109276997D01*
X133531282Y-111089113D01*
X133247395Y-111373000D01*
X129681153Y-111373000D01*
X129681153Y-106325527D01*
X129547311Y-106001605D01*
X129481153Y-105935331D01*
X129481153Y-94625527D01*
X129347311Y-94301605D01*
X129099698Y-94053560D01*
X128970794Y-94000034D01*
X129098395Y-93947311D01*
X129346440Y-93699698D01*
X129480847Y-93376011D01*
X129481153Y-93025527D01*
X129347311Y-92701605D01*
X129099698Y-92453560D01*
X128776011Y-92319153D01*
X128425527Y-92318847D01*
X128101605Y-92452689D01*
X127853560Y-92700302D01*
X127719153Y-93023989D01*
X127718847Y-93374473D01*
X127852689Y-93698395D01*
X128100302Y-93946440D01*
X128229205Y-93999965D01*
X128101605Y-94052689D01*
X127853560Y-94300302D01*
X127719153Y-94623989D01*
X127718847Y-94974473D01*
X127852689Y-95298395D01*
X128100302Y-95546440D01*
X128423989Y-95680847D01*
X128774473Y-95681153D01*
X129098395Y-95547311D01*
X129346440Y-95299698D01*
X129480847Y-94976011D01*
X129481153Y-94625527D01*
X129481153Y-105935331D01*
X129299698Y-105753560D01*
X128976011Y-105619153D01*
X128625527Y-105618847D01*
X128301605Y-105752689D01*
X128053560Y-106000302D01*
X127919153Y-106323989D01*
X127918847Y-106674473D01*
X128052689Y-106998395D01*
X128300302Y-107246440D01*
X128623989Y-107380847D01*
X128974473Y-107381153D01*
X129298395Y-107247311D01*
X129546440Y-106999698D01*
X129680847Y-106676011D01*
X129681153Y-106325527D01*
X129681153Y-111373000D01*
X129181153Y-111373000D01*
X129181153Y-108325527D01*
X129047311Y-108001605D01*
X128799698Y-107753560D01*
X128476011Y-107619153D01*
X128125527Y-107618847D01*
X127801605Y-107752689D01*
X127553560Y-108000302D01*
X127419153Y-108323989D01*
X127418847Y-108674473D01*
X127552689Y-108998395D01*
X127800302Y-109246440D01*
X128123989Y-109380847D01*
X128474473Y-109381153D01*
X128798395Y-109247311D01*
X129046440Y-108999698D01*
X129180847Y-108676011D01*
X129181153Y-108325527D01*
X129181153Y-111373000D01*
X126924600Y-111373000D01*
X126924600Y-79979769D01*
X126924600Y-79620231D01*
X126829860Y-79143943D01*
X126560065Y-78740166D01*
X126156288Y-78470371D01*
X125680000Y-78375631D01*
X125203712Y-78470371D01*
X124799935Y-78740166D01*
X124530140Y-79143943D01*
X124435400Y-79620231D01*
X124435400Y-79979769D01*
X124530140Y-80456057D01*
X124799935Y-80859834D01*
X125203712Y-81129629D01*
X125680000Y-81224369D01*
X126156288Y-81129629D01*
X126560065Y-80859834D01*
X126829860Y-80456057D01*
X126924600Y-79979769D01*
X126924600Y-111373000D01*
X124607305Y-111373000D01*
X124607305Y-100679750D01*
X124515059Y-100456498D01*
X124384600Y-100325811D01*
X124384600Y-79979769D01*
X124384600Y-79620231D01*
X124289860Y-79143943D01*
X124020065Y-78740166D01*
X123616288Y-78470371D01*
X123140000Y-78375631D01*
X122663712Y-78470371D01*
X122259935Y-78740166D01*
X121990140Y-79143943D01*
X121895400Y-79620231D01*
X121895400Y-79979769D01*
X121990140Y-80456057D01*
X122259935Y-80859834D01*
X122663712Y-81129629D01*
X123140000Y-81224369D01*
X123616288Y-81129629D01*
X124020065Y-80859834D01*
X124289860Y-80456057D01*
X124384600Y-79979769D01*
X124384600Y-100325811D01*
X124344400Y-100285541D01*
X124121309Y-100192905D01*
X123879750Y-100192695D01*
X123656498Y-100284941D01*
X123485541Y-100455600D01*
X123407305Y-100644012D01*
X123407305Y-86579750D01*
X123315059Y-86356498D01*
X123144400Y-86185541D01*
X122921309Y-86092905D01*
X122679750Y-86092695D01*
X122456498Y-86184941D01*
X122285541Y-86355600D01*
X122192905Y-86578691D01*
X122192695Y-86820250D01*
X122284941Y-87043502D01*
X122455600Y-87214459D01*
X122678691Y-87307095D01*
X122920250Y-87307305D01*
X123143502Y-87215059D01*
X123314459Y-87044400D01*
X123407095Y-86821309D01*
X123407305Y-86579750D01*
X123407305Y-100644012D01*
X123392905Y-100678691D01*
X123392695Y-100920250D01*
X123484941Y-101143502D01*
X123655600Y-101314459D01*
X123878691Y-101407095D01*
X124120250Y-101407305D01*
X124343502Y-101315059D01*
X124514459Y-101144400D01*
X124607095Y-100921309D01*
X124607305Y-100679750D01*
X124607305Y-111373000D01*
X123407305Y-111373000D01*
X123407305Y-102379750D01*
X123315059Y-102156498D01*
X123144400Y-101985541D01*
X122921309Y-101892905D01*
X122907305Y-101892892D01*
X122907305Y-93879750D01*
X122815059Y-93656498D01*
X122644400Y-93485541D01*
X122421309Y-93392905D01*
X122207305Y-93392718D01*
X122207305Y-88179750D01*
X122115059Y-87956498D01*
X121944400Y-87785541D01*
X121907305Y-87770137D01*
X121907305Y-82479750D01*
X121852064Y-82346056D01*
X121852064Y-80816000D01*
X121852064Y-78784000D01*
X121823878Y-78638726D01*
X121740004Y-78511044D01*
X121613384Y-78425574D01*
X121463600Y-78395536D01*
X119736400Y-78395536D01*
X119591126Y-78423722D01*
X119463444Y-78507596D01*
X119377974Y-78634216D01*
X119347936Y-78784000D01*
X119347936Y-80816000D01*
X119376122Y-80961274D01*
X119459996Y-81088956D01*
X119488322Y-81108076D01*
X119326498Y-81174941D01*
X119155541Y-81345600D01*
X119062905Y-81568691D01*
X119062695Y-81810250D01*
X119154941Y-82033502D01*
X119325600Y-82204459D01*
X119548691Y-82297095D01*
X119790250Y-82297305D01*
X120013502Y-82205059D01*
X120184459Y-82034400D01*
X120277095Y-81811309D01*
X120277305Y-81569750D01*
X120185059Y-81346498D01*
X120043272Y-81204464D01*
X121463600Y-81204464D01*
X121608874Y-81176278D01*
X121736556Y-81092404D01*
X121822026Y-80965784D01*
X121852064Y-80816000D01*
X121852064Y-82346056D01*
X121815059Y-82256498D01*
X121644400Y-82085541D01*
X121421309Y-81992905D01*
X121179750Y-81992695D01*
X120956498Y-82084941D01*
X120785541Y-82255600D01*
X120692905Y-82478691D01*
X120692695Y-82720250D01*
X120784941Y-82943502D01*
X120955600Y-83114459D01*
X121178691Y-83207095D01*
X121420250Y-83207305D01*
X121643502Y-83115059D01*
X121814459Y-82944400D01*
X121907095Y-82721309D01*
X121907305Y-82479750D01*
X121907305Y-87770137D01*
X121721309Y-87692905D01*
X121479750Y-87692695D01*
X121256498Y-87784941D01*
X121085541Y-87955600D01*
X120992905Y-88178691D01*
X120992695Y-88420250D01*
X121084941Y-88643502D01*
X121255600Y-88814459D01*
X121478691Y-88907095D01*
X121720250Y-88907305D01*
X121943502Y-88815059D01*
X122114459Y-88644400D01*
X122207095Y-88421309D01*
X122207305Y-88179750D01*
X122207305Y-93392718D01*
X122179750Y-93392695D01*
X121956498Y-93484941D01*
X121785541Y-93655600D01*
X121692905Y-93878691D01*
X121692695Y-94120250D01*
X121784941Y-94343502D01*
X121947270Y-94506115D01*
X121756498Y-94584941D01*
X121585541Y-94755600D01*
X121492905Y-94978691D01*
X121492695Y-95220250D01*
X121584941Y-95443502D01*
X121755600Y-95614459D01*
X121978691Y-95707095D01*
X122220250Y-95707305D01*
X122443502Y-95615059D01*
X122614459Y-95444400D01*
X122707095Y-95221309D01*
X122707305Y-94979750D01*
X122615059Y-94756498D01*
X122452729Y-94593884D01*
X122643502Y-94515059D01*
X122814459Y-94344400D01*
X122907095Y-94121309D01*
X122907305Y-93879750D01*
X122907305Y-101892892D01*
X122679750Y-101892695D01*
X122456498Y-101984941D01*
X122285541Y-102155600D01*
X122192905Y-102378691D01*
X122192695Y-102620250D01*
X122284941Y-102843502D01*
X122455600Y-103014459D01*
X122678691Y-103107095D01*
X122920250Y-103107305D01*
X123143502Y-103015059D01*
X123314459Y-102844400D01*
X123407095Y-102621309D01*
X123407305Y-102379750D01*
X123407305Y-111373000D01*
X121907305Y-111373000D01*
X121907305Y-102779750D01*
X121815059Y-102556498D01*
X121644400Y-102385541D01*
X121421309Y-102292905D01*
X121179750Y-102292695D01*
X120956498Y-102384941D01*
X120785541Y-102555600D01*
X120692905Y-102778691D01*
X120692695Y-103020250D01*
X120784941Y-103243502D01*
X120955600Y-103414459D01*
X121178691Y-103507095D01*
X121420250Y-103507305D01*
X121643502Y-103415059D01*
X121814459Y-103244400D01*
X121907095Y-103021309D01*
X121907305Y-102779750D01*
X121907305Y-111373000D01*
X120407305Y-111373000D01*
X120407305Y-100579750D01*
X120315059Y-100356498D01*
X120144400Y-100185541D01*
X119921309Y-100092905D01*
X119679750Y-100092695D01*
X119456498Y-100184941D01*
X119307305Y-100333873D01*
X119307305Y-88379750D01*
X119215059Y-88156498D01*
X119044400Y-87985541D01*
X118821309Y-87892905D01*
X118579750Y-87892695D01*
X118557305Y-87901969D01*
X118557305Y-80569750D01*
X118465059Y-80346498D01*
X118294400Y-80175541D01*
X118071309Y-80082905D01*
X117877224Y-80082736D01*
X117877305Y-79989750D01*
X117785059Y-79766498D01*
X117614400Y-79595541D01*
X117391309Y-79502905D01*
X117149750Y-79502695D01*
X116926498Y-79594941D01*
X116755541Y-79765600D01*
X116662905Y-79988691D01*
X116662695Y-80230250D01*
X116754941Y-80453502D01*
X116925600Y-80624459D01*
X117148691Y-80717095D01*
X117342775Y-80717263D01*
X117342695Y-80810250D01*
X117434941Y-81033502D01*
X117605600Y-81204459D01*
X117828691Y-81297095D01*
X118070250Y-81297305D01*
X118293502Y-81205059D01*
X118464459Y-81034400D01*
X118557095Y-80811309D01*
X118557305Y-80569750D01*
X118557305Y-87901969D01*
X118356498Y-87984941D01*
X118185541Y-88155600D01*
X118092905Y-88378691D01*
X118092695Y-88620250D01*
X118184941Y-88843502D01*
X118355600Y-89014459D01*
X118578691Y-89107095D01*
X118820250Y-89107305D01*
X119043502Y-89015059D01*
X119214459Y-88844400D01*
X119307095Y-88621309D01*
X119307305Y-88379750D01*
X119307305Y-100333873D01*
X119285541Y-100355600D01*
X119192905Y-100578691D01*
X119192695Y-100820250D01*
X119284941Y-101043502D01*
X119455600Y-101214459D01*
X119678691Y-101307095D01*
X119920250Y-101307305D01*
X120143502Y-101215059D01*
X120314459Y-101044400D01*
X120407095Y-100821309D01*
X120407305Y-100579750D01*
X120407305Y-111373000D01*
X117407305Y-111373000D01*
X117407305Y-104379750D01*
X117315059Y-104156498D01*
X117144400Y-103985541D01*
X117107305Y-103970137D01*
X117107305Y-93779750D01*
X117015059Y-93556498D01*
X116844400Y-93385541D01*
X116621309Y-93292905D01*
X116379750Y-93292695D01*
X116307305Y-93322628D01*
X116307305Y-78479750D01*
X116215059Y-78256498D01*
X116044400Y-78085541D01*
X115821309Y-77992905D01*
X115579750Y-77992695D01*
X115356498Y-78084941D01*
X115185541Y-78255600D01*
X115092905Y-78478691D01*
X115092695Y-78720250D01*
X115184941Y-78943502D01*
X115355600Y-79114459D01*
X115578691Y-79207095D01*
X115820250Y-79207305D01*
X116043502Y-79115059D01*
X116214459Y-78944400D01*
X116307095Y-78721309D01*
X116307305Y-78479750D01*
X116307305Y-93322628D01*
X116156498Y-93384941D01*
X115985541Y-93555600D01*
X115892905Y-93778691D01*
X115892695Y-94020250D01*
X115984941Y-94243502D01*
X116155600Y-94414459D01*
X116378691Y-94507095D01*
X116620250Y-94507305D01*
X116843502Y-94415059D01*
X117014459Y-94244400D01*
X117107095Y-94021309D01*
X117107305Y-93779750D01*
X117107305Y-103970137D01*
X116921309Y-103892905D01*
X116679750Y-103892695D01*
X116456498Y-103984941D01*
X116407305Y-104034048D01*
X116407305Y-100179750D01*
X116315059Y-99956498D01*
X116144400Y-99785541D01*
X115921309Y-99692905D01*
X115679750Y-99692695D01*
X115627564Y-99714257D01*
X115627564Y-95877191D01*
X115535318Y-95653939D01*
X115364659Y-95482982D01*
X115307305Y-95459166D01*
X115307305Y-84679750D01*
X115215059Y-84456498D01*
X115044400Y-84285541D01*
X114821309Y-84192905D01*
X114579750Y-84192695D01*
X114356498Y-84284941D01*
X114185541Y-84455600D01*
X114092905Y-84678691D01*
X114092695Y-84920250D01*
X114184941Y-85143502D01*
X114355600Y-85314459D01*
X114578691Y-85407095D01*
X114820250Y-85407305D01*
X115043502Y-85315059D01*
X115214459Y-85144400D01*
X115307095Y-84921309D01*
X115307305Y-84679750D01*
X115307305Y-95459166D01*
X115141568Y-95390346D01*
X114900009Y-95390136D01*
X114676757Y-95482382D01*
X114607305Y-95551712D01*
X114607305Y-93179750D01*
X114515059Y-92956498D01*
X114344400Y-92785541D01*
X114121309Y-92692905D01*
X113879750Y-92692695D01*
X113656498Y-92784941D01*
X113485541Y-92955600D01*
X113392905Y-93178691D01*
X113392695Y-93420250D01*
X113484941Y-93643502D01*
X113655600Y-93814459D01*
X113878691Y-93907095D01*
X114120250Y-93907305D01*
X114343502Y-93815059D01*
X114514459Y-93644400D01*
X114607095Y-93421309D01*
X114607305Y-93179750D01*
X114607305Y-95551712D01*
X114505800Y-95653041D01*
X114413164Y-95876132D01*
X114412954Y-96117691D01*
X114505200Y-96340943D01*
X114675859Y-96511900D01*
X114898950Y-96604536D01*
X115140509Y-96604746D01*
X115363761Y-96512500D01*
X115534718Y-96341841D01*
X115627354Y-96118750D01*
X115627564Y-95877191D01*
X115627564Y-99714257D01*
X115456498Y-99784941D01*
X115285541Y-99955600D01*
X115192905Y-100178691D01*
X115192695Y-100420250D01*
X115284941Y-100643502D01*
X115455600Y-100814459D01*
X115678691Y-100907095D01*
X115920250Y-100907305D01*
X116143502Y-100815059D01*
X116314459Y-100644400D01*
X116407095Y-100421309D01*
X116407305Y-100179750D01*
X116407305Y-104034048D01*
X116285541Y-104155600D01*
X116192905Y-104378691D01*
X116192695Y-104620250D01*
X116284941Y-104843502D01*
X116455600Y-105014459D01*
X116678691Y-105107095D01*
X116920250Y-105107305D01*
X117143502Y-105015059D01*
X117314459Y-104844400D01*
X117407095Y-104621309D01*
X117407305Y-104379750D01*
X117407305Y-111373000D01*
X116707305Y-111373000D01*
X116707305Y-107479750D01*
X116615059Y-107256498D01*
X116444400Y-107085541D01*
X116221309Y-106992905D01*
X115979750Y-106992695D01*
X115756498Y-107084941D01*
X115649963Y-107191289D01*
X115544400Y-107085541D01*
X115321309Y-106992905D01*
X115079750Y-106992695D01*
X114856498Y-107084941D01*
X114685541Y-107255600D01*
X114592905Y-107478691D01*
X114592695Y-107720250D01*
X114684941Y-107943502D01*
X114855600Y-108114459D01*
X115061836Y-108200096D01*
X114856498Y-108284941D01*
X114685541Y-108455600D01*
X114592905Y-108678691D01*
X114592695Y-108920250D01*
X114684941Y-109143502D01*
X114855600Y-109314459D01*
X115078691Y-109407095D01*
X115320250Y-109407305D01*
X115543502Y-109315059D01*
X115714459Y-109144400D01*
X115807095Y-108921309D01*
X115807305Y-108679750D01*
X115715059Y-108456498D01*
X115544400Y-108285541D01*
X115338163Y-108199903D01*
X115543502Y-108115059D01*
X115650036Y-108008710D01*
X115755600Y-108114459D01*
X115978691Y-108207095D01*
X116220250Y-108207305D01*
X116443502Y-108115059D01*
X116614459Y-107944400D01*
X116707095Y-107721309D01*
X116707305Y-107479750D01*
X116707305Y-111373000D01*
X114956144Y-111373000D01*
X114956144Y-110035429D01*
X114829898Y-109729891D01*
X114596338Y-109495923D01*
X114525485Y-109466502D01*
X114525485Y-97468341D01*
X114433239Y-97245089D01*
X114262580Y-97074132D01*
X114039489Y-96981496D01*
X113797930Y-96981286D01*
X113574678Y-97073532D01*
X113403721Y-97244191D01*
X113311085Y-97467282D01*
X113310875Y-97708841D01*
X113403121Y-97932093D01*
X113573780Y-98103050D01*
X113796871Y-98195686D01*
X114038430Y-98195896D01*
X114261682Y-98103650D01*
X114432639Y-97932991D01*
X114525275Y-97709900D01*
X114525485Y-97468341D01*
X114525485Y-109466502D01*
X114291021Y-109369145D01*
X114007305Y-109368896D01*
X114007305Y-104379750D01*
X113915059Y-104156498D01*
X113744400Y-103985541D01*
X113521309Y-103892905D01*
X113279750Y-103892695D01*
X113056498Y-103984941D01*
X112885541Y-104155600D01*
X112807305Y-104344012D01*
X112807305Y-100079750D01*
X112715059Y-99856498D01*
X112544400Y-99685541D01*
X112321309Y-99592905D01*
X112079750Y-99592695D01*
X111856498Y-99684941D01*
X111685541Y-99855600D01*
X111592905Y-100078691D01*
X111592695Y-100320250D01*
X111684941Y-100543502D01*
X111855600Y-100714459D01*
X112078691Y-100807095D01*
X112320250Y-100807305D01*
X112543502Y-100715059D01*
X112714459Y-100544400D01*
X112807095Y-100321309D01*
X112807305Y-100079750D01*
X112807305Y-104344012D01*
X112792905Y-104378691D01*
X112792695Y-104620250D01*
X112884941Y-104843502D01*
X113055600Y-105014459D01*
X113278691Y-105107095D01*
X113520250Y-105107305D01*
X113743502Y-105015059D01*
X113914459Y-104844400D01*
X114007095Y-104621309D01*
X114007305Y-104379750D01*
X114007305Y-109368896D01*
X113960429Y-109368856D01*
X113654891Y-109495102D01*
X113420923Y-109728662D01*
X113294145Y-110033979D01*
X113293856Y-110364571D01*
X113420102Y-110670109D01*
X113653662Y-110904077D01*
X113958979Y-111030855D01*
X114289571Y-111031144D01*
X114595109Y-110904898D01*
X114829077Y-110671338D01*
X114955855Y-110366021D01*
X114956144Y-110035429D01*
X114956144Y-111373000D01*
X111433524Y-111373000D01*
X111433524Y-103797930D01*
X111341278Y-103574678D01*
X111170619Y-103403721D01*
X110947528Y-103311085D01*
X110907305Y-103311050D01*
X110907305Y-92979750D01*
X110815059Y-92756498D01*
X110644400Y-92585541D01*
X110421309Y-92492905D01*
X110179750Y-92492695D01*
X110108766Y-92522025D01*
X110108766Y-87781211D01*
X110016520Y-87557959D01*
X109845861Y-87387002D01*
X109622770Y-87294366D01*
X109381211Y-87294156D01*
X109157959Y-87386402D01*
X108987002Y-87557061D01*
X108949939Y-87646317D01*
X108821309Y-87592905D01*
X108579750Y-87592695D01*
X108356498Y-87684941D01*
X108185541Y-87855600D01*
X108092905Y-88078691D01*
X108092695Y-88320250D01*
X108184941Y-88543502D01*
X108355600Y-88714459D01*
X108578691Y-88807095D01*
X108820250Y-88807305D01*
X109043502Y-88715059D01*
X109214459Y-88544400D01*
X109251521Y-88455143D01*
X109380152Y-88508556D01*
X109621711Y-88508766D01*
X109844963Y-88416520D01*
X110015920Y-88245861D01*
X110108556Y-88022770D01*
X110108766Y-87781211D01*
X110108766Y-92522025D01*
X109956498Y-92584941D01*
X109785541Y-92755600D01*
X109692905Y-92978691D01*
X109692805Y-93092793D01*
X109579750Y-93092695D01*
X109356498Y-93184941D01*
X109185541Y-93355600D01*
X109092905Y-93578691D01*
X109092695Y-93820250D01*
X109184941Y-94043502D01*
X109355600Y-94214459D01*
X109578691Y-94307095D01*
X109820250Y-94307305D01*
X110043502Y-94215059D01*
X110214459Y-94044400D01*
X110307095Y-93821309D01*
X110307194Y-93707206D01*
X110420250Y-93707305D01*
X110643502Y-93615059D01*
X110814459Y-93444400D01*
X110907095Y-93221309D01*
X110907305Y-92979750D01*
X110907305Y-103311050D01*
X110705969Y-103310875D01*
X110482717Y-103403121D01*
X110311760Y-103573780D01*
X110219124Y-103796871D01*
X110218914Y-104038430D01*
X110311160Y-104261682D01*
X110481819Y-104432639D01*
X110704910Y-104525275D01*
X110946469Y-104525485D01*
X111169721Y-104433239D01*
X111340678Y-104262580D01*
X111433314Y-104039489D01*
X111433524Y-103797930D01*
X111433524Y-111373000D01*
X110706144Y-111373000D01*
X110706144Y-110035429D01*
X110579898Y-109729891D01*
X110346338Y-109495923D01*
X110295373Y-109474760D01*
X110295373Y-104283401D01*
X110203127Y-104060149D01*
X110032468Y-103889192D01*
X109809377Y-103796556D01*
X109707305Y-103796467D01*
X109707305Y-95479750D01*
X109615059Y-95256498D01*
X109444400Y-95085541D01*
X109221309Y-94992905D01*
X108979750Y-94992695D01*
X108756498Y-95084941D01*
X108585541Y-95255600D01*
X108492905Y-95478691D01*
X108492695Y-95720250D01*
X108584941Y-95943502D01*
X108755600Y-96114459D01*
X108978691Y-96207095D01*
X109220250Y-96207305D01*
X109443502Y-96115059D01*
X109614459Y-95944400D01*
X109707095Y-95721309D01*
X109707305Y-95479750D01*
X109707305Y-103796467D01*
X109567818Y-103796346D01*
X109344566Y-103888592D01*
X109173609Y-104059251D01*
X109107305Y-104218927D01*
X109107305Y-99079750D01*
X109015059Y-98856498D01*
X108844400Y-98685541D01*
X108621309Y-98592905D01*
X108407305Y-98592718D01*
X108407305Y-94179750D01*
X108315059Y-93956498D01*
X108144400Y-93785541D01*
X107921309Y-93692905D01*
X107679750Y-93692695D01*
X107456498Y-93784941D01*
X107285541Y-93955600D01*
X107192905Y-94178691D01*
X107192695Y-94420250D01*
X107195665Y-94427438D01*
X107056498Y-94484941D01*
X106885541Y-94655600D01*
X106792905Y-94878691D01*
X106792695Y-95120250D01*
X106884941Y-95343502D01*
X107055600Y-95514459D01*
X107278691Y-95607095D01*
X107520250Y-95607305D01*
X107743502Y-95515059D01*
X107914459Y-95344400D01*
X108007095Y-95121309D01*
X108007305Y-94879750D01*
X108004334Y-94872561D01*
X108143502Y-94815059D01*
X108314459Y-94644400D01*
X108407095Y-94421309D01*
X108407305Y-94179750D01*
X108407305Y-98592718D01*
X108379750Y-98592695D01*
X108156498Y-98684941D01*
X107985541Y-98855600D01*
X107892905Y-99078691D01*
X107892695Y-99320250D01*
X107984941Y-99543502D01*
X108155600Y-99714459D01*
X108378691Y-99807095D01*
X108620250Y-99807305D01*
X108843502Y-99715059D01*
X109014459Y-99544400D01*
X109107095Y-99321309D01*
X109107305Y-99079750D01*
X109107305Y-104218927D01*
X109080973Y-104282342D01*
X109080763Y-104523901D01*
X109173009Y-104747153D01*
X109343668Y-104918110D01*
X109566759Y-105010746D01*
X109808318Y-105010956D01*
X110031570Y-104918710D01*
X110202527Y-104748051D01*
X110295163Y-104524960D01*
X110295373Y-104283401D01*
X110295373Y-109474760D01*
X110041021Y-109369145D01*
X109907305Y-109369028D01*
X109907305Y-107379750D01*
X109815059Y-107156498D01*
X109644400Y-106985541D01*
X109421309Y-106892905D01*
X109179750Y-106892695D01*
X108956498Y-106984941D01*
X108785541Y-107155600D01*
X108692905Y-107378691D01*
X108692718Y-107592706D01*
X108679750Y-107592695D01*
X108456498Y-107684941D01*
X108285541Y-107855600D01*
X108192905Y-108078691D01*
X108192695Y-108320250D01*
X108284941Y-108543502D01*
X108455600Y-108714459D01*
X108678691Y-108807095D01*
X108920250Y-108807305D01*
X109143502Y-108715059D01*
X109314459Y-108544400D01*
X109407095Y-108321309D01*
X109407281Y-108107293D01*
X109420250Y-108107305D01*
X109643502Y-108015059D01*
X109814459Y-107844400D01*
X109907095Y-107621309D01*
X109907305Y-107379750D01*
X109907305Y-109369028D01*
X109710429Y-109368856D01*
X109404891Y-109495102D01*
X109170923Y-109728662D01*
X109044145Y-110033979D01*
X109043856Y-110364571D01*
X109170102Y-110670109D01*
X109403662Y-110904077D01*
X109708979Y-111030855D01*
X110039571Y-111031144D01*
X110345109Y-110904898D01*
X110579077Y-110671338D01*
X110705855Y-110366021D01*
X110706144Y-110035429D01*
X110706144Y-111373000D01*
X107907305Y-111373000D01*
X107907305Y-107359970D01*
X107815059Y-107136718D01*
X107644400Y-106965761D01*
X107421309Y-106873125D01*
X107179750Y-106872915D01*
X106956498Y-106965161D01*
X106785541Y-107135820D01*
X106767305Y-107179736D01*
X106767305Y-79839750D01*
X106675059Y-79616498D01*
X106504400Y-79445541D01*
X106281309Y-79352905D01*
X106039750Y-79352695D01*
X105816498Y-79444941D01*
X105645541Y-79615600D01*
X105552905Y-79838691D01*
X105552695Y-80080250D01*
X105644941Y-80303502D01*
X105815600Y-80474459D01*
X106038691Y-80567095D01*
X106280250Y-80567305D01*
X106503502Y-80475059D01*
X106674459Y-80304400D01*
X106767095Y-80081309D01*
X106767305Y-79839750D01*
X106767305Y-107179736D01*
X106692905Y-107358911D01*
X106692695Y-107600470D01*
X106784941Y-107823722D01*
X106955600Y-107994679D01*
X107178691Y-108087315D01*
X107420250Y-108087525D01*
X107643502Y-107995279D01*
X107814459Y-107824620D01*
X107907095Y-107601529D01*
X107907305Y-107359970D01*
X107907305Y-111373000D01*
X106907305Y-111373000D01*
X106907305Y-110079750D01*
X106815059Y-109856498D01*
X106644400Y-109685541D01*
X106618714Y-109674875D01*
X106618714Y-103291159D01*
X106526468Y-103067907D01*
X106355809Y-102896950D01*
X106132718Y-102804314D01*
X105891159Y-102804104D01*
X105667907Y-102896350D01*
X105496950Y-103067009D01*
X105404314Y-103290100D01*
X105404104Y-103531659D01*
X105496350Y-103754911D01*
X105541299Y-103799938D01*
X105485541Y-103855600D01*
X105392905Y-104078691D01*
X105392695Y-104320250D01*
X105484941Y-104543502D01*
X105655600Y-104714459D01*
X105878691Y-104807095D01*
X106120250Y-104807305D01*
X106343502Y-104715059D01*
X106514459Y-104544400D01*
X106607095Y-104321309D01*
X106607305Y-104079750D01*
X106515059Y-103856498D01*
X106470109Y-103811470D01*
X106525868Y-103755809D01*
X106618504Y-103532718D01*
X106618714Y-103291159D01*
X106618714Y-109674875D01*
X106421309Y-109592905D01*
X106179750Y-109592695D01*
X105956498Y-109684941D01*
X105785541Y-109855600D01*
X105692905Y-110078691D01*
X105692695Y-110320250D01*
X105784941Y-110543502D01*
X105955600Y-110714459D01*
X106178691Y-110807095D01*
X106420250Y-110807305D01*
X106643502Y-110715059D01*
X106814459Y-110544400D01*
X106907095Y-110321309D01*
X106907305Y-110079750D01*
X106907305Y-111373000D01*
X105307305Y-111373000D01*
X105307305Y-91379750D01*
X105215059Y-91156498D01*
X105044400Y-90985541D01*
X104821309Y-90892905D01*
X104579750Y-90892695D01*
X104356498Y-90984941D01*
X104185541Y-91155600D01*
X104092905Y-91378691D01*
X104092695Y-91620250D01*
X104184941Y-91843502D01*
X104355600Y-92014459D01*
X104578691Y-92107095D01*
X104820250Y-92107305D01*
X105043502Y-92015059D01*
X105214459Y-91844400D01*
X105307095Y-91621309D01*
X105307305Y-91379750D01*
X105307305Y-111373000D01*
X104907305Y-111373000D01*
X104907305Y-96279750D01*
X104815059Y-96056498D01*
X104644400Y-95885541D01*
X104421309Y-95792905D01*
X104179750Y-95792695D01*
X103956498Y-95884941D01*
X103785541Y-96055600D01*
X103692905Y-96278691D01*
X103692695Y-96520250D01*
X103784941Y-96743502D01*
X103955600Y-96914459D01*
X104178691Y-97007095D01*
X104420250Y-97007305D01*
X104643502Y-96915059D01*
X104814459Y-96744400D01*
X104907095Y-96521309D01*
X104907305Y-96279750D01*
X104907305Y-111373000D01*
X103147305Y-111373000D01*
X103147305Y-80749750D01*
X103055059Y-80526498D01*
X102884400Y-80355541D01*
X102661309Y-80262905D01*
X102419750Y-80262695D01*
X102196498Y-80354941D01*
X102025541Y-80525600D01*
X101932905Y-80748691D01*
X101932695Y-80990250D01*
X102024941Y-81213502D01*
X102195600Y-81384459D01*
X102418691Y-81477095D01*
X102660250Y-81477305D01*
X102883502Y-81385059D01*
X103054459Y-81214400D01*
X103147095Y-80991309D01*
X103147305Y-80749750D01*
X103147305Y-111373000D01*
X102956144Y-111373000D01*
X102956144Y-110135429D01*
X102829898Y-109829891D01*
X102596338Y-109595923D01*
X102291021Y-109469145D01*
X101960429Y-109468856D01*
X101751890Y-109555022D01*
X101751890Y-100475120D01*
X101659644Y-100251868D01*
X101507305Y-100099262D01*
X101507305Y-93179750D01*
X101415059Y-92956498D01*
X101258710Y-92799876D01*
X101414459Y-92644400D01*
X101507095Y-92421309D01*
X101507305Y-92179750D01*
X101415059Y-91956498D01*
X101244400Y-91785541D01*
X101021309Y-91692905D01*
X100779750Y-91692695D01*
X100675433Y-91735797D01*
X100675433Y-87438160D01*
X100657514Y-86671761D01*
X100398698Y-86046922D01*
X100137898Y-85876050D01*
X99963950Y-86049998D01*
X99963950Y-85702102D01*
X99793078Y-85441302D01*
X99078160Y-85164567D01*
X98311761Y-85182486D01*
X97686922Y-85441302D01*
X97516050Y-85702102D01*
X98740000Y-86926052D01*
X99963950Y-85702102D01*
X99963950Y-86049998D01*
X98913948Y-87100000D01*
X100137898Y-88323950D01*
X100398698Y-88153078D01*
X100675433Y-87438160D01*
X100675433Y-91735797D01*
X100556498Y-91784941D01*
X100385541Y-91955600D01*
X100292905Y-92178691D01*
X100292695Y-92420250D01*
X100384941Y-92643502D01*
X100541289Y-92800123D01*
X100385541Y-92955600D01*
X100292905Y-93178691D01*
X100292695Y-93420250D01*
X100384941Y-93643502D01*
X100555600Y-93814459D01*
X100778691Y-93907095D01*
X101020250Y-93907305D01*
X101243502Y-93815059D01*
X101414459Y-93644400D01*
X101507095Y-93421309D01*
X101507305Y-93179750D01*
X101507305Y-100099262D01*
X101488985Y-100080911D01*
X101265894Y-99988275D01*
X101069437Y-99988104D01*
X101015059Y-99856498D01*
X100844400Y-99685541D01*
X100621309Y-99592905D01*
X100379750Y-99592695D01*
X100207305Y-99663947D01*
X100207305Y-94679750D01*
X100115059Y-94456498D01*
X99963950Y-94305125D01*
X99963950Y-88497898D01*
X98740000Y-87273948D01*
X98566052Y-87447896D01*
X98566052Y-87100000D01*
X97342102Y-85876050D01*
X97081302Y-86046922D01*
X96804567Y-86761840D01*
X96822486Y-87528239D01*
X97081302Y-88153078D01*
X97342102Y-88323950D01*
X98566052Y-87100000D01*
X98566052Y-87447896D01*
X97516050Y-88497898D01*
X97686922Y-88758698D01*
X98401840Y-89035433D01*
X99168239Y-89017514D01*
X99793078Y-88758698D01*
X99963950Y-88497898D01*
X99963950Y-94305125D01*
X99944400Y-94285541D01*
X99721309Y-94192905D01*
X99607293Y-94192805D01*
X99607305Y-94179750D01*
X99515059Y-93956498D01*
X99344400Y-93785541D01*
X99121309Y-93692905D01*
X98879750Y-93692695D01*
X98656498Y-93784941D01*
X98485541Y-93955600D01*
X98392905Y-94178691D01*
X98392695Y-94420250D01*
X98484941Y-94643502D01*
X98605798Y-94764570D01*
X98556498Y-94784941D01*
X98385541Y-94955600D01*
X98292905Y-95178691D01*
X98292695Y-95420250D01*
X98384941Y-95643502D01*
X98555600Y-95814459D01*
X98778691Y-95907095D01*
X99020250Y-95907305D01*
X99243502Y-95815059D01*
X99414459Y-95644400D01*
X99507095Y-95421309D01*
X99507107Y-95407119D01*
X99720250Y-95407305D01*
X99943502Y-95315059D01*
X100114459Y-95144400D01*
X100207095Y-94921309D01*
X100207305Y-94679750D01*
X100207305Y-99663947D01*
X100156498Y-99684941D01*
X99985541Y-99855600D01*
X99892905Y-100078691D01*
X99892695Y-100320250D01*
X99984941Y-100543502D01*
X100155600Y-100714459D01*
X100378691Y-100807095D01*
X100575147Y-100807265D01*
X100629526Y-100938872D01*
X100800185Y-101109829D01*
X101023276Y-101202465D01*
X101264835Y-101202675D01*
X101488087Y-101110429D01*
X101659044Y-100939770D01*
X101751680Y-100716679D01*
X101751890Y-100475120D01*
X101751890Y-109555022D01*
X101654891Y-109595102D01*
X101619884Y-109630047D01*
X101619884Y-103323292D01*
X101527638Y-103100040D01*
X101356979Y-102929083D01*
X101133888Y-102836447D01*
X100892329Y-102836237D01*
X100669077Y-102928483D01*
X100498120Y-103099142D01*
X100405484Y-103322233D01*
X100405274Y-103563792D01*
X100497520Y-103787044D01*
X100668179Y-103958001D01*
X100891270Y-104050637D01*
X101132829Y-104050847D01*
X101356081Y-103958601D01*
X101527038Y-103787942D01*
X101619674Y-103564851D01*
X101619884Y-103323292D01*
X101619884Y-109630047D01*
X101455906Y-109793740D01*
X101455906Y-106643583D01*
X101363660Y-106420331D01*
X101193001Y-106249374D01*
X100969910Y-106156738D01*
X100728351Y-106156528D01*
X100505099Y-106248774D01*
X100334142Y-106419433D01*
X100286731Y-106533609D01*
X100130915Y-106533474D01*
X99907663Y-106625720D01*
X99736706Y-106796379D01*
X99644070Y-107019470D01*
X99643860Y-107261029D01*
X99736106Y-107484281D01*
X99906765Y-107655238D01*
X100129856Y-107747874D01*
X100371415Y-107748084D01*
X100594667Y-107655838D01*
X100765624Y-107485179D01*
X100813034Y-107371002D01*
X100968851Y-107371138D01*
X101192103Y-107278892D01*
X101363060Y-107108233D01*
X101455696Y-106885142D01*
X101455906Y-106643583D01*
X101455906Y-109793740D01*
X101420923Y-109828662D01*
X101294145Y-110133979D01*
X101293856Y-110464571D01*
X101420102Y-110770109D01*
X101653662Y-111004077D01*
X101958979Y-111130855D01*
X102289571Y-111131144D01*
X102595109Y-111004898D01*
X102829077Y-110771338D01*
X102955855Y-110466021D01*
X102956144Y-110135429D01*
X102956144Y-111373000D01*
X99607305Y-111373000D01*
X99607305Y-97079750D01*
X99515059Y-96856498D01*
X99344400Y-96685541D01*
X99121309Y-96592905D01*
X98879750Y-96592695D01*
X98656498Y-96684941D01*
X98485541Y-96855600D01*
X98428560Y-96992824D01*
X98279750Y-96992695D01*
X98056498Y-97084941D01*
X97899964Y-97241202D01*
X97844400Y-97185541D01*
X97621309Y-97092905D01*
X97379750Y-97092695D01*
X97156498Y-97184941D01*
X97107305Y-97234048D01*
X97107305Y-95379750D01*
X97015059Y-95156498D01*
X96844400Y-94985541D01*
X96621309Y-94892905D01*
X96379750Y-94892695D01*
X96156498Y-94984941D01*
X95985541Y-95155600D01*
X95892905Y-95378691D01*
X95892695Y-95620250D01*
X95984941Y-95843502D01*
X96155600Y-96014459D01*
X96378691Y-96107095D01*
X96620250Y-96107305D01*
X96843502Y-96015059D01*
X97014459Y-95844400D01*
X97107095Y-95621309D01*
X97107305Y-95379750D01*
X97107305Y-97234048D01*
X96985541Y-97355600D01*
X96892905Y-97578691D01*
X96892695Y-97820250D01*
X96984941Y-98043502D01*
X97155600Y-98214459D01*
X97378691Y-98307095D01*
X97620250Y-98307305D01*
X97843502Y-98215059D01*
X98000035Y-98058797D01*
X98055600Y-98114459D01*
X98278691Y-98207095D01*
X98520250Y-98207305D01*
X98743502Y-98115059D01*
X98914459Y-97944400D01*
X98971439Y-97807175D01*
X99120250Y-97807305D01*
X99343502Y-97715059D01*
X99514459Y-97544400D01*
X99607095Y-97321309D01*
X99607305Y-97079750D01*
X99607305Y-111373000D01*
X98706144Y-111373000D01*
X98706144Y-110135429D01*
X98607305Y-109896220D01*
X98607305Y-105779750D01*
X98515059Y-105556498D01*
X98344400Y-105385541D01*
X98121309Y-105292905D01*
X97879750Y-105292695D01*
X97656498Y-105384941D01*
X97485541Y-105555600D01*
X97392905Y-105778691D01*
X97392695Y-106020250D01*
X97484941Y-106243502D01*
X97655600Y-106414459D01*
X97878691Y-106507095D01*
X98120250Y-106507305D01*
X98343502Y-106415059D01*
X98514459Y-106244400D01*
X98607095Y-106021309D01*
X98607305Y-105779750D01*
X98607305Y-109896220D01*
X98579898Y-109829891D01*
X98346338Y-109595923D01*
X98041021Y-109469145D01*
X97710429Y-109468856D01*
X97404891Y-109595102D01*
X97170923Y-109828662D01*
X97044145Y-110133979D01*
X97043856Y-110464571D01*
X97170102Y-110770109D01*
X97403662Y-111004077D01*
X97708979Y-111130855D01*
X98039571Y-111131144D01*
X98345109Y-111004898D01*
X98579077Y-110771338D01*
X98705855Y-110466021D01*
X98706144Y-110135429D01*
X98706144Y-111373000D01*
X96737507Y-111373000D01*
X96737507Y-103179750D01*
X96645261Y-102956498D01*
X96474602Y-102785541D01*
X96251511Y-102692905D01*
X96009952Y-102692695D01*
X95786700Y-102784941D01*
X95615743Y-102955600D01*
X95541326Y-103134815D01*
X95541326Y-86727487D01*
X95255564Y-86035891D01*
X94726892Y-85506296D01*
X94035796Y-85219327D01*
X93287487Y-85218674D01*
X92595891Y-85504436D01*
X92066296Y-86033108D01*
X91779327Y-86724204D01*
X91778674Y-87472513D01*
X92064436Y-88164109D01*
X92593108Y-88693704D01*
X93284204Y-88980673D01*
X94032513Y-88981326D01*
X94724109Y-88695564D01*
X95253704Y-88166892D01*
X95540673Y-87475796D01*
X95541326Y-86727487D01*
X95541326Y-103134815D01*
X95523107Y-103178691D01*
X95522897Y-103420250D01*
X95615143Y-103643502D01*
X95785802Y-103814459D01*
X96008893Y-103907095D01*
X96250452Y-103907305D01*
X96473704Y-103815059D01*
X96644661Y-103644400D01*
X96737297Y-103421309D01*
X96737507Y-103179750D01*
X96737507Y-111373000D01*
X93407305Y-111373000D01*
X93407305Y-109279750D01*
X93315059Y-109056498D01*
X93144400Y-108885541D01*
X92921309Y-108792905D01*
X92679750Y-108792695D01*
X92456498Y-108884941D01*
X92349963Y-108991289D01*
X92244400Y-108885541D01*
X92021309Y-108792905D01*
X91779750Y-108792695D01*
X91556498Y-108884941D01*
X91385541Y-109055600D01*
X91292905Y-109278691D01*
X91292695Y-109520250D01*
X91384941Y-109743502D01*
X91555600Y-109914459D01*
X91778691Y-110007095D01*
X92020250Y-110007305D01*
X92243502Y-109915059D01*
X92350036Y-109808710D01*
X92455600Y-109914459D01*
X92678691Y-110007095D01*
X92920250Y-110007305D01*
X93143502Y-109915059D01*
X93314459Y-109744400D01*
X93407095Y-109521309D01*
X93407305Y-109279750D01*
X93407305Y-111373000D01*
X91240329Y-111373000D01*
X91240329Y-90523118D01*
X91148083Y-90299866D01*
X91007305Y-90158842D01*
X91007305Y-85479750D01*
X90915059Y-85256498D01*
X90744400Y-85085541D01*
X90521309Y-84992905D01*
X90279750Y-84992695D01*
X90056498Y-85084941D01*
X89885541Y-85255600D01*
X89792905Y-85478691D01*
X89792695Y-85720250D01*
X89884941Y-85943502D01*
X90055600Y-86114459D01*
X90278691Y-86207095D01*
X90520250Y-86207305D01*
X90743502Y-86115059D01*
X90914459Y-85944400D01*
X91007095Y-85721309D01*
X91007305Y-85479750D01*
X91007305Y-90158842D01*
X90977424Y-90128909D01*
X90754333Y-90036273D01*
X90512774Y-90036063D01*
X90289522Y-90128309D01*
X90118565Y-90298968D01*
X90025929Y-90522059D01*
X90025719Y-90763618D01*
X90114459Y-90978386D01*
X89988395Y-91030475D01*
X89817438Y-91201134D01*
X89724802Y-91424225D01*
X89724592Y-91665784D01*
X89816838Y-91889036D01*
X89987497Y-92059993D01*
X90210588Y-92152629D01*
X90452147Y-92152839D01*
X90675399Y-92060593D01*
X90846356Y-91889934D01*
X90938992Y-91666843D01*
X90939202Y-91425284D01*
X90850461Y-91210515D01*
X90976526Y-91158427D01*
X91147483Y-90987768D01*
X91240119Y-90764677D01*
X91240329Y-90523118D01*
X91240329Y-111373000D01*
X90807305Y-111373000D01*
X90807305Y-92697930D01*
X90715059Y-92474678D01*
X90544400Y-92303721D01*
X90321309Y-92211085D01*
X90079750Y-92210875D01*
X89856498Y-92303121D01*
X89685541Y-92473780D01*
X89592905Y-92696871D01*
X89592695Y-92938430D01*
X89684941Y-93161682D01*
X89855600Y-93332639D01*
X90078691Y-93425275D01*
X90320250Y-93425485D01*
X90543502Y-93333239D01*
X90714459Y-93162580D01*
X90807095Y-92939489D01*
X90807305Y-92697930D01*
X90807305Y-111373000D01*
X90781153Y-111373000D01*
X90781153Y-108325527D01*
X90781153Y-106525527D01*
X90647311Y-106201605D01*
X90399698Y-105953560D01*
X90076011Y-105819153D01*
X89725527Y-105818847D01*
X89401605Y-105952689D01*
X89153560Y-106200302D01*
X89019153Y-106523989D01*
X89018847Y-106874473D01*
X89152689Y-107198395D01*
X89400302Y-107446440D01*
X89723989Y-107580847D01*
X90074473Y-107581153D01*
X90398395Y-107447311D01*
X90646440Y-107199698D01*
X90780847Y-106876011D01*
X90781153Y-106525527D01*
X90781153Y-108325527D01*
X90647311Y-108001605D01*
X90399698Y-107753560D01*
X90076011Y-107619153D01*
X89725527Y-107618847D01*
X89401605Y-107752689D01*
X89153560Y-108000302D01*
X89019153Y-108323989D01*
X89018847Y-108674473D01*
X89152689Y-108998395D01*
X89400302Y-109246440D01*
X89723989Y-109380847D01*
X90074473Y-109381153D01*
X90398395Y-109247311D01*
X90646440Y-108999698D01*
X90780847Y-108676011D01*
X90781153Y-108325527D01*
X90781153Y-111373000D01*
X88331282Y-111373000D01*
X88331282Y-109276997D01*
X88331282Y-79076997D01*
X88083501Y-78477320D01*
X87625093Y-78018112D01*
X87025849Y-77769284D01*
X86376997Y-77768718D01*
X85777320Y-78016499D01*
X85318112Y-78474907D01*
X85069284Y-79074151D01*
X85068718Y-79723003D01*
X85316499Y-80322680D01*
X85774907Y-80781888D01*
X86374151Y-81030716D01*
X87023003Y-81031282D01*
X87622680Y-80783501D01*
X88081888Y-80325093D01*
X88330716Y-79725849D01*
X88331282Y-79076997D01*
X88331282Y-109276997D01*
X88083501Y-108677320D01*
X87625093Y-108218112D01*
X87025849Y-107969284D01*
X86376997Y-107968718D01*
X85777320Y-108216499D01*
X85318112Y-108674907D01*
X85069284Y-109274151D01*
X85068718Y-109923003D01*
X85316499Y-110522680D01*
X85774907Y-110981888D01*
X86374151Y-111230716D01*
X87023003Y-111231282D01*
X87622680Y-110983501D01*
X88081888Y-110525093D01*
X88330716Y-109925849D01*
X88331282Y-109276997D01*
X88331282Y-111373000D01*
X85352605Y-111373000D01*
X84927000Y-110947395D01*
X84927000Y-78052605D01*
X85352605Y-77627000D01*
X133247395Y-77627000D01*
X133673000Y-78052605D01*
X133673000Y-110947395D01*
M02*
