G04 #@! TF.FileFunction,Soldermask,Bot*
%FSLAX46Y46*%
G04 Gerber Fmt 4.6, Leading zero omitted, Abs format (unit mm)*
G04 Created by KiCad (PCBNEW (2015-01-16 BZR 5376)-product) date 31.05.2015 18:22:37*
%MOMM*%
G01*
G04 APERTURE LIST*
%ADD10C,0.100000*%
%ADD11R,1.400000X1.900000*%
%ADD12R,1.800000X1.400000*%
%ADD13R,0.800000X1.100000*%
%ADD14R,0.500000X0.600000*%
%ADD15R,0.400000X0.600000*%
%ADD16R,0.600000X0.400000*%
%ADD17R,0.600000X0.500000*%
%ADD18R,0.650000X1.060000*%
%ADD19R,0.650000X0.850000*%
%ADD20R,1.000000X1.800000*%
%ADD21C,2.500000*%
%ADD22R,4.000000X2.000000*%
%ADD23C,3.000000*%
%ADD24R,1.727200X2.032000*%
%ADD25O,1.727200X2.032000*%
%ADD26R,0.750000X0.800000*%
%ADD27R,0.800100X0.800100*%
%ADD28C,0.900000*%
G04 APERTURE END LIST*
D10*
D11*
X117900000Y-78600000D03*
X104750000Y-79550000D03*
D12*
X106350000Y-92750000D03*
X112050000Y-92750000D03*
D13*
X113240000Y-81775000D03*
X112140000Y-82175000D03*
X111040000Y-81775000D03*
X108840000Y-81775000D03*
X109940000Y-81575000D03*
X107740000Y-81575000D03*
X106640000Y-81775000D03*
X105540000Y-81775000D03*
D14*
X110700000Y-103350000D03*
X110700000Y-102250000D03*
D15*
X97950000Y-107600000D03*
X97050000Y-107600000D03*
X126050000Y-107000000D03*
X126950000Y-107000000D03*
X126050000Y-101800000D03*
X126950000Y-101800000D03*
X126050000Y-100100000D03*
X126950000Y-100100000D03*
X126150000Y-94800000D03*
X127050000Y-94800000D03*
X126150000Y-93100000D03*
X127050000Y-93100000D03*
X126150000Y-87800000D03*
X127050000Y-87800000D03*
X126150000Y-86100000D03*
X127050000Y-86100000D03*
D16*
X128700000Y-81250000D03*
X128700000Y-80350000D03*
D14*
X104000000Y-101550000D03*
X104000000Y-100450000D03*
X105700000Y-101550000D03*
X105700000Y-100450000D03*
X109100000Y-103350000D03*
X109100000Y-102250000D03*
X116800000Y-103350000D03*
X116800000Y-102250000D03*
D17*
X116450000Y-95200000D03*
X115350000Y-95200000D03*
D14*
X115300000Y-103350000D03*
X115300000Y-102250000D03*
X113800000Y-103350000D03*
X113800000Y-102250000D03*
X112300000Y-103350000D03*
X112300000Y-102250000D03*
D17*
X108250000Y-100400000D03*
X107150000Y-100400000D03*
D15*
X95550000Y-83700000D03*
X96450000Y-83700000D03*
D16*
X106100000Y-95550000D03*
X106100000Y-94650000D03*
D18*
X95350000Y-90200000D03*
X96300000Y-90200000D03*
X97250000Y-90200000D03*
X97250000Y-92400000D03*
X95350000Y-92400000D03*
D19*
X109700000Y-98700000D03*
X111350000Y-98700000D03*
X109700000Y-100250000D03*
X111350000Y-100250000D03*
D15*
X95450000Y-103200000D03*
X94550000Y-103200000D03*
X95450000Y-105000000D03*
X94550000Y-105000000D03*
X122850000Y-105300000D03*
X123750000Y-105300000D03*
X122850000Y-103600000D03*
X123750000Y-103600000D03*
X122850000Y-98400000D03*
X123750000Y-98400000D03*
X122850000Y-96500000D03*
X123750000Y-96500000D03*
X123650000Y-91400000D03*
X122750000Y-91400000D03*
X123650000Y-89500000D03*
X122750000Y-89500000D03*
X123650000Y-84400000D03*
X122750000Y-84400000D03*
X123650000Y-82500000D03*
X122750000Y-82500000D03*
X94550000Y-96100000D03*
X95450000Y-96100000D03*
X94550000Y-97700000D03*
X95450000Y-97700000D03*
D20*
X104700000Y-103600000D03*
X107200000Y-103600000D03*
D16*
X125300000Y-105400000D03*
X125300000Y-104450000D03*
X125300000Y-103500000D03*
X127500000Y-103500000D03*
X127500000Y-104450000D03*
X127500000Y-105400000D03*
X125300000Y-98300000D03*
X125300000Y-97350000D03*
X125300000Y-96400000D03*
X127500000Y-96400000D03*
X127500000Y-97350000D03*
X127500000Y-98300000D03*
X125300000Y-91400000D03*
X125300000Y-90450000D03*
X125300000Y-89500000D03*
X127500000Y-89500000D03*
X127500000Y-90450000D03*
X127500000Y-91400000D03*
X125400000Y-84400000D03*
X125400000Y-83450000D03*
X125400000Y-82500000D03*
X127600000Y-82500000D03*
X127600000Y-83450000D03*
X127600000Y-84400000D03*
X93100000Y-103200000D03*
X93100000Y-104150000D03*
X93100000Y-105100000D03*
X90900000Y-105100000D03*
X90900000Y-104150000D03*
X90900000Y-103200000D03*
X93100000Y-96100000D03*
X93100000Y-97050000D03*
X93100000Y-98000000D03*
X90900000Y-98000000D03*
X90900000Y-97050000D03*
X90900000Y-96100000D03*
D15*
X92450000Y-101500000D03*
X91550000Y-101500000D03*
X92450000Y-106700000D03*
X91550000Y-106700000D03*
X92350000Y-94500000D03*
X91450000Y-94500000D03*
X92450000Y-99600000D03*
X91550000Y-99600000D03*
D21*
X131900000Y-79400000D03*
D22*
X86600000Y-83000000D03*
X86600000Y-85540000D03*
X86600000Y-88080000D03*
X86600000Y-90620000D03*
X86600000Y-93160000D03*
X86600000Y-95700000D03*
X86600000Y-98240000D03*
X86600000Y-100780000D03*
X86600000Y-103320000D03*
X86600000Y-105860000D03*
X131800000Y-106000000D03*
X131800000Y-103460000D03*
X131800000Y-100920000D03*
X131800000Y-98380000D03*
X131800000Y-95840000D03*
X131800000Y-93300000D03*
X131800000Y-90760000D03*
X131800000Y-88220000D03*
X131800000Y-85680000D03*
X131800000Y-83140000D03*
D21*
X131900000Y-109600000D03*
X86700000Y-109600000D03*
X86700000Y-79400000D03*
D23*
X93660000Y-87100000D03*
X98740000Y-87100000D03*
D24*
X120600000Y-79800000D03*
D25*
X123140000Y-79800000D03*
X125680000Y-79800000D03*
D26*
X93600000Y-90150000D03*
X93600000Y-91650000D03*
X98900000Y-91650000D03*
X98900000Y-90150000D03*
D15*
X95150000Y-109100000D03*
X94250000Y-109100000D03*
X95150000Y-107600000D03*
X94250000Y-107600000D03*
D27*
X93299240Y-82950000D03*
X93299240Y-81050000D03*
X95298220Y-82000000D03*
D16*
X118500000Y-99750000D03*
X118500000Y-100650000D03*
X118500000Y-102150000D03*
X118500000Y-103050000D03*
D28*
X109875000Y-110200000D03*
X97875000Y-110300000D03*
M02*
